<svg width="176" height="108" viewBox="0 0 176 108" fill="none" xmlns="http://www.w3.org/2000/svg">
<path d="M66.8551 80.5227H29.6551L22.0551 104.123C21.8551 105.023 21.0551 105.623 20.1551 105.523H1.35506C0.255064 105.523 -0.0449368 104.923 0.255063 103.723L32.4551 11.4227C32.7551 10.4227 33.0551 9.52266 33.4551 8.32266C33.8551 6.22266 34.0551 4.02265 34.0551 1.82265C33.9551 1.32265 34.3551 0.822656 34.8551 0.722656H35.1551H60.7551C61.4551 0.722656 61.9551 1.02266 62.0551 1.52266L98.5551 103.523C98.8551 104.623 98.5551 105.123 97.5551 105.123H76.6551C75.9551 105.223 75.2551 104.723 75.0551 104.023L66.8551 80.0227V80.5227ZM35.4551 60.6227H60.8551C60.2551 58.5227 59.4551 56.0227 58.5551 53.4227C57.6551 50.7227 56.7551 47.8227 55.8551 44.8227C54.8551 41.7227 53.9551 38.7227 52.9551 35.6227C51.9551 32.5227 51.0551 29.6227 50.2551 26.7227C49.4551 23.9227 48.7551 21.3227 48.0551 18.9227H47.8551C46.9551 23.2227 45.8551 27.5227 44.4551 31.8227C42.9551 36.6227 41.4551 41.6227 39.8551 46.6227C38.5551 51.7227 36.9551 56.4227 35.4551 60.6227Z" fill="#9999FF"/>
<path d="M157.455 71.5222H125.755C126.155 74.6222 127.155 77.7222 128.855 80.4222C130.655 83.1222 133.155 85.2222 136.155 86.4222C140.155 88.1222 144.555 89.0222 148.955 88.9222C152.455 88.8222 155.955 88.5222 159.355 87.8222C162.455 87.4222 165.455 86.6222 168.255 85.5222C168.755 85.1222 169.055 85.3222 169.055 86.3222V101.622C169.055 102.022 168.955 102.422 168.855 102.822C168.655 103.122 168.455 103.322 168.155 103.522C164.955 104.922 161.655 105.922 158.155 106.522C153.455 107.422 148.755 107.822 143.955 107.722C136.355 107.722 129.955 106.522 124.755 104.222C119.855 102.122 115.555 98.8222 112.155 94.7222C108.955 90.8222 106.655 86.4222 105.255 81.6222C103.855 76.9222 103.155 72.0222 103.155 67.0222C103.155 61.6222 103.955 56.3222 105.655 51.1222C107.255 46.1222 109.755 41.5222 113.155 37.4222C116.455 33.4222 120.555 30.2222 125.255 27.9222C129.955 25.6222 135.555 24.8222 141.955 24.8222C147.255 24.7222 152.555 25.7222 157.455 27.9222C161.555 29.7222 165.155 32.4222 167.955 35.9222C170.555 39.3222 172.655 43.1222 173.955 47.3222C175.255 51.3222 175.855 55.4222 175.855 59.5222C175.855 61.9222 175.755 64.0222 175.655 65.9222C175.455 67.8222 175.355 69.2222 175.255 70.1222C175.155 70.8222 174.555 71.4222 173.855 71.4222C173.255 71.4222 172.155 71.5222 170.555 71.6222C168.955 71.8222 167.055 71.9222 164.755 71.9222C162.455 71.9222 160.055 71.5222 157.455 71.5222ZM125.755 56.9222H146.855C149.455 56.9222 151.355 56.9222 152.555 56.8222C153.355 56.7222 154.155 56.5222 154.855 56.0222V55.0222C154.855 53.7222 154.655 52.5222 154.255 51.3222C152.455 45.7222 147.155 41.9222 141.255 42.1222C135.755 41.8222 130.555 44.7222 127.955 49.7222C126.755 52.0222 126.055 54.4222 125.755 56.9222Z" fill="#9999FF"/>
</svg>
