<svg width="134" height="115" viewBox="0 0 134 115" fill="none" xmlns="http://www.w3.org/2000/svg">
<path d="M66.7652 88.8227H29.5652L21.9652 112.323C21.7652 113.223 20.9652 113.823 20.0652 113.723H1.26522C0.165218 113.723 -0.13478 113.123 0.16522 111.923L32.3652 19.2227C32.6652 18.2227 32.9652 17.1227 33.3652 15.9227C33.7652 13.8227 33.9652 11.6227 33.9652 9.42265C33.8652 8.92265 34.2652 8.42265 34.7652 8.32265H60.6652C61.4652 8.32265 61.8652 8.62265 61.9652 9.12265L98.4652 112.123C98.7652 113.223 98.4652 113.723 97.4652 113.723H76.5652C75.8652 113.823 75.1652 113.323 74.9652 112.623L66.7652 88.8227ZM35.3652 68.5227H60.7652C60.1652 66.4227 59.3652 63.9227 58.4652 61.3227C57.5652 58.6227 56.6652 55.7227 55.7652 52.7227C54.7652 49.6227 53.8652 46.6227 52.8652 43.5227C51.8652 40.4227 50.9652 37.5227 50.1652 34.6227C49.3652 31.8227 48.6652 29.2227 47.9652 26.8227H47.7652C46.8652 31.1227 45.7652 35.4227 44.3652 39.7227C42.8652 44.5227 41.3652 49.5227 39.7652 54.5227C38.3652 59.6227 36.8652 64.3227 35.3652 68.5227ZM120.765 25.8227C117.465 25.9227 114.265 24.6227 111.865 22.3227C109.565 19.8227 108.365 16.5227 108.465 13.1227C108.365 9.72266 109.665 6.52266 112.065 4.22266C114.465 1.92266 117.665 0.722656 120.965 0.722656C124.865 0.722656 127.865 1.92266 130.065 4.22266C132.265 6.62266 133.465 9.82266 133.365 13.1227C133.465 16.5227 132.265 19.8227 129.865 22.3227C127.565 24.7227 124.165 26.0227 120.765 25.8227ZM109.565 112.623V35.6227C109.565 34.6227 109.965 34.2227 110.865 34.2227H130.665C131.565 34.2227 131.965 34.7227 131.965 35.6227V112.623C131.965 113.723 131.565 114.223 130.665 114.223H111.065C110.065 114.223 109.565 113.623 109.565 112.623Z" fill="#FF9A00"/>
</svg>
