<svg width="123" height="154" viewBox="0 0 123 154" fill="none" xmlns="http://www.w3.org/2000/svg">
<path d="M40.4172 130.216C33.443 123.841 31.407 110.445 34.3127 100.741C39.3509 106.859 46.3318 108.798 53.5625 109.892C64.7253 111.58 75.6884 110.949 86.0583 105.846C87.2444 105.262 88.3403 104.486 89.6363 103.699C90.6093 106.522 90.8623 109.372 90.5233 112.272C89.6963 119.336 86.1813 124.793 80.5893 128.929C78.3543 130.584 75.9883 132.063 73.6793 133.623C66.5843 138.418 64.6653 144.04 67.3313 152.218C67.3943 152.418 67.4513 152.617 67.5943 153.103C63.9723 151.482 61.3263 149.121 59.3103 146.018C57.1813 142.743 56.1683 139.12 56.1153 135.2C56.0883 133.292 56.0883 131.367 55.8313 129.486C55.2053 124.901 53.0527 122.848 48.9974 122.73C44.8356 122.608 41.5435 125.181 40.6704 129.233C40.6038 129.544 40.5071 129.851 40.4104 130.212L40.4172 130.216Z" fill="url(#paint0_linear_64_129)"/>
<path d="M0.611328 100.741C0.611328 100.741 21.2631 90.6811 41.9726 90.6811L57.5873 42.3572C58.1713 40.0203 59.8783 38.4321 61.8053 38.4321C63.7323 38.4321 65.4393 40.0203 66.0233 42.3572L81.6383 90.6811C106.165 90.6811 122.999 100.741 122.999 100.741C122.999 100.741 87.9203 5.17947 87.8523 4.98777C86.8453 2.16247 85.1453 0.342773 82.8543 0.342773H40.7601C38.4687 0.342773 36.8376 2.16247 35.7623 4.98777C35.6864 5.17587 0.611328 100.741 0.611328 100.741Z" fill="white"/>
<defs>
<linearGradient id="paint0_linear_64_129" x1="33.0313" y1="153.103" x2="100.373" y2="121.285" gradientUnits="userSpaceOnUse">
<stop stop-color="#D83333"/>
<stop offset="1" stop-color="#F041FF"/>
</linearGradient>
</defs>
</svg>
