<svg width="212" height="211" viewBox="0 0 212 211" fill="none" xmlns="http://www.w3.org/2000/svg">
<rect x="0.84375" y="0.0819778" width="210.367" height="210.367" rx="34" fill="black"/>
<path d="M84.6399 159.567C77.6657 153.192 75.6297 139.796 78.5354 130.092C83.5736 136.21 90.5545 138.149 97.7852 139.243C108.948 140.931 119.911 140.3 130.281 135.197C131.467 134.613 132.563 133.837 133.859 133.05C134.832 135.873 135.085 138.723 134.746 141.623C133.919 148.687 130.404 154.144 124.812 158.28C122.577 159.935 120.211 161.414 117.902 162.974C110.807 167.769 108.888 173.391 111.554 181.569C111.617 181.769 111.674 181.968 111.817 182.454C108.195 180.833 105.549 178.472 103.533 175.369C101.404 172.094 100.391 168.471 100.338 164.551C100.311 162.643 100.311 160.718 100.054 158.837C99.428 154.252 97.2754 152.199 93.2201 152.081C89.0583 151.959 85.7662 154.532 84.8931 158.584C84.8265 158.895 84.7298 159.202 84.6331 159.563L84.6399 159.567Z" fill="white"/>
<path d="M84.6399 159.567C77.6657 153.192 75.6297 139.796 78.5354 130.092C83.5736 136.21 90.5545 138.149 97.7852 139.243C108.948 140.931 119.911 140.3 130.281 135.197C131.467 134.613 132.563 133.837 133.859 133.05C134.832 135.873 135.085 138.723 134.746 141.623C133.919 148.687 130.404 154.144 124.812 158.28C122.577 159.935 120.211 161.414 117.902 162.974C110.807 167.769 108.888 173.391 111.554 181.569C111.617 181.769 111.674 181.968 111.817 182.454C108.195 180.833 105.549 178.472 103.533 175.369C101.404 172.094 100.391 168.471 100.338 164.551C100.311 162.643 100.311 160.718 100.054 158.837C99.428 154.252 97.2754 152.199 93.2201 152.081C89.0583 151.959 85.7662 154.532 84.8931 158.584C84.8265 158.895 84.7298 159.202 84.6331 159.563L84.6399 159.567Z" fill="url(#paint0_linear_42_191)"/>
<path d="M44.834 128.475C44.834 128.475 65.4858 118.415 86.1953 118.415L101.81 70.0911C102.394 67.7542 104.101 66.166 106.028 66.166C107.955 66.166 109.662 67.7542 110.246 70.0911L125.861 118.415C150.388 118.415 167.222 128.475 167.222 128.475C167.222 128.475 132.143 32.9134 132.075 32.7217C131.068 29.8964 129.368 28.0767 127.077 28.0767H84.9828C82.6914 28.0767 81.0603 29.8964 79.985 32.7217C79.9091 32.9098 44.834 128.475 44.834 128.475Z" fill="white"/>
<defs>
<linearGradient id="paint0_linear_42_191" x1="77.254" y1="182.454" x2="144.596" y2="150.636" gradientUnits="userSpaceOnUse">
<stop stop-color="#D83333"/>
<stop offset="1" stop-color="#F041FF"/>
</linearGradient>
</defs>
</svg>
