<svg width="179" height="143" viewBox="0 0 179 143" fill="none" xmlns="http://www.w3.org/2000/svg">
<path d="M144.77 105.136C137.597 112.356 127.564 116.438 116.696 116.453C105.82 116.474 95.7796 112.42 88.6068 105.222C85.1002 101.712 82.5302 97.6867 80.933 93.382C79.3721 89.1561 78.7768 84.6366 79.1761 80.16C79.5609 75.7909 80.8677 71.5435 83.0239 67.7043C85.122 63.9512 88.0042 60.5633 91.5616 57.6983C98.5311 52.09 107.403 49.0603 116.696 49.0459C125.988 49.0316 134.853 52.047 141.829 57.6267C145.38 60.4845 148.262 63.8581 150.353 67.6041C152.509 71.4432 153.823 75.6834 154.208 80.0526C154.607 84.5363 154.004 89.0487 152.443 93.2818C150.846 97.5793 148.269 101.612 144.77 105.136Z" fill="white"/>
<path d="M93.5079 80.618C93.8346 74.7805 96.7386 69.6306 101.109 65.9849C105.4 62.3965 111.179 60.2119 117.473 60.2119C123.775 60.2191 129.546 62.4036 133.837 65.9849C138.207 69.6378 141.111 74.7805 141.445 80.618C141.779 86.6202 139.333 92.1998 135.042 96.3326C130.672 100.537 124.443 103.18 117.473 103.18C110.503 103.18 104.267 100.537 99.8967 96.3326C95.6133 92.1998 93.1739 86.6202 93.5079 80.618Z" fill="#005385"/>
<path d="M55.3266 92.4365C55.3702 94.7142 56.1107 99.155 57.2142 102.629C59.5446 109.97 63.4941 116.768 68.9971 122.756C74.6453 128.908 81.5858 133.85 89.6153 137.353C98.0587 141.041 107.199 142.925 116.688 142.904C126.176 142.889 135.317 140.977 143.753 137.26C151.775 133.714 158.715 128.758 164.356 122.591C169.852 116.574 173.794 109.77 176.125 102.428C177.286 98.7682 178.034 94.9935 178.339 91.1759C178.63 87.4514 178.506 83.6982 177.976 79.9952C176.931 72.7324 174.382 65.9208 170.462 59.7109C166.868 54.0095 162.251 49.0101 156.755 44.7985L156.763 44.7913L101.311 2.79022C101.268 2.7544 101.217 2.71143 101.173 2.67562C97.5214 -0.0747974 91.4085 -0.0676345 87.4083 2.6971C83.3573 5.49049 82.8999 10.1103 86.4936 13.0255L86.479 13.0326L109.609 31.5979L39.0934 31.6696H38.999C33.1765 31.6767 27.5718 35.4514 26.4611 40.2145C25.3285 45.0707 29.2852 49.096 35.3472 49.1246L35.34 49.1461L71.0807 49.0745L7.30208 97.3715C7.22222 97.4359 7.1351 97.4932 7.0625 97.5505C1.05127 102.092 -0.894397 109.655 2.88803 114.44C6.73581 119.303 14.9105 119.31 20.9943 114.461L55.7985 86.3627C55.7985 86.3627 55.2903 90.1588 55.3266 92.4365ZM144.769 105.136C137.596 112.356 127.563 116.438 116.695 116.452C105.82 116.474 95.779 112.42 88.6062 105.222C85.0997 101.712 82.5296 97.6866 80.9324 93.382C79.3715 89.1561 78.7762 84.6365 79.1755 80.1599C79.5603 75.7908 80.8671 71.5434 83.0233 67.7043C85.1214 63.9511 88.0036 60.5632 91.561 57.6982C98.5305 52.0899 107.402 49.0602 116.695 49.0459C125.988 49.0315 134.852 52.047 141.829 57.6266C145.379 60.4844 148.261 63.858 150.352 67.604C152.508 71.4431 153.822 75.6833 154.207 80.0525C154.606 84.5362 154.004 89.0486 152.443 93.2817C150.846 97.5792 148.268 101.612 144.769 105.136Z" fill="#FF7021"/>
</svg>
