<svg width="211" height="211" viewBox="0 0 211 211" fill="none" xmlns="http://www.w3.org/2000/svg">
<path d="M0.632813 0.0819778H177.341C186.268 0.0819778 194.829 3.62815 201.141 9.94039C207.454 16.2526 211 24.8139 211 33.7407V176.79C211 185.717 207.454 194.278 201.141 200.591C194.829 206.903 186.268 210.449 177.341 210.449H34.2915C25.3647 210.449 16.8035 206.903 10.4912 200.591C4.17899 194.278 0.632813 185.717 0.632812 176.79L0.632813 0.0819778Z" fill="#663399"/>
<path d="M75.9665 193.62C62.4546 193.607 54.1178 185.998 54.2776 171.996V136.572C54.2776 129.475 56.3561 124.076 60.5129 120.382C67.9789 113.19 85.3005 112.752 92.6128 120.492C97.1189 124.466 98.8187 132.584 98.4148 140.159H82.9065C83.0243 137.182 82.8665 132.674 81.1163 130.977C78.8422 127.899 72.8362 128.261 71.248 131.465C70.2719 133.202 69.7838 135.775 69.7838 139.179V169.93C69.7838 176.378 72.0242 179.639 76.5071 179.71C78.6024 179.71 80.1949 178.949 81.2783 177.428C82.7908 175.623 83.0264 171.626 82.9044 168.735H98.4126C99.4729 183.476 90.7721 193.803 75.9644 193.62H75.9665ZM125.201 193.62C110.229 193.826 103.531 183.173 103.945 168.735H118.585C118.179 175.029 120.341 180.762 125.525 180.362C127.837 180.362 129.465 179.639 130.405 178.189C132.193 175.541 132.528 167.892 129.972 164.932C128.186 162.081 121.761 159.565 118.368 157.87C113.523 155.552 110.035 152.8 107.902 149.611C103.091 142.534 103.537 127.001 110.288 120.706C116.847 112.94 133.977 112.582 140.543 120.544C144.592 124.649 146.362 132.725 146.019 140.157H131.92C132.04 137.102 131.752 132.174 130.565 130.377C129.734 128.856 128.161 128.095 125.849 128.095C121.728 128.095 119.668 130.558 119.668 135.483C119.712 140.712 121.751 142.858 126.501 145.044C132.652 147.434 140.473 151.515 143.309 156.454C151.766 171.504 145.964 194.493 125.199 193.615L125.201 193.62ZM172.483 193.62C157.511 193.826 150.813 183.173 151.227 168.735H165.867C165.461 175.029 167.623 180.762 172.807 180.362C175.119 180.362 176.747 179.639 177.687 178.189C179.475 175.541 179.81 167.892 177.254 164.932C175.468 162.081 169.043 159.565 165.65 157.87C160.805 155.552 157.318 152.8 155.184 149.611C150.373 142.534 150.819 127.001 157.57 120.706C164.129 112.94 181.259 112.582 187.825 120.544C191.875 124.649 193.644 132.725 193.301 140.157H179.202C179.322 137.102 179.034 132.174 177.847 130.377C177.016 128.856 175.443 128.095 173.131 128.095C169.01 128.095 166.95 130.558 166.95 135.483C166.994 140.712 169.033 142.858 173.783 145.044C179.934 147.434 187.756 151.515 190.591 156.454C199.048 171.504 193.246 194.493 172.481 193.615L172.483 193.62Z" fill="white"/>
</svg>
