<svg width="126" height="189" viewBox="0 0 126 189" fill="none" xmlns="http://www.w3.org/2000/svg">
<path d="M31.4302 188.687C48.6756 188.687 62.6719 174.603 62.6719 157.25V125.812H31.4302C14.1848 125.812 0.188477 139.896 0.188477 157.25C0.188477 174.603 14.1848 188.687 31.4302 188.687Z" fill="#0ACF83"/>
<path d="M0.188477 94.3758C0.188477 77.0224 14.1848 62.9385 31.4302 62.9385H62.6719V125.813H31.4302C14.1848 125.813 0.188477 111.729 0.188477 94.3758Z" fill="#A259FF"/>
<path d="M0.188477 31.5008C0.188477 14.1474 14.1848 0.0634766 31.4302 0.0634766H62.6719V62.9382H31.4302C14.1848 62.9382 0.188477 48.8542 0.188477 31.5008Z" fill="#F24E1E"/>
<path d="M62.6719 0.0634766H93.9136C111.159 0.0634766 125.155 14.1474 125.155 31.5008C125.155 48.8542 111.159 62.9382 93.9136 62.9382H62.6719V0.0634766Z" fill="#FF7262"/>
<path d="M125.155 94.3758C125.155 111.729 111.159 125.813 93.9136 125.813C76.6682 125.813 62.6719 111.729 62.6719 94.3758C62.6719 77.0224 76.6682 62.9385 93.9136 62.9385C111.159 62.9385 125.155 77.0224 125.155 94.3758Z" fill="#1ABCFE"/>
</svg>
