<svg width="280" height="103" viewBox="0 0 280 103" fill="none" xmlns="http://www.w3.org/2000/svg">
<path d="M81.2063 48.4571V48.5011L77.566 64.3019C77.3696 65.1958 76.4756 65.8494 75.4461 65.8494H71.0473C70.8887 65.8501 70.7346 65.9019 70.6077 65.997C70.4809 66.0922 70.388 66.2257 70.3429 66.3777C66.2861 80.1398 60.7934 89.5979 53.5398 95.2768C47.3699 100.112 39.7642 102.368 29.6018 102.368C20.4722 102.368 14.3158 99.4318 9.09403 93.6344C2.19265 85.9745 -0.658659 73.4314 1.06838 58.3216C4.18382 29.9541 18.8975 1.32931 47.2277 1.32931C55.846 1.25481 62.6119 3.9131 67.3189 9.2195C72.2968 14.8341 74.8231 23.2864 74.8366 34.353C74.8242 34.8381 74.623 35.2992 74.2758 35.6382C73.9286 35.9772 73.4628 36.1673 72.9775 36.1681H52.2192C51.8554 36.1569 51.5098 36.0067 51.2534 35.7485C50.997 35.4902 50.8494 35.1435 50.8409 34.7797C50.6716 27.1265 48.4028 23.4015 43.8921 23.4015C35.9342 23.4015 31.2407 34.204 28.7518 40.191C25.274 48.5553 23.5029 57.6409 23.8517 66.6892C24.0177 70.9018 24.6949 76.8246 28.6942 79.2797C32.2397 81.4537 37.2989 80.0111 40.3636 77.6034C43.4248 75.1923 45.8901 71.0238 46.9263 67.2209C47.0719 66.6926 47.0821 66.2829 46.9432 66.1C46.7976 65.9104 46.3947 65.8663 46.0865 65.8663H40.7564C40.4743 65.8672 40.1953 65.8065 39.9391 65.6883C39.6829 65.5702 39.4557 65.3975 39.2732 65.1823C39.1331 65.0144 39.0337 64.8164 38.9826 64.6038C38.9315 64.3912 38.9301 64.1697 38.9785 63.9564L42.6223 48.1286C42.8017 47.3193 43.5366 46.7064 44.4407 46.598V46.5574H79.4217C79.503 46.5574 79.5876 46.5574 79.6655 46.5743C80.5731 46.6928 81.2131 47.536 81.1962 48.4571H81.2063Z" fill="white"/>
<path d="M143.698 30.0693C143.682 30.5508 143.479 31.0073 143.133 31.3423C142.787 31.6772 142.324 31.8643 141.842 31.8641H122.723C121.47 31.8641 120.423 30.8482 120.423 29.6121C120.423 24.0348 118.493 21.319 114.545 21.319C110.596 21.319 108.05 23.7436 107.975 27.9799C107.89 32.7039 110.562 36.9978 118.168 44.3732C128.181 53.767 132.194 62.0872 132.001 73.0861C131.686 90.8712 119.594 102.368 101.192 102.368C91.7951 102.368 84.616 99.8552 79.8413 94.8975C74.9954 89.862 72.774 82.473 73.2379 72.9371C73.2537 72.455 73.4567 71.998 73.8037 71.6629C74.1508 71.3279 74.6146 71.1412 75.097 71.1423H94.8733C95.1487 71.1467 95.4198 71.2122 95.6669 71.334C95.914 71.4558 96.131 71.6309 96.3023 71.8467C96.4517 72.0251 96.5611 72.2335 96.623 72.4579C96.685 72.6822 96.698 72.9172 96.6613 73.147C96.4411 76.5876 97.0405 79.1578 98.3951 80.5801C99.262 81.5011 100.471 81.9685 101.978 81.9685C105.632 81.9685 107.772 79.3881 107.853 74.891C107.921 71.0035 106.692 67.5968 99.9934 60.7056C91.3413 52.2533 83.5832 43.5199 83.8236 29.7882C83.9658 21.8235 87.1287 14.5395 92.7331 9.27711C98.6592 3.71672 106.763 0.777374 116.17 0.777374C125.594 0.845101 132.736 3.53386 137.399 8.76916C141.815 13.7302 143.938 20.8957 143.704 30.0693H143.698Z" fill="white"/>
<path d="M202.958 99.022L203.084 4.43117C203.087 4.19428 203.044 3.95907 202.955 3.73934C202.866 3.51961 202.735 3.3198 202.568 3.15165C202.401 2.9835 202.202 2.8504 201.983 2.76017C201.764 2.66995 201.529 2.62441 201.292 2.62624H171.702C170.707 2.62624 170.27 3.48299 169.986 4.04851L127.141 98.443V98.4599L127.125 98.4836C126.65 99.6451 127.551 100.888 128.808 100.888H149.491C150.609 100.888 151.35 100.549 151.713 99.8449L155.82 89.9737C156.325 88.6564 156.42 88.5345 157.856 88.5345H177.618C178.993 88.5345 179.02 88.5616 179 89.906L178.556 99.083C178.553 99.3196 178.596 99.5545 178.685 99.774C178.773 99.9935 178.904 100.193 179.071 100.361C179.237 100.529 179.436 100.663 179.655 100.753C179.873 100.843 180.108 100.889 180.344 100.888H201.242C201.5 100.891 201.756 100.838 201.992 100.731C202.228 100.625 202.438 100.468 202.606 100.272C202.752 100.101 202.859 99.9012 202.919 99.6854C202.98 99.4697 202.993 99.2434 202.958 99.022ZM166.352 67.441C166.196 67.4418 166.04 67.4361 165.885 67.424C165.812 67.418 165.742 67.3962 165.679 67.3601C165.616 67.324 165.561 67.2746 165.519 67.2152C165.477 67.1558 165.449 67.0879 165.436 67.0163C165.423 66.9448 165.426 66.8712 165.444 66.8009C165.485 66.6655 165.543 66.4792 165.627 66.2523L180.446 29.585C180.579 29.2232 180.733 28.8693 180.906 28.525C181.147 28.0306 181.438 27.9968 181.53 28.3625C181.607 28.6673 179.83 66.0119 179.83 66.0119C179.691 67.4105 179.626 67.468 178.248 67.5832L166.366 67.4477H166.338L166.352 67.441Z" fill="white"/>
<path d="M245.113 2.62643H229.404C228.574 2.62643 227.643 3.06666 227.426 4.05547L205.564 98.9748C205.516 99.1889 205.518 99.411 205.57 99.6241C205.621 99.8372 205.721 100.036 205.862 100.204C206.044 100.419 206.271 100.591 206.526 100.709C206.782 100.827 207.06 100.888 207.341 100.888H226.976C228.032 100.888 228.753 100.37 228.95 99.4726L231.334 88.7142C231.503 87.8744 231.212 87.2242 230.46 86.8314C230.107 86.6497 229.755 86.4668 229.404 86.2828L226 84.5117L222.614 82.7441L221.303 82.0634C221.197 82.0103 221.107 81.928 221.046 81.8261C220.984 81.7242 220.952 81.6068 220.955 81.4877C220.959 81.3114 221.032 81.1438 221.159 81.0209C221.286 80.8981 221.455 80.8298 221.632 80.8308L232.39 80.8782C235.607 80.8951 238.828 80.6682 241.994 80.0858C264.276 75.9714 279.074 58.1253 279.501 33.8418C279.867 13.1173 268.299 2.61627 245.13 2.61627L245.113 2.62643ZM239.766 59.1107H239.346C238.401 59.1107 238.235 59.0091 238.208 58.9753C238.191 58.9516 244.412 31.6373 244.415 31.6C244.574 30.811 244.568 30.3572 244.08 30.0897C243.457 29.7443 234.375 24.956 234.375 24.956C234.269 24.9005 234.181 24.8165 234.121 24.7136C234.06 24.6107 234.03 24.4929 234.033 24.3736C234.037 24.1996 234.109 24.0342 234.234 23.9128C234.359 23.7913 234.526 23.7233 234.7 23.7234H249.061C253.531 23.8588 256.024 27.8581 255.905 34.6884C255.699 46.5101 250.077 58.6942 239.766 59.1107Z" fill="white"/>
</svg>
