<svg width="837" height="119" viewBox="0 0 837 119" fill="none" xmlns="http://www.w3.org/2000/svg">
<path d="M90.6588 13.6578C89.7988 14.5978 89.2688 15.6278 89.0388 18.2978C88.8088 20.9678 89.2288 22.8178 89.5188 26.9978C89.8088 31.1878 90.0288 34.0278 90.4688 39.2178C90.9088 44.4078 91.2588 47.5278 91.7388 52.9478C92.2088 58.3678 92.3788 61.2778 92.8388 66.3378C93.3088 71.3978 93.6488 73.9178 94.0488 78.2478C94.4488 82.5778 94.5388 84.5778 94.8488 87.9878C95.1688 91.3878 95.1588 92.9878 95.6288 95.2478C96.0988 97.5178 96.4588 98.2778 97.1988 99.3078C97.9388 100.348 98.4488 100.588 99.3288 100.428C100.209 100.268 101.029 99.9178 101.609 98.4878C102.179 97.0578 102.639 96.0578 102.189 93.2878C101.739 90.5278 100.429 88.6378 99.3588 84.6778C98.2888 80.7078 97.7988 78.2078 96.8488 73.4678C95.8888 68.7378 95.5088 66.0778 94.5888 61.0078C93.6788 55.9378 93.1688 53.0078 92.2688 48.1078C91.3688 43.2178 90.8988 40.8778 90.1088 36.5378C89.3188 32.1978 88.9188 29.9278 88.3188 26.3978C87.7188 22.8678 87.7188 20.9978 87.1288 18.8778C86.5488 16.7578 85.8588 16.0278 85.3888 15.8078C84.9188 15.5778 84.2488 16.1678 84.7588 17.7678C85.2688 19.3678 86.0288 20.7778 87.9188 23.8078C89.8188 26.8378 91.5188 28.9278 94.2388 32.9078C96.9588 36.8878 98.4888 39.4078 101.509 43.6978C104.519 47.9878 106.139 50.3078 109.319 54.3578C112.499 58.4178 114.259 60.3878 117.419 63.9878C120.589 67.5878 122.139 69.2978 125.129 72.3678C128.109 75.4478 129.619 76.8978 132.359 79.3478C135.089 81.7978 136.319 83.0278 138.809 84.6178C141.299 86.1978 142.529 86.6878 144.799 87.2778C147.069 87.8678 148.189 88.0378 150.159 87.5778C152.139 87.1178 153.179 86.5378 154.669 84.9778C156.159 83.4178 156.869 82.3978 157.619 79.7778C158.369 77.1578 158.239 75.4878 158.419 71.8778C158.589 68.2678 158.529 65.9478 158.499 61.7278C158.459 57.4978 158.349 55.0078 158.249 50.7578C158.139 46.5078 158.079 44.2078 157.979 40.4678C157.869 36.7378 157.969 34.9978 157.699 32.0978C157.439 29.2078 156.989 27.9978 156.649 26.0078C156.309 24.0178 156.319 23.2578 156.009 22.1478C155.689 21.0378 155.359 20.9478 155.089 20.4778C154.809 19.9978 154.949 20.0578 154.649 19.7778C154.339 19.5078 154.059 19.0778 153.569 19.0978C153.079 19.1178 152.699 19.2378 152.199 19.8778C151.699 20.5078 151.309 20.9078 151.059 22.2678C150.809 23.6178 150.809 24.5478 150.929 26.6478C151.049 28.7478 151.299 29.9278 151.649 32.7478C151.999 35.5778 152.379 37.1378 152.669 40.7578C152.959 44.3778 153.039 46.6978 153.089 50.8578C153.139 55.0178 153.179 57.4878 152.929 61.5778C152.669 65.6578 152.269 67.9478 151.819 71.2878C151.379 74.6278 150.979 76.1378 150.699 78.2878C150.429 80.4378 150.719 81.0678 150.449 82.0178C150.179 82.9778 150.129 83.0378 149.369 83.0578C148.599 83.0678 148.079 82.8378 146.609 82.1178C145.149 81.3978 144.239 80.7878 142.039 79.4378C139.829 78.0978 138.339 77.4578 135.569 75.4078C132.809 73.3678 131.239 72.0378 128.219 69.2178C125.189 66.3978 123.599 64.7478 120.439 61.2878C117.289 57.8278 115.529 55.9178 112.449 51.9278C109.369 47.9378 107.799 45.6878 105.039 41.3378C102.279 36.9878 100.979 34.3878 98.6388 30.1878C96.3088 25.9878 95.3888 23.4678 93.3388 20.3378C91.2988 17.2078 90.3388 15.6978 88.4188 14.5478C86.4988 13.3978 85.1188 13.5978 83.7388 14.5778C82.3688 15.5678 81.6388 16.8978 81.5488 19.4678C81.4588 22.0378 82.4288 23.8378 83.2888 27.4278C84.1588 31.0178 84.8788 33.1278 85.8688 37.4178C86.8688 41.6978 87.3488 43.9978 88.2688 48.8578C89.1988 53.7078 89.7088 56.6178 90.4988 61.6978C91.2788 66.7678 91.6288 69.4078 92.2088 74.2178C92.7888 79.0178 93.0488 81.5878 93.3888 85.7178C93.7388 89.8478 93.3188 92.1078 93.9288 94.8778C94.5288 97.6378 95.3488 98.3678 96.4288 99.5178C97.5088 100.658 98.3688 100.778 99.3388 100.608C100.299 100.438 100.859 99.9278 101.249 98.6778C101.629 97.4278 101.519 96.6278 101.259 94.3478C101.009 92.0778 100.569 90.6178 99.9788 87.2978C99.3888 83.9678 98.9588 81.9978 98.3188 77.7278C97.6788 73.4578 97.2888 70.9678 96.7788 65.9578C96.2588 60.9378 96.0888 58.0378 95.7488 52.6478C95.3988 47.2478 95.1888 44.1278 95.0388 38.9578C94.8888 33.7978 94.9988 30.9778 95.0088 26.8278C95.0288 22.6678 95.4588 20.8178 95.1188 18.1678C94.7788 15.5278 94.1988 14.5078 93.3088 13.6078C92.4188 12.7078 91.5088 12.7278 90.6588 13.6578Z" fill="white" stroke="white"/>
<path d="M187.231 57.4675C186.401 58.0775 185.981 58.6476 185.611 60.3276C185.251 62.0076 185.141 63.3576 185.401 65.8676C185.651 68.3776 186.041 70.0676 186.881 72.8676C187.721 75.6676 188.481 77.4076 189.611 79.8676C190.731 82.3176 191.361 83.5075 192.521 85.1475C193.681 86.7775 194.361 87.2975 195.421 88.0275C196.481 88.7675 196.871 88.7976 197.821 88.8176C198.761 88.8376 199.591 88.5476 200.141 88.1376C200.691 87.7176 201.081 87.1175 200.571 86.7275C200.051 86.3375 198.141 86.2376 197.561 86.1976C196.991 86.1576 197.431 86.4975 197.681 86.5375C197.931 86.5875 198.551 86.6875 198.821 86.4175C199.101 86.1575 199.181 86.0476 199.051 85.2376C198.921 84.4276 198.591 83.9476 198.161 82.3676C197.741 80.7776 197.481 79.6576 196.931 77.2976C196.371 74.9376 196.011 73.1976 195.371 70.5576C194.741 67.9276 194.491 66.3576 193.771 64.1376C193.041 61.9176 192.551 60.8176 191.741 59.4476C190.941 58.0776 190.661 57.6775 189.761 57.2775C188.861 56.8875 188.061 56.8575 187.231 57.4675Z" fill="white" stroke="white"/>
<path d="M184.538 38.6178C185.398 37.9478 185.688 37.2178 185.568 37.3078C185.458 37.3978 184.458 38.6378 183.968 39.0878C183.478 39.5478 183.478 39.9678 183.128 39.5778C182.778 39.1878 182.738 37.4678 182.218 37.1378C181.708 36.8078 181.138 37.2278 180.558 37.9378C179.988 38.6378 179.228 40.1078 179.358 40.6578C179.488 41.2078 180.198 41.0878 181.228 40.6878C182.268 40.2778 183.668 39.2978 184.538 38.6178Z" fill="white" stroke="white"/>
<path d="M240.258 54.1277C239.848 53.2077 239.318 52.6776 237.928 52.3376C236.538 51.9976 235.308 51.7777 233.308 52.4077C231.298 53.0377 229.948 53.7577 227.898 55.4777C225.858 57.2077 224.788 58.5176 223.088 61.0276C221.388 63.5376 220.508 65.1476 219.408 68.0276C218.298 70.8976 217.738 72.5477 217.568 75.4077C217.398 78.2677 217.618 79.9177 218.568 82.3277C219.508 84.7477 220.358 85.7977 222.288 87.4877C224.218 89.1877 225.398 90.0877 228.228 90.8177C231.048 91.5377 232.968 91.4777 236.398 91.1077C239.818 90.7277 241.698 90.1877 245.338 88.9477C248.978 87.7177 250.958 86.9077 254.588 84.9277C258.208 82.9577 260.238 81.8676 263.458 79.0876C266.688 76.3076 268.228 74.6277 270.708 71.0477C273.188 67.4577 274.248 65.2277 275.858 61.1777C277.468 57.1177 278.048 54.8676 278.778 50.7676C279.508 46.6776 279.518 44.4677 279.488 40.6877C279.458 36.9077 279.338 34.9577 278.628 31.8677C277.918 28.7877 277.358 27.3277 275.938 25.2577C274.508 23.1977 273.408 22.1277 271.508 21.5377C269.608 20.9577 268.108 21.1176 266.438 22.3376C264.758 23.5576 263.798 24.9277 263.128 27.6377C262.448 30.3577 262.678 32.2477 263.078 35.9077C263.468 39.5777 264.098 41.9676 265.088 45.9676C266.078 49.9676 266.738 52.1877 268.028 55.9077C269.328 59.6277 270.108 61.3677 271.548 64.5477C272.988 67.7277 273.648 69.3477 275.238 71.8077C276.828 74.2777 277.838 75.3577 279.488 76.8777C281.128 78.3977 282.198 78.9577 283.478 79.4177C284.768 79.8877 285.308 79.4977 285.918 79.2177C286.528 78.9377 286.488 78.5777 286.528 78.0077C286.568 77.4377 286.598 77.4277 286.128 76.3677C285.658 75.3177 285.308 74.3777 284.198 72.7477C283.078 71.1177 282.068 70.3577 280.548 68.2277C279.038 66.0977 278.088 64.9076 276.618 62.0876C275.148 59.2676 274.358 57.6076 273.198 54.1476C272.048 50.6776 271.468 48.5077 270.828 44.7577C270.198 41.0077 270.138 38.6476 270.028 35.3976C269.918 32.1576 270.338 30.6377 270.268 28.5377C270.198 26.4377 269.828 25.6177 269.678 24.9177C269.528 24.2077 269.288 24.3876 269.508 25.0176C269.728 25.6576 270.158 26.4276 270.778 28.0876C271.408 29.7576 271.948 30.7777 272.628 33.3477C273.298 35.9077 273.888 37.5776 274.148 40.8976C274.408 44.2276 274.458 46.2777 273.918 49.9777C273.378 53.6877 272.858 55.7677 271.438 59.4377C270.018 63.1077 269.038 65.1477 266.808 68.3277C264.578 71.5077 263.228 72.9377 260.298 75.3177C257.368 77.6977 255.508 78.6377 252.178 80.2277C248.848 81.8177 246.928 82.4576 243.658 83.2776C240.378 84.0976 238.598 84.1377 235.778 84.3277C232.958 84.5177 231.548 84.4877 229.558 84.2277C227.578 83.9777 226.958 83.8177 225.868 83.0677C224.768 82.3177 224.408 81.8277 224.078 80.4777C223.758 79.1277 223.778 78.1777 224.248 76.3077C224.718 74.4377 225.318 73.2577 226.428 71.1377C227.538 69.0077 228.428 67.6077 229.798 65.6777C231.178 63.7377 232.028 62.7277 233.308 61.4477C234.578 60.1677 235.168 59.8976 236.168 59.2776C237.168 58.6476 237.508 58.8076 238.278 58.3376C239.048 57.8676 239.608 57.7677 240.008 56.9277C240.398 56.0877 240.678 55.0477 240.258 54.1277Z" fill="white" stroke="white"/>
<path d="M299.817 65.917C300.587 65.257 300.947 64.607 300.667 63.727C300.387 62.847 299.697 62.107 298.427 61.507C297.157 60.907 295.947 60.467 294.297 60.717C292.657 60.977 291.477 61.587 290.197 62.797C288.917 64.007 288.437 64.987 287.907 66.767C287.367 68.547 287.207 69.727 287.527 71.687C287.857 73.657 288.277 74.877 289.537 76.597C290.797 78.327 291.827 79.137 293.817 80.327C295.807 81.517 297.067 81.887 299.477 82.547C301.887 83.197 303.257 83.337 305.877 83.597C308.487 83.857 309.947 83.927 312.557 83.837C315.177 83.737 316.587 83.777 318.927 83.107C321.277 82.437 323.327 81.647 324.297 80.487C325.267 79.327 325.007 78.117 323.787 77.307C322.567 76.507 320.427 76.607 318.177 76.457C315.927 76.307 314.817 76.637 312.527 76.567C310.227 76.487 308.937 76.377 306.707 76.097C304.477 75.807 303.277 75.607 301.377 75.157C299.477 74.707 298.567 74.387 297.207 73.827C295.857 73.267 295.237 72.917 294.597 72.367C293.947 71.827 293.897 71.657 293.997 71.107C294.097 70.557 294.687 70.217 295.097 69.637C295.507 69.057 295.787 68.637 296.037 68.187C296.287 67.747 296.427 67.617 296.347 67.407C296.257 67.187 295.847 67.167 295.617 67.097C295.387 67.017 294.957 67.047 295.197 67.017C295.437 66.997 295.887 67.207 296.817 66.987C297.737 66.767 299.047 66.567 299.817 65.917Z" fill="white" stroke="white"/>
<path d="M405.579 31.2769C405.129 30.3169 404.389 29.9269 402.979 29.3969C401.559 28.8569 400.709 28.5569 398.489 28.6169C396.269 28.6869 394.549 28.7069 391.889 29.7069C389.229 30.7169 387.899 31.747 385.189 33.637C382.489 35.527 381.159 36.6469 378.369 39.1569C375.579 41.6669 373.779 43.1169 371.259 46.1769C368.739 49.2469 367.439 51.097 365.759 54.497C364.089 57.887 363.299 59.7569 362.889 63.1569C362.469 66.5469 362.619 68.4469 363.699 71.4869C364.769 74.5269 365.779 76.1269 368.249 78.3569C370.729 80.5869 372.559 81.277 376.069 82.627C379.579 83.967 381.639 84.427 385.809 85.077C389.979 85.727 392.439 85.7869 396.919 85.8669C401.389 85.9369 403.829 85.867 408.199 85.447C412.559 85.027 414.809 84.697 418.759 83.757C422.699 82.827 424.829 82.2669 427.899 80.7669C430.979 79.2769 432.349 78.0369 434.119 76.2669C435.899 74.4969 436.559 73.1369 436.779 71.9269C437.009 70.7169 436.399 70.1769 435.239 70.2169C434.069 70.2569 432.939 71.047 430.969 72.127C428.999 73.217 428.059 74.2969 425.369 75.6569C422.669 77.0169 421.019 77.917 417.499 78.937C413.969 79.947 411.819 80.2969 407.729 80.7069C403.639 81.1269 401.249 81.157 397.049 80.997C392.849 80.827 390.479 80.6469 386.709 79.9069C382.949 79.1669 381.099 78.5169 378.219 77.2869C375.339 76.0569 374.119 75.317 372.319 73.757C370.509 72.207 369.919 71.4969 369.209 69.5169C368.499 67.5469 368.429 66.3969 368.759 63.8969C369.089 61.3969 369.499 59.817 370.879 57.007C372.249 54.197 373.359 52.4969 375.629 49.8569C377.909 47.2169 379.609 45.8569 382.259 43.7969C384.919 41.7369 386.459 40.8969 388.899 39.5569C391.349 38.2269 392.419 37.7769 394.489 37.1069C396.569 36.4469 397.649 36.5769 399.289 36.2369C400.929 35.8869 401.519 35.8169 402.699 35.4069C403.889 34.9969 404.639 34.9969 405.209 34.1669C405.789 33.3469 406.019 32.2269 405.579 31.2769Z" fill="white" stroke="white"/>
<path d="M431.29 36.7574C430.55 37.9174 430.42 39.4474 430.46 42.0374C430.5 44.6274 430.89 46.3274 431.47 49.7074C432.05 53.0874 432.63 55.5974 433.37 58.9274C434.1 62.2574 434.42 63.8174 435.15 66.3774C435.89 68.9274 436.28 70.0074 437.05 71.6974C437.83 73.3874 438.1 73.9774 439.01 74.8174C439.91 75.6574 440.41 75.7674 441.57 75.9074C442.73 76.0374 443.53 76.0374 444.82 75.4874C446.11 74.9274 446.88 74.4174 448.01 73.1174C449.15 71.8074 449.5 70.6074 450.47 68.9574C451.45 67.3074 451.93 66.2374 452.89 64.8774C453.85 63.5074 454.34 62.7374 455.27 62.1374C456.21 61.5474 456.51 61.5774 457.58 61.8774C458.65 62.1874 459.32 62.7774 460.62 63.6774C461.91 64.5774 462.64 65.1274 464.04 66.3774C465.44 67.6374 466.15 68.5574 467.61 69.9474C469.08 71.3474 469.97 72.0774 471.38 73.3574C472.79 74.6474 473.38 75.3074 474.66 76.3574C475.94 77.4174 476.67 77.9874 477.78 78.6174C478.89 79.2374 479.42 79.2874 480.22 79.4874C481.02 79.6874 481.22 79.6774 481.77 79.6274C482.33 79.5774 482.61 79.6974 483 79.2374C483.39 78.7774 483.65 77.9174 483.72 77.3374C483.79 76.7574 483.54 76.7574 483.35 76.3474C483.16 75.9374 483.14 75.8074 482.76 75.2874C482.37 74.7774 482.14 74.5374 481.41 73.7774C480.68 73.0174 480.14 72.5674 479.11 71.4974C478.07 70.4374 477.48 69.7874 476.23 68.4474C474.97 67.0974 474.28 66.3174 472.81 64.7674C471.34 63.2174 470.64 62.1374 468.87 60.6974C467.1 59.2574 466.02 58.5174 463.95 57.5774C461.88 56.6374 460.7 56.2074 458.51 55.9974C456.31 55.7874 455.16 55.8474 452.98 56.5274C450.79 57.2074 449.55 57.9274 447.59 59.3874C445.62 60.8574 444.6 62.0274 443.15 63.8574C441.7 65.6874 441 66.8474 440.35 68.5574C439.69 70.2574 439.64 71.2274 439.86 72.3574C440.08 73.4974 440.87 74.0674 441.46 74.2474C442.04 74.4174 442.58 74.0474 442.77 73.2274C442.97 72.3974 442.66 71.8074 442.44 70.1174C442.23 68.4374 442.18 67.3374 441.7 64.8074C441.23 62.2874 440.75 60.7574 440.07 57.4874C439.39 54.2174 438.94 51.7674 438.29 48.4574C437.64 45.1474 437.66 43.3974 436.84 40.9574C436.02 38.5074 435.29 37.0674 434.18 36.2274C433.07 35.3874 432.03 35.5974 431.29 36.7574Z" fill="white" stroke="white"/>
<path d="M493.878 63.7774C492.958 64.5674 492.538 65.8174 492.318 67.5474C492.098 69.2874 492.418 70.4574 492.788 72.4374C493.148 74.4274 493.308 75.7974 494.138 77.4874C494.968 79.1774 495.738 80.1075 496.938 80.8875C498.148 81.6575 498.978 81.6774 500.158 81.3574C501.328 81.0374 502.118 80.4574 502.798 79.2874C503.478 78.1174 503.628 77.1074 503.538 75.4974C503.448 73.8874 502.938 72.9174 502.338 71.2374C501.748 69.5574 501.108 68.6174 500.558 67.1074C500.018 65.6074 499.848 64.7974 499.618 63.7074C499.398 62.6174 499.258 62.1974 499.438 61.6474C499.618 61.1074 499.768 61.0974 500.528 60.9874C501.288 60.8774 501.838 60.9674 503.248 61.0974C504.658 61.2274 505.568 61.3274 507.578 61.6274C509.578 61.9274 510.868 62.1574 513.268 62.5974C515.668 63.0374 517.108 63.3474 519.578 63.8174C522.048 64.2874 523.418 64.4474 525.608 64.9374C527.808 65.4174 528.788 65.7074 530.538 66.2274C532.278 66.7374 533.148 66.9274 534.318 67.5174C535.498 68.0974 535.708 68.3575 536.398 69.1375C537.078 69.9175 537.308 70.3174 537.748 71.4174C538.188 72.5074 538.138 73.2274 538.588 74.6274C539.038 76.0274 539.288 77.0774 540.008 78.4274C540.728 79.7674 541.238 80.5074 542.188 81.3574C543.138 82.1974 543.868 82.4574 544.758 82.6674C545.648 82.8674 546.168 82.6874 546.648 82.3574C547.138 82.0174 546.998 81.4575 547.158 81.0075C547.318 80.5575 547.318 80.6874 547.458 80.0974C547.598 79.5074 547.978 79.0274 547.868 78.0574C547.758 77.0874 547.408 76.5074 546.928 75.2374C546.448 73.9674 546.208 73.1274 545.458 71.7074C544.708 70.2874 544.198 69.4474 543.198 68.1474C542.198 66.8474 541.638 66.3574 540.458 65.2074C539.288 64.0674 538.868 63.4474 537.328 62.4174C535.788 61.3974 534.748 60.9374 532.758 60.0974C530.778 59.2674 529.718 58.9574 527.408 58.2274C525.108 57.5074 523.778 57.1374 521.248 56.4774C518.718 55.8074 517.318 55.4175 514.748 54.8875C512.188 54.3675 510.818 54.0474 508.418 53.8774C506.018 53.6974 504.838 53.6374 502.758 54.0074C500.678 54.3774 499.628 54.6974 498.028 55.7174C496.418 56.7274 495.698 57.5174 494.738 59.0674C493.768 60.6074 493.528 61.5574 493.178 63.4374C492.838 65.3174 492.908 66.4274 492.998 68.4674C493.098 70.4974 493.248 71.6774 493.638 73.6174C494.038 75.5474 494.138 76.7575 494.968 78.1375C495.798 79.5175 496.708 80.0674 497.788 80.5374C498.878 80.9974 499.518 80.8474 500.388 80.4574C501.258 80.0574 501.778 79.6674 502.118 78.5374C502.468 77.4174 502.398 76.4974 502.118 74.8374C501.838 73.1874 501.378 71.9374 500.728 70.2474C500.068 68.5574 499.618 67.7274 498.858 66.3974C498.098 65.0674 497.928 64.1374 496.938 63.6074C495.938 63.0874 494.808 62.9974 493.878 63.7774Z" fill="white" stroke="white"/>
<path d="M529.098 40.0277C528.508 40.5377 527.968 42.4478 527.958 43.1378C527.938 43.8378 528.358 44.6478 529.018 43.4878C529.678 42.3278 530.678 38.5277 531.278 37.3477C531.878 36.1677 532.088 36.9278 532.018 37.5778C531.948 38.2278 531.488 40.1077 530.908 40.5977C530.318 41.0877 529.688 39.5177 529.098 40.0277Z" fill="white" stroke="white"/>
<path d="M582.94 54.7569C582.41 53.8569 581.65 53.4168 580.26 53.0868C578.87 52.7568 577.87 52.7569 575.97 53.1069C574.06 53.4469 572.73 53.7969 570.74 54.7969C568.74 55.7969 567.54 56.5469 566 58.1269C564.46 59.6969 563.68 60.7469 563.02 62.6669C562.35 64.5769 562.13 65.7068 562.68 67.7168C563.22 69.7268 563.9 70.9469 565.73 72.7269C567.57 74.5069 569.08 75.3269 571.86 76.6369C574.65 77.9369 576.6 78.1968 579.67 79.2668C582.74 80.3368 584.5 81.0468 587.23 81.9668C589.96 82.8968 591.42 83.3468 593.31 83.8968C595.2 84.4368 595.95 84.5569 596.67 84.6869C597.39 84.8069 597.38 84.6069 596.92 84.5069C596.47 84.4069 595.84 84.1369 594.39 84.1969C592.93 84.2569 591.78 84.4469 589.64 84.8069C587.49 85.1769 586.09 85.6268 583.65 86.0268C581.21 86.4168 579.76 86.6169 577.44 86.7869C575.12 86.9469 573.85 87.0169 572.05 86.8569C570.25 86.6969 569.63 86.3869 568.44 85.9869C567.25 85.5869 566.98 85.2569 566.12 84.8569C565.26 84.4569 564.91 83.9069 564.13 83.9869C563.36 84.0569 562.51 84.4069 562.23 85.2369C561.95 86.0669 562.04 86.9468 562.74 88.1468C563.44 89.3568 564.1 90.2069 565.73 91.2469C567.35 92.2969 568.52 92.7969 570.87 93.3869C573.21 93.9869 574.72 94.0768 577.47 94.2168C580.21 94.3668 581.77 94.3469 584.6 94.1269C587.43 93.9069 589.1 93.8469 591.6 93.1169C594.11 92.3769 595.45 91.7769 597.14 90.4469C598.83 89.1169 599.52 88.1669 600.06 86.4769C600.6 84.7869 600.63 83.6968 599.84 82.0168C599.06 80.3368 598.15 79.4569 596.13 78.0969C594.1 76.7369 592.51 76.3268 589.73 75.2168C586.95 74.1068 585.12 73.7268 582.23 72.5268C579.35 71.3268 577.77 70.3569 575.3 69.2269C572.83 68.0869 571.51 67.5469 569.86 66.8769C568.21 66.1969 567.49 66.1168 567.04 65.8368C566.6 65.5568 566.94 65.8068 567.64 65.4668C568.35 65.1368 569.23 64.7569 570.56 64.1669C571.88 63.5769 572.7 63.1369 574.27 62.5069C575.84 61.8869 577.01 61.6968 578.4 61.0268C579.79 60.3568 580.32 59.8669 581.23 59.1769C582.13 58.4769 582.57 58.4369 582.91 57.5469C583.25 56.6669 583.47 55.6469 582.94 54.7569Z" fill="white" stroke="white"/>
<path d="M603.919 45.3576C603.159 46.0876 602.829 46.8276 602.669 48.6076C602.509 50.3776 602.559 51.7076 603.129 54.2476C603.689 56.7776 604.519 58.3776 605.499 61.2776C606.469 64.1776 607.029 65.8676 608.009 68.7476C608.989 71.6376 609.499 73.2676 610.399 75.6976C611.309 78.1376 611.669 79.1876 612.539 80.9176C613.409 82.6476 613.949 83.3876 614.749 84.3476C615.559 85.3076 615.889 85.5676 616.589 85.7276C617.279 85.8976 617.779 85.7376 618.219 85.1776C618.669 84.6176 618.799 84.1676 618.829 82.9176C618.859 81.6576 618.749 80.7776 618.369 78.8976C617.999 77.0276 617.649 75.9976 616.949 73.5476C616.259 71.0976 615.669 69.5476 614.879 66.6476C614.099 63.7576 613.759 62.0376 613.029 59.0876C612.299 56.1276 612.109 54.2476 611.229 51.8576C610.339 49.4676 609.549 48.5076 608.599 47.1176C607.649 45.7376 607.419 45.2976 606.479 44.9476C605.549 44.5976 604.679 44.6276 603.919 45.3576Z" fill="white" stroke="white"/>
<path d="M602.799 74.9274C603.669 75.3474 604.099 75.0474 605.609 74.8874C607.129 74.7274 608.009 74.7474 610.359 74.1474C612.709 73.5374 614.259 72.6674 617.359 71.8574C620.469 71.0374 622.479 70.6674 625.909 70.0774C629.339 69.4774 631.389 69.3074 634.519 68.8874C637.639 68.4574 639.209 68.3574 641.519 67.9574C643.819 67.5474 644.809 67.0974 646.039 66.8574C647.269 66.6174 647.409 66.6674 647.659 66.7574C647.919 66.8574 647.719 66.7874 647.289 67.3274C646.859 67.8574 646.009 68.2574 645.509 69.4374C645.019 70.6074 644.859 71.6374 644.829 73.1874C644.799 74.7374 644.909 75.5874 645.359 77.1774C645.819 78.7674 646.049 79.7374 647.109 81.1474C648.169 82.5474 648.969 83.4074 650.659 84.2074C652.349 85.0174 653.549 85.2074 655.559 85.1674C657.569 85.1274 658.689 84.7274 660.709 84.0074C662.729 83.2974 663.699 82.8274 665.669 81.6074C667.629 80.3874 668.889 79.6374 670.539 77.9174C672.179 76.1974 672.959 75.0774 673.889 73.0074C674.809 70.9474 675.179 69.7274 675.159 67.5774C675.149 65.4274 674.889 64.1274 673.809 62.2774C672.729 60.4174 671.739 59.4274 669.769 58.2974C667.789 57.1674 666.369 56.7974 663.939 56.6174C661.499 56.4274 659.979 56.6574 657.589 57.3774C655.209 58.0874 653.939 58.7774 652.029 60.1874C650.119 61.5874 649.189 62.5274 648.059 64.4074C646.939 66.2874 646.509 67.5474 646.409 69.5974C646.309 71.6374 646.729 72.9274 647.549 74.6274C648.369 76.3274 649.169 77.2874 650.529 78.0874C651.889 78.8874 653.229 79.0474 654.339 78.6374C655.449 78.2374 655.979 77.1374 656.079 76.0574C656.189 74.9674 655.449 74.1474 654.859 73.2174C654.269 72.2874 653.669 72.0874 653.119 71.4074C652.579 70.7274 652.109 70.4974 652.119 69.8274C652.129 69.1574 652.409 68.8074 653.169 68.0574C653.919 67.3074 654.599 66.7774 655.899 66.0874C657.189 65.4074 658.089 65.0174 659.649 64.6074C661.219 64.1974 662.259 64.1174 663.729 64.0374C665.199 63.9674 665.999 63.9674 667.019 64.2274C668.029 64.4874 668.389 64.7074 668.819 65.3274C669.239 65.9374 669.319 66.3774 669.159 67.2874C668.999 68.2074 668.739 68.8274 668.009 69.8874C667.269 70.9474 666.749 71.5474 665.479 72.5774C664.219 73.6174 663.179 74.1774 661.689 75.0674C660.189 75.9474 659.389 76.4174 658.019 77.0074C656.649 77.5874 655.889 77.7374 654.849 77.9974C653.819 78.2674 653.429 78.3574 652.839 78.3174C652.249 78.2774 652.079 78.1674 651.889 77.7874C651.699 77.4174 651.689 77.1974 651.889 76.4474C652.079 75.6874 652.599 75.1974 652.849 74.0074C653.099 72.8274 653.259 71.9473 653.139 70.5173C653.009 69.0773 652.849 68.2074 652.229 66.8474C651.619 65.4774 651.239 64.7174 650.069 63.6874C648.889 62.6674 648.199 62.1374 646.339 61.7174C644.479 61.2974 643.309 61.4174 640.769 61.5774C638.229 61.7374 636.809 62.0974 633.649 62.5374C630.479 62.9774 628.509 63.3173 624.959 63.7673C621.409 64.2173 619.319 64.2674 615.909 64.7874C612.499 65.3174 610.489 65.4274 607.899 66.3974C605.309 67.3574 604.279 68.3374 602.949 69.6074C601.629 70.8874 601.299 71.7073 601.269 72.7673C601.239 73.8373 601.929 74.5074 602.799 74.9274Z" fill="white" stroke="white"/>
<path d="M702.489 50.3376C703.449 49.4276 704.039 48.0776 704.199 46.0876C704.369 44.1076 704.259 42.3876 703.319 40.4076C702.389 38.4276 701.369 37.2076 699.539 36.1976C697.719 35.1876 696.309 34.8376 694.209 35.3476C692.099 35.8576 690.659 36.5776 689.009 38.7476C687.349 40.9176 686.679 42.7376 685.919 46.1776C685.159 49.6076 685.169 51.8576 685.189 55.9176C685.199 59.9876 685.419 62.2176 685.989 66.4776C686.559 70.7476 687.069 73.2276 688.059 77.2476C689.049 81.2776 689.659 83.3176 690.949 86.5976C692.239 89.8776 693.159 91.3176 694.509 93.6576C695.859 95.9976 696.539 96.9176 697.699 98.2876C698.859 99.6576 699.469 99.8876 700.299 100.488C701.129 101.088 701.249 101.268 701.849 101.298C702.449 101.328 702.969 101.178 703.289 100.628C703.619 100.078 703.679 99.5976 703.499 98.5376C703.309 97.4776 703.089 96.9176 702.359 95.3176C701.639 93.7276 701.119 92.7576 699.859 90.5676C698.609 88.3876 697.439 87.3276 696.079 84.4076C694.719 81.4876 694.029 79.6876 693.049 75.9776C692.069 72.2676 691.569 69.8176 691.159 65.8576C690.759 61.9076 690.669 59.7576 691.029 56.1776C691.379 52.5976 692.119 50.7275 692.929 47.9575C693.749 45.1975 694.479 44.0276 695.099 42.3476C695.719 40.6676 695.859 40.0276 696.019 39.5576C696.189 39.0876 695.969 39.3276 695.909 39.9976C695.859 40.6776 695.539 41.4876 695.749 42.9376C695.959 44.3876 696.239 45.7076 696.969 47.2476C697.699 48.7876 698.299 50.0176 699.409 50.6276C700.509 51.2476 701.529 51.2476 702.489 50.3376Z" fill="white" stroke="white"/>
<path d="M679.708 82.847C680.498 83.447 680.748 83.907 682.978 83.757C685.198 83.607 686.988 83.037 690.818 82.097C694.658 81.157 697.379 80.177 702.149 79.077C706.919 77.977 709.968 77.447 714.668 76.587C719.358 75.727 721.938 75.357 725.618 74.787C729.298 74.207 730.808 74.257 733.068 73.707C735.338 73.167 735.888 72.637 736.958 72.077C738.028 71.507 738.149 71.367 738.399 70.887C738.659 70.397 738.618 70.057 738.238 69.657C737.868 69.257 737.729 69.137 736.529 68.877C735.329 68.617 734.598 68.187 732.238 68.367C729.878 68.547 728.418 69.057 724.738 69.777C721.058 70.497 718.548 71.117 713.828 71.967C709.108 72.817 706.019 73.217 701.149 74.027C696.279 74.837 693.388 75.217 689.458 76.017C685.528 76.827 683.599 77.087 681.519 78.037C679.439 78.987 679.418 79.787 679.048 80.757C678.688 81.717 678.928 82.247 679.708 82.847Z" fill="white" stroke="white"/>
<mask id="path-15-outside-1_73_207" maskUnits="userSpaceOnUse" x="1.51367" y="33.2612" width="55" height="56" fill="black">
<rect fill="white" x="1.51367" y="33.2612" width="55" height="56"/>
<path d="M50.2777 88.0212C48.8697 88.0212 46.7137 87.4932 43.8097 86.4372C43.2817 86.2612 42.6657 86.0852 41.9617 85.9092C41.3457 85.6452 40.5537 85.3812 39.5857 85.1172C32.3697 83.0052 24.4937 80.1892 15.9577 76.6692C7.42167 73.1492 3.15367 69.8052 3.15367 66.6372C3.15367 64.6132 3.76967 62.8972 5.00167 61.4892C12.8337 54.3612 20.1377 48.9492 26.9137 45.2532C33.6897 41.4692 41.6097 37.9052 50.6737 34.5612C51.9937 34.1212 53.0937 34.5172 53.9737 35.7492C54.8537 36.9812 55.3377 38.1252 55.4257 39.1812C53.1377 40.7652 48.7377 43.1852 42.2257 46.4412C35.6257 49.6092 29.9937 52.6452 25.3297 55.5492C20.7537 58.3652 16.7497 61.6652 13.3177 65.4492C20.1817 68.9692 26.7377 71.9172 32.9857 74.2932C39.2337 76.6692 43.8097 77.9892 46.7137 78.2532C48.8257 78.4292 50.4977 79.0452 51.7297 80.1012C53.0497 81.0692 53.7097 82.3892 53.7097 84.0612C53.7097 85.3812 53.4457 86.3932 52.9177 87.0972C52.3897 87.7132 51.5097 88.0212 50.2777 88.0212Z"/>
</mask>
<path d="M50.2777 88.0212C48.8697 88.0212 46.7137 87.4932 43.8097 86.4372C43.2817 86.2612 42.6657 86.0852 41.9617 85.9092C41.3457 85.6452 40.5537 85.3812 39.5857 85.1172C32.3697 83.0052 24.4937 80.1892 15.9577 76.6692C7.42167 73.1492 3.15367 69.8052 3.15367 66.6372C3.15367 64.6132 3.76967 62.8972 5.00167 61.4892C12.8337 54.3612 20.1377 48.9492 26.9137 45.2532C33.6897 41.4692 41.6097 37.9052 50.6737 34.5612C51.9937 34.1212 53.0937 34.5172 53.9737 35.7492C54.8537 36.9812 55.3377 38.1252 55.4257 39.1812C53.1377 40.7652 48.7377 43.1852 42.2257 46.4412C35.6257 49.6092 29.9937 52.6452 25.3297 55.5492C20.7537 58.3652 16.7497 61.6652 13.3177 65.4492C20.1817 68.9692 26.7377 71.9172 32.9857 74.2932C39.2337 76.6692 43.8097 77.9892 46.7137 78.2532C48.8257 78.4292 50.4977 79.0452 51.7297 80.1012C53.0497 81.0692 53.7097 82.3892 53.7097 84.0612C53.7097 85.3812 53.4457 86.3932 52.9177 87.0972C52.3897 87.7132 51.5097 88.0212 50.2777 88.0212Z" fill="white"/>
<path d="M43.8097 86.4372L44.1514 85.4974L44.1387 85.4928L44.1259 85.4885L43.8097 86.4372ZM41.9617 85.9092L41.5678 86.8284L41.6414 86.8599L41.7191 86.8794L41.9617 85.9092ZM39.5857 85.1172L39.3048 86.077L39.3136 86.0796L39.3226 86.082L39.5857 85.1172ZM15.9577 76.6692L15.5764 77.5937L15.5764 77.5937L15.9577 76.6692ZM5.00167 61.4892L4.32859 60.7497L4.28654 60.7879L4.2491 60.8307L5.00167 61.4892ZM26.9137 45.2532L27.3925 46.1312L27.4012 46.1263L26.9137 45.2532ZM50.6737 34.5612L50.3574 33.6125L50.3424 33.6176L50.3275 33.623L50.6737 34.5612ZM53.9737 35.7492L54.7874 35.168L54.7874 35.168L53.9737 35.7492ZM55.4257 39.1812L55.9949 40.0034L56.4702 39.6743L56.4222 39.0982L55.4257 39.1812ZM42.2257 46.4412L42.6584 47.3428L42.6657 47.3393L42.6729 47.3357L42.2257 46.4412ZM25.3297 55.5492L25.8538 56.4009L25.8582 56.3981L25.3297 55.5492ZM13.3177 65.4492L12.577 64.7774L11.7005 65.7437L12.8614 66.339L13.3177 65.4492ZM32.9857 74.2932L33.3411 73.3585L33.3411 73.3585L32.9857 74.2932ZM46.7137 78.2532L46.6231 79.2492L46.6306 79.2498L46.7137 78.2532ZM51.7297 80.1012L51.0789 80.8605L51.1077 80.8852L51.1383 80.9076L51.7297 80.1012ZM52.9177 87.0972L53.6769 87.748L53.6981 87.7233L53.7177 87.6972L52.9177 87.0972ZM50.2777 88.0212V87.0212C49.0586 87.0212 47.0451 86.5497 44.1514 85.4974L43.8097 86.4372L43.4679 87.377C46.3822 88.4368 48.6807 89.0212 50.2777 89.0212V88.0212ZM43.8097 86.4372L44.1259 85.4885C43.5676 85.3025 42.9261 85.1195 42.2042 84.9391L41.9617 85.9092L41.7191 86.8794C42.4053 87.0509 42.9957 87.22 43.4934 87.3859L43.8097 86.4372ZM41.9617 85.9092L42.3556 84.9901C41.6818 84.7013 40.8418 84.4233 39.8488 84.1525L39.5857 85.1172L39.3226 86.082C40.2655 86.3392 41.0095 86.5891 41.5678 86.8284L41.9617 85.9092ZM39.5857 85.1172L39.8666 84.1575C32.6912 82.0574 24.8492 79.2541 16.3389 75.7447L15.9577 76.6692L15.5764 77.5937C24.1382 81.1243 32.0481 83.9531 39.3048 86.077L39.5857 85.1172ZM15.9577 76.6692L16.3389 75.7447C12.105 73.9988 9.00059 72.3239 6.97142 70.7341C4.91208 69.1206 4.15367 67.7505 4.15367 66.6372H3.15367H2.15367C2.15367 68.6919 3.52926 70.5779 5.73793 72.3084C7.97676 74.0625 11.2743 75.8196 15.5764 77.5937L15.9577 76.6692ZM3.15367 66.6372H4.15367C4.15367 64.834 4.69533 63.3579 5.75425 62.1477L5.00167 61.4892L4.2491 60.8307C2.84401 62.4365 2.15367 64.3925 2.15367 66.6372H3.15367ZM5.00167 61.4892L5.67476 62.2288C13.4679 55.1361 20.707 49.7778 27.3925 46.1311L26.9137 45.2532L26.4348 44.3753C19.5683 48.1207 12.1994 53.5863 4.32859 60.7497L5.00167 61.4892ZM26.9137 45.2532L27.4012 46.1263C34.1225 42.3729 41.9933 38.8296 51.0198 35.4994L50.6737 34.5612L50.3275 33.623C41.226 36.9809 33.2569 40.5655 26.4261 44.3801L26.9137 45.2532ZM50.6737 34.5612L50.9899 35.5099C51.4789 35.3469 51.8494 35.3609 52.15 35.4691C52.4595 35.5805 52.8034 35.8313 53.1599 36.3305L53.9737 35.7492L54.7874 35.168C54.2639 34.4351 53.6179 33.8719 52.8274 33.5873C52.0279 33.2995 51.1884 33.3355 50.3574 33.6125L50.6737 34.5612ZM53.9737 35.7492L53.1599 36.3305C53.9777 37.4753 54.3612 38.4487 54.4291 39.2643L55.4257 39.1812L56.4222 39.0982C56.3142 37.8017 55.7297 36.4871 54.7874 35.168L53.9737 35.7492ZM55.4257 39.1812L54.8565 38.359C52.6345 39.8973 48.2946 42.2887 41.7785 45.5468L42.2257 46.4412L42.6729 47.3357C49.1808 44.0817 53.6409 41.6331 55.9949 40.0034L55.4257 39.1812ZM42.2257 46.4412L41.7929 45.5397C35.1701 48.7187 29.5043 51.7719 24.8011 54.7003L25.3297 55.5492L25.8582 56.3981C30.4831 53.5185 36.0812 50.4998 42.6584 47.3428L42.2257 46.4412ZM25.3297 55.5492L24.8056 54.6976C20.1534 57.5604 16.0755 60.92 12.577 64.7774L13.3177 65.4492L14.0584 66.121C17.4238 62.4104 21.3539 59.17 25.8538 56.4009L25.3297 55.5492ZM13.3177 65.4492L12.8614 66.339C19.7533 69.8734 26.343 72.837 32.6302 75.2279L32.9857 74.2932L33.3411 73.3585C27.1323 70.9974 20.6101 68.0651 13.774 64.5594L13.3177 65.4492ZM32.9857 74.2932L32.6302 75.2279C38.8824 77.6055 43.5705 78.9716 46.6231 79.2491L46.7137 78.2532L46.8042 77.2573C44.0488 77.0068 39.5849 75.7329 33.3411 73.3585L32.9857 74.2932ZM46.7137 78.2532L46.6306 79.2498C48.597 79.4136 50.0491 79.9778 51.0789 80.8605L51.7297 80.1012L52.3805 79.342C50.9463 78.1127 49.0544 77.4448 46.7967 77.2567L46.7137 78.2532ZM51.7297 80.1012L51.1383 80.9076C52.195 81.6825 52.7097 82.6997 52.7097 84.0612H53.7097H54.7097C54.7097 82.0788 53.9044 80.4559 52.321 79.2948L51.7297 80.1012ZM53.7097 84.0612H52.7097C52.7097 85.2677 52.4654 86.0336 52.1177 86.4972L52.9177 87.0972L53.7177 87.6972C54.426 86.7528 54.7097 85.4948 54.7097 84.0612H53.7097ZM52.9177 87.0972L52.1584 86.4464C51.9012 86.7465 51.3703 87.0212 50.2777 87.0212V88.0212V89.0212C51.649 89.0212 52.8782 88.6799 53.6769 87.748L52.9177 87.0972Z" fill="white" mask="url(#path-15-outside-1_73_207)"/>
<mask id="path-17-outside-2_73_207" maskUnits="userSpaceOnUse" x="741.564" y="-0.876465" width="95" height="102" fill="black">
<rect fill="white" x="741.564" y="-0.876465" width="95" height="102"/>
<path d="M746.58 100.124C745.524 100.124 744.644 99.6835 743.94 98.8035C743.236 97.8355 742.884 96.8235 742.884 95.7675C742.884 93.8315 743.676 90.9275 745.26 87.0555C746.932 83.0955 748.56 79.5755 750.144 76.4955L771.396 18.4155C771.572 17.0075 771.748 15.9955 771.924 15.3795C772.54 11.4195 773.2 8.20753 773.904 5.74353C774.696 3.27953 775.884 1.73953 777.468 1.12353C778.7 1.38753 779.448 1.95953 779.712 2.83953C779.976 3.63153 780.064 4.46753 779.976 5.34753C779.976 6.13953 779.976 6.71153 779.976 7.06353C779.976 10.4955 777.512 20.0435 772.584 35.7075C767.744 51.3715 762.64 66.0235 757.272 79.6635C751.904 93.3035 748.34 100.124 746.58 100.124ZM787.84 92.3355C786.52 92.3355 785.64 91.9395 785.2 91.1475C784.848 90.3555 784.672 89.2555 784.672 87.8475C785.024 86.7915 786.344 85.5595 788.632 84.1515C790.92 82.7435 794.396 80.8955 799.06 78.6075C805.572 75.4395 811.028 72.4915 815.428 69.7635C819.916 67.0355 823.172 64.1755 825.196 61.1835C815.34 57.8395 806.76 54.3195 799.456 50.6235C792.24 46.9275 788.236 43.3635 787.444 39.9315C787.356 39.6675 787.312 39.2715 787.312 38.7435C787.312 37.8635 787.532 37.1595 787.972 36.6315C788.412 36.1035 789.072 35.8395 789.952 35.8395C791.448 35.8395 792.68 36.1475 793.648 36.7635C794.704 37.3795 795.848 38.3035 797.08 39.5355C799.104 41.3835 800.82 42.6155 802.228 43.2315C803.9 43.9355 806.408 45.1675 809.752 46.9275C814.504 49.3915 818.596 51.3275 822.028 52.7355C825.46 54.1435 828.804 55.0675 832.06 55.5075C833.292 55.9475 834.04 56.5635 834.304 57.3555C834.656 58.0595 834.788 58.9835 834.7 60.1275C834.524 63.4715 831.268 67.6955 824.932 72.7995C818.684 77.8155 811.688 82.3475 803.944 86.3955C796.288 90.3555 790.92 92.3355 787.84 92.3355Z"/>
</mask>
<path d="M746.58 100.124C745.524 100.124 744.644 99.6835 743.94 98.8035C743.236 97.8355 742.884 96.8235 742.884 95.7675C742.884 93.8315 743.676 90.9275 745.26 87.0555C746.932 83.0955 748.56 79.5755 750.144 76.4955L771.396 18.4155C771.572 17.0075 771.748 15.9955 771.924 15.3795C772.54 11.4195 773.2 8.20753 773.904 5.74353C774.696 3.27953 775.884 1.73953 777.468 1.12353C778.7 1.38753 779.448 1.95953 779.712 2.83953C779.976 3.63153 780.064 4.46753 779.976 5.34753C779.976 6.13953 779.976 6.71153 779.976 7.06353C779.976 10.4955 777.512 20.0435 772.584 35.7075C767.744 51.3715 762.64 66.0235 757.272 79.6635C751.904 93.3035 748.34 100.124 746.58 100.124ZM787.84 92.3355C786.52 92.3355 785.64 91.9395 785.2 91.1475C784.848 90.3555 784.672 89.2555 784.672 87.8475C785.024 86.7915 786.344 85.5595 788.632 84.1515C790.92 82.7435 794.396 80.8955 799.06 78.6075C805.572 75.4395 811.028 72.4915 815.428 69.7635C819.916 67.0355 823.172 64.1755 825.196 61.1835C815.34 57.8395 806.76 54.3195 799.456 50.6235C792.24 46.9275 788.236 43.3635 787.444 39.9315C787.356 39.6675 787.312 39.2715 787.312 38.7435C787.312 37.8635 787.532 37.1595 787.972 36.6315C788.412 36.1035 789.072 35.8395 789.952 35.8395C791.448 35.8395 792.68 36.1475 793.648 36.7635C794.704 37.3795 795.848 38.3035 797.08 39.5355C799.104 41.3835 800.82 42.6155 802.228 43.2315C803.9 43.9355 806.408 45.1675 809.752 46.9275C814.504 49.3915 818.596 51.3275 822.028 52.7355C825.46 54.1435 828.804 55.0675 832.06 55.5075C833.292 55.9475 834.04 56.5635 834.304 57.3555C834.656 58.0595 834.788 58.9835 834.7 60.1275C834.524 63.4715 831.268 67.6955 824.932 72.7995C818.684 77.8155 811.688 82.3475 803.944 86.3955C796.288 90.3555 790.92 92.3355 787.84 92.3355Z" fill="white"/>
<path d="M743.94 98.8035L743.132 99.3917L743.145 99.4103L743.16 99.4282L743.94 98.8035ZM745.26 87.0555L744.339 86.6665L744.335 86.6769L745.26 87.0555ZM750.144 76.4955L751.034 76.9529L751.062 76.8976L751.084 76.8392L750.144 76.4955ZM771.396 18.4155L772.336 18.7592L772.375 18.6524L772.389 18.5396L771.396 18.4155ZM771.924 15.3795L772.886 15.6543L772.903 15.5946L772.913 15.5332L771.924 15.3795ZM773.904 5.74353L772.952 5.43752L772.947 5.45309L772.943 5.46881L773.904 5.74353ZM777.468 1.12353L777.678 0.145725L777.385 0.0829718L777.106 0.191523L777.468 1.12353ZM779.712 2.83953L778.755 3.12688L778.759 3.14139L778.764 3.15576L779.712 2.83953ZM779.976 5.34753L778.981 5.24802L778.976 5.29765V5.34753H779.976ZM772.584 35.7075L771.631 35.4074L771.629 35.4123L772.584 35.7075ZM757.272 79.6635L756.342 79.2973L756.342 79.2973L757.272 79.6635ZM746.58 100.124V99.1235C745.851 99.1235 745.25 98.84 744.721 98.1788L743.94 98.8035L743.16 99.4282C744.039 100.527 745.198 101.124 746.58 101.124V100.124ZM743.94 98.8035L744.749 98.2154C744.152 97.3945 743.884 96.5846 743.884 95.7675H742.884H741.884C741.884 97.0625 742.321 98.2766 743.132 99.3917L743.94 98.8035ZM742.884 95.7675H743.884C743.884 94.0413 744.607 91.2932 746.186 87.4342L745.26 87.0555L744.335 86.6769C742.746 90.5619 741.884 93.6218 741.884 95.7675H742.884ZM745.26 87.0555L746.182 87.4445C747.846 83.5024 749.464 80.0059 751.034 76.9529L750.144 76.4955L749.255 76.0382C747.657 79.1451 746.019 82.6886 744.339 86.6666L745.26 87.0555ZM750.144 76.4955L751.084 76.8392L772.336 18.7592L771.396 18.4155L770.457 18.0719L749.205 76.1519L750.144 76.4955ZM771.396 18.4155L772.389 18.5396C772.564 17.1365 772.733 16.1905 772.886 15.6543L771.924 15.3795L770.963 15.1048C770.764 15.8006 770.581 16.8785 770.404 18.2915L771.396 18.4155ZM771.924 15.3795L772.913 15.5332C773.525 11.5941 774.178 8.4269 774.866 6.01825L773.904 5.74353L772.943 5.46881C772.223 7.98816 771.556 11.245 770.936 15.2258L771.924 15.3795ZM773.904 5.74353L774.856 6.04954C775.605 3.72 776.649 2.5152 777.831 2.05553L777.468 1.12353L777.106 0.191523C775.12 0.963861 773.788 2.83906 772.952 5.43752L773.904 5.74353ZM777.468 1.12353L777.259 2.10133C778.285 2.32117 778.633 2.72245 778.755 3.12688L779.712 2.83953L780.67 2.55218C780.264 1.1966 779.116 0.453884 777.678 0.145725L777.468 1.12353ZM779.712 2.83953L778.764 3.15576C778.981 3.80614 779.056 4.49984 778.981 5.24802L779.976 5.34753L780.971 5.44703C781.073 4.43522 780.972 3.45692 780.661 2.5233L779.712 2.83953ZM779.976 5.34753H778.976C778.976 5.34907 778.976 5.35062 778.976 5.35217C778.976 5.35371 778.976 5.35526 778.976 5.3568C778.976 5.35834 778.976 5.35989 778.976 5.36143C778.976 5.36297 778.976 5.36451 778.976 5.36605C778.976 5.36759 778.976 5.36913 778.976 5.37067C778.976 5.37221 778.976 5.37374 778.976 5.37528C778.976 5.37682 778.976 5.37835 778.976 5.37989C778.976 5.38142 778.976 5.38296 778.976 5.38449C778.976 5.38603 778.976 5.38756 778.976 5.38909C778.976 5.39062 778.976 5.39215 778.976 5.39368C778.976 5.39521 778.976 5.39674 778.976 5.39827C778.976 5.3998 778.976 5.40133 778.976 5.40285C778.976 5.40438 778.976 5.40591 778.976 5.40743C778.976 5.40896 778.976 5.41048 778.976 5.412C778.976 5.41353 778.976 5.41505 778.976 5.41657C778.976 5.41809 778.976 5.41961 778.976 5.42113C778.976 5.42265 778.976 5.42417 778.976 5.42569C778.976 5.42721 778.976 5.42873 778.976 5.43024C778.976 5.43176 778.976 5.43328 778.976 5.43479C778.976 5.43631 778.976 5.43782 778.976 5.43933C778.976 5.44085 778.976 5.44236 778.976 5.44387C778.976 5.44538 778.976 5.44689 778.976 5.4484C778.976 5.44991 778.976 5.45142 778.976 5.45293C778.976 5.45444 778.976 5.45595 778.976 5.45745C778.976 5.45896 778.976 5.46047 778.976 5.46197C778.976 5.46348 778.976 5.46498 778.976 5.46648C778.976 5.46799 778.976 5.46949 778.976 5.47099C778.976 5.47249 778.976 5.47399 778.976 5.47549C778.976 5.47699 778.976 5.47849 778.976 5.47999C778.976 5.48149 778.976 5.48298 778.976 5.48448C778.976 5.48598 778.976 5.48747 778.976 5.48897C778.976 5.49046 778.976 5.49196 778.976 5.49345C778.976 5.49494 778.976 5.49644 778.976 5.49793C778.976 5.49942 778.976 5.50091 778.976 5.5024C778.976 5.50389 778.976 5.50538 778.976 5.50687C778.976 5.50835 778.976 5.50984 778.976 5.51133C778.976 5.51281 778.976 5.5143 778.976 5.51578C778.976 5.51727 778.976 5.51875 778.976 5.52024C778.976 5.52172 778.976 5.5232 778.976 5.52468C778.976 5.52616 778.976 5.52764 778.976 5.52912C778.976 5.5306 778.976 5.53208 778.976 5.53356C778.976 5.53504 778.976 5.53652 778.976 5.53799C778.976 5.53947 778.976 5.54095 778.976 5.54242C778.976 5.54389 778.976 5.54537 778.976 5.54684C778.976 5.54831 778.976 5.54979 778.976 5.55126C778.976 5.55273 778.976 5.5542 778.976 5.55567C778.976 5.55714 778.976 5.55861 778.976 5.56008C778.976 5.56154 778.976 5.56301 778.976 5.56448C778.976 5.56594 778.976 5.56741 778.976 5.56887C778.976 5.57034 778.976 5.5718 778.976 5.57327C778.976 5.57473 778.976 5.57619 778.976 5.57765C778.976 5.57911 778.976 5.58057 778.976 5.58203C778.976 5.58349 778.976 5.58495 778.976 5.58641C778.976 5.58787 778.976 5.58932 778.976 5.59078C778.976 5.59224 778.976 5.59369 778.976 5.59515C778.976 5.5966 778.976 5.59805 778.976 5.59951C778.976 5.60096 778.976 5.60241 778.976 5.60386C778.976 5.60531 778.976 5.60677 778.976 5.60821C778.976 5.60966 778.976 5.61111 778.976 5.61256C778.976 5.61401 778.976 5.61546 778.976 5.6169C778.976 5.61835 778.976 5.61979 778.976 5.62124C778.976 5.62268 778.976 5.62413 778.976 5.62557C778.976 5.62701 778.976 5.62845 778.976 5.62989C778.976 5.63134 778.976 5.63278 778.976 5.63422C778.976 5.63566 778.976 5.63709 778.976 5.63853C778.976 5.63997 778.976 5.64141 778.976 5.64284C778.976 5.64428 778.976 5.64571 778.976 5.64715C778.976 5.64858 778.976 5.65002 778.976 5.65145C778.976 5.65288 778.976 5.65431 778.976 5.65574C778.976 5.65718 778.976 5.65861 778.976 5.66004C778.976 5.66146 778.976 5.66289 778.976 5.66432C778.976 5.66575 778.976 5.66718 778.976 5.6686C778.976 5.67003 778.976 5.67145 778.976 5.67288C778.976 5.6743 778.976 5.67572 778.976 5.67715C778.976 5.67857 778.976 5.67999 778.976 5.68141C778.976 5.68283 778.976 5.68425 778.976 5.68567C778.976 5.68709 778.976 5.68851 778.976 5.68993C778.976 5.69135 778.976 5.69276 778.976 5.69418C778.976 5.6956 778.976 5.69701 778.976 5.69842C778.976 5.69984 778.976 5.70125 778.976 5.70266C778.976 5.70408 778.976 5.70549 778.976 5.7069C778.976 5.70831 778.976 5.70972 778.976 5.71113C778.976 5.71254 778.976 5.71395 778.976 5.71536C778.976 5.71676 778.976 5.71817 778.976 5.71958C778.976 5.72098 778.976 5.72239 778.976 5.72379C778.976 5.7252 778.976 5.7266 778.976 5.728C778.976 5.7294 778.976 5.73081 778.976 5.73221C778.976 5.73361 778.976 5.73501 778.976 5.73641C778.976 5.73781 778.976 5.7392 778.976 5.7406C778.976 5.742 778.976 5.7434 778.976 5.74479C778.976 5.74619 778.976 5.74758 778.976 5.74898C778.976 5.75037 778.976 5.75176 778.976 5.75316C778.976 5.75455 778.976 5.75594 778.976 5.75733C778.976 5.75872 778.976 5.76011 778.976 5.7615C778.976 5.76289 778.976 5.76428 778.976 5.76567C778.976 5.76705 778.976 5.76844 778.976 5.76983C778.976 5.77121 778.976 5.7726 778.976 5.77398C778.976 5.77536 778.976 5.77675 778.976 5.77813C778.976 5.77951 778.976 5.78089 778.976 5.78227C778.976 5.78365 778.976 5.78503 778.976 5.78641C778.976 5.78779 778.976 5.78917 778.976 5.79055C778.976 5.79193 778.976 5.7933 778.976 5.79468C778.976 5.79605 778.976 5.79743 778.976 5.7988C778.976 5.80018 778.976 5.80155 778.976 5.80292C778.976 5.80429 778.976 5.80567 778.976 5.80704C778.976 5.80841 778.976 5.80978 778.976 5.81115C778.976 5.81251 778.976 5.81388 778.976 5.81525C778.976 5.81662 778.976 5.81798 778.976 5.81935C778.976 5.82071 778.976 5.82208 778.976 5.82344C778.976 5.82481 778.976 5.82617 778.976 5.82753C778.976 5.8289 778.976 5.83026 778.976 5.83162C778.976 5.83298 778.976 5.83434 778.976 5.8357C778.976 5.83706 778.976 5.83841 778.976 5.83977C778.976 5.84113 778.976 5.84248 778.976 5.84384C778.976 5.84519 778.976 5.84655 778.976 5.8479C778.976 5.84926 778.976 5.85061 778.976 5.85196C778.976 5.85331 778.976 5.85467 778.976 5.85602C778.976 5.85737 778.976 5.85872 778.976 5.86007C778.976 5.86141 778.976 5.86276 778.976 5.86411C778.976 5.86546 778.976 5.8668 778.976 5.86815C778.976 5.86949 778.976 5.87084 778.976 5.87218C778.976 5.87353 778.976 5.87487 778.976 5.87621C778.976 5.87755 778.976 5.87889 778.976 5.88023C778.976 5.88158 778.976 5.88291 778.976 5.88425C778.976 5.88559 778.976 5.88693 778.976 5.88827C778.976 5.8896 778.976 5.89094 778.976 5.89228C778.976 5.89361 778.976 5.89495 778.976 5.89628C778.976 5.89761 778.976 5.89895 778.976 5.90028C778.976 5.90161 778.976 5.90294 778.976 5.90427C778.976 5.9056 778.976 5.90693 778.976 5.90826C778.976 5.90959 778.976 5.91092 778.976 5.91224C778.976 5.91357 778.976 5.9149 778.976 5.91622C778.976 5.91755 778.976 5.91887 778.976 5.9202C778.976 5.92152 778.976 5.92284 778.976 5.92416C778.976 5.92549 778.976 5.92681 778.976 5.92813C778.976 5.92945 778.976 5.93077 778.976 5.93209C778.976 5.9334 778.976 5.93472 778.976 5.93604C778.976 5.93736 778.976 5.93867 778.976 5.93999C778.976 5.9413 778.976 5.94262 778.976 5.94393C778.976 5.94524 778.976 5.94656 778.976 5.94787C778.976 5.94918 778.976 5.95049 778.976 5.9518C778.976 5.95311 778.976 5.95442 778.976 5.95573C778.976 5.95704 778.976 5.95835 778.976 5.95965C778.976 5.96096 778.976 5.96227 778.976 5.96357C778.976 5.96488 778.976 5.96618 778.976 5.96748C778.976 5.96879 778.976 5.97009 778.976 5.97139C778.976 5.97269 778.976 5.974 778.976 5.9753C778.976 5.9766 778.976 5.97789 778.976 5.97919C778.976 5.98049 778.976 5.98179 778.976 5.98309C778.976 5.98438 778.976 5.98568 778.976 5.98697C778.976 5.98827 778.976 5.98956 778.976 5.99086C778.976 5.99215 778.976 5.99344 778.976 5.99473C778.976 5.99603 778.976 5.99732 778.976 5.99861C778.976 5.9999 778.976 6.00119 778.976 6.00247C778.976 6.00376 778.976 6.00505 778.976 6.00634C778.976 6.00762 778.976 6.00891 778.976 6.0102C778.976 6.01148 778.976 6.01276 778.976 6.01405C778.976 6.01533 778.976 6.01661 778.976 6.0179C778.976 6.01918 778.976 6.02046 778.976 6.02174C778.976 6.02302 778.976 6.0243 778.976 6.02558C778.976 6.02685 778.976 6.02813 778.976 6.02941C778.976 6.03068 778.976 6.03196 778.976 6.03324C778.976 6.03451 778.976 6.03578 778.976 6.03706C778.976 6.03833 778.976 6.0396 778.976 6.04087C778.976 6.04215 778.976 6.04342 778.976 6.04469C778.976 6.04596 778.976 6.04723 778.976 6.04849C778.976 6.04976 778.976 6.05103 778.976 6.0523C778.976 6.05356 778.976 6.05483 778.976 6.05609C778.976 6.05736 778.976 6.05862 778.976 6.05989C778.976 6.06115 778.976 6.06241 778.976 6.06367C778.976 6.06493 778.976 6.0662 778.976 6.06746C778.976 6.06872 778.976 6.06997 778.976 6.07123C778.976 6.07249 778.976 6.07375 778.976 6.075C778.976 6.07626 778.976 6.07752 778.976 6.07877C778.976 6.08003 778.976 6.08128 778.976 6.08253C778.976 6.08379 778.976 6.08504 778.976 6.08629C778.976 6.08754 778.976 6.08879 778.976 6.09004C778.976 6.09129 778.976 6.09254 778.976 6.09379C778.976 6.09504 778.976 6.09628 778.976 6.09753C778.976 6.09878 778.976 6.10002 778.976 6.10127C778.976 6.10251 778.976 6.10376 778.976 6.105C778.976 6.10624 778.976 6.10748 778.976 6.10873C778.976 6.10997 778.976 6.11121 778.976 6.11245C778.976 6.11369 778.976 6.11493 778.976 6.11616C778.976 6.1174 778.976 6.11864 778.976 6.11988C778.976 6.12111 778.976 6.12235 778.976 6.12358C778.976 6.12482 778.976 6.12605 778.976 6.12728C778.976 6.12852 778.976 6.12975 778.976 6.13098C778.976 6.13221 778.976 6.13344 778.976 6.13467C778.976 6.1359 778.976 6.13713 778.976 6.13836C778.976 6.13959 778.976 6.14081 778.976 6.14204C778.976 6.14327 778.976 6.14449 778.976 6.14572C778.976 6.14694 778.976 6.14816 778.976 6.14939C778.976 6.15061 778.976 6.15183 778.976 6.15305C778.976 6.15427 778.976 6.1555 778.976 6.15671C778.976 6.15793 778.976 6.15915 778.976 6.16037C778.976 6.16159 778.976 6.16281 778.976 6.16402C778.976 6.16524 778.976 6.16645 778.976 6.16767C778.976 6.16888 778.976 6.1701 778.976 6.17131C778.976 6.17252 778.976 6.17373 778.976 6.17495C778.976 6.17616 778.976 6.17737 778.976 6.17858C778.976 6.17979 778.976 6.18099 778.976 6.1822C778.976 6.18341 778.976 6.18462 778.976 6.18582C778.976 6.18703 778.976 6.18823 778.976 6.18944C778.976 6.19064 778.976 6.19185 778.976 6.19305C778.976 6.19425 778.976 6.19545 778.976 6.19666C778.976 6.19786 778.976 6.19906 778.976 6.20026C778.976 6.20146 778.976 6.20265 778.976 6.20385C778.976 6.20505 778.976 6.20625 778.976 6.20744C778.976 6.20864 778.976 6.20983 778.976 6.21103C778.976 6.21222 778.976 6.21342 778.976 6.21461C778.976 6.2158 778.976 6.21699 778.976 6.21819C778.976 6.21938 778.976 6.22057 778.976 6.22176C778.976 6.22295 778.976 6.22413 778.976 6.22532C778.976 6.22651 778.976 6.2277 778.976 6.22888C778.976 6.23007 778.976 6.23125 778.976 6.23244C778.976 6.23362 778.976 6.23481 778.976 6.23599C778.976 6.23717 778.976 6.23835 778.976 6.23953C778.976 6.24071 778.976 6.24189 778.976 6.24307C778.976 6.24425 778.976 6.24543 778.976 6.24661C778.976 6.24779 778.976 6.24896 778.976 6.25014C778.976 6.25132 778.976 6.25249 778.976 6.25366C778.976 6.25484 778.976 6.25601 778.976 6.25719C778.976 6.25836 778.976 6.25953 778.976 6.2607C778.976 6.26187 778.976 6.26304 778.976 6.26421C778.976 6.26538 778.976 6.26655 778.976 6.26772C778.976 6.26888 778.976 6.27005 778.976 6.27122C778.976 6.27238 778.976 6.27355 778.976 6.27471C778.976 6.27588 778.976 6.27704 778.976 6.2782C778.976 6.27936 778.976 6.28053 778.976 6.28169C778.976 6.28285 778.976 6.28401 778.976 6.28517C778.976 6.28633 778.976 6.28748 778.976 6.28864C778.976 6.2898 778.976 6.29095 778.976 6.29211C778.976 6.29327 778.976 6.29442 778.976 6.29558C778.976 6.29673 778.976 6.29788 778.976 6.29904C778.976 6.30019 778.976 6.30134 778.976 6.30249C778.976 6.30364 778.976 6.30479 778.976 6.30594C778.976 6.30709 778.976 6.30824 778.976 6.30938C778.976 6.31053 778.976 6.31168 778.976 6.31282C778.976 6.31397 778.976 6.31511 778.976 6.31626C778.976 6.3174 778.976 6.31855 778.976 6.31969C778.976 6.32083 778.976 6.32197 778.976 6.32311C778.976 6.32425 778.976 6.32539 778.976 6.32653C778.976 6.32767 778.976 6.32881 778.976 6.32995C778.976 6.33108 778.976 6.33222 778.976 6.33336C778.976 6.33449 778.976 6.33563 778.976 6.33676C778.976 6.3379 778.976 6.33903 778.976 6.34016C778.976 6.34129 778.976 6.34242 778.976 6.34355C778.976 6.34469 778.976 6.34582 778.976 6.34694C778.976 6.34807 778.976 6.3492 778.976 6.35033C778.976 6.35146 778.976 6.35258 778.976 6.35371C778.976 6.35483 778.976 6.35596 778.976 6.35708C778.976 6.35821 778.976 6.35933 778.976 6.36045C778.976 6.36157 778.976 6.36269 778.976 6.36382C778.976 6.36494 778.976 6.36606 778.976 6.36717C778.976 6.36829 778.976 6.36941 778.976 6.37053C778.976 6.37165 778.976 6.37276 778.976 6.37388C778.976 6.37499 778.976 6.37611 778.976 6.37722C778.976 6.37834 778.976 6.37945 778.976 6.38056C778.976 6.38167 778.976 6.38278 778.976 6.38389C778.976 6.38501 778.976 6.38611 778.976 6.38722C778.976 6.38833 778.976 6.38944 778.976 6.39055C778.976 6.39165 778.976 6.39276 778.976 6.39387C778.976 6.39497 778.976 6.39608 778.976 6.39718C778.976 6.39828 778.976 6.39939 778.976 6.40049C778.976 6.40159 778.976 6.40269 778.976 6.40379C778.976 6.40489 778.976 6.40599 778.976 6.40709C778.976 6.40819 778.976 6.40929 778.976 6.41038C778.976 6.41148 778.976 6.41258 778.976 6.41367C778.976 6.41477 778.976 6.41586 778.976 6.41696C778.976 6.41805 778.976 6.41914 778.976 6.42024C778.976 6.42133 778.976 6.42242 778.976 6.42351C778.976 6.4246 778.976 6.42569 778.976 6.42678C778.976 6.42787 778.976 6.42895 778.976 6.43004C778.976 6.43113 778.976 6.43221 778.976 6.4333C778.976 6.43438 778.976 6.43547 778.976 6.43655C778.976 6.43764 778.976 6.43872 778.976 6.4398C778.976 6.44088 778.976 6.44196 778.976 6.44304C778.976 6.44412 778.976 6.4452 778.976 6.44628C778.976 6.44736 778.976 6.44844 778.976 6.44952C778.976 6.45059 778.976 6.45167 778.976 6.45274C778.976 6.45382 778.976 6.45489 778.976 6.45597C778.976 6.45704 778.976 6.45811 778.976 6.45919C778.976 6.46026 778.976 6.46133 778.976 6.4624C778.976 6.46347 778.976 6.46454 778.976 6.46561C778.976 6.46668 778.976 6.46774 778.976 6.46881C778.976 6.46988 778.976 6.47094 778.976 6.47201C778.976 6.47307 778.976 6.47414 778.976 6.4752C778.976 6.47626 778.976 6.47733 778.976 6.47839C778.976 6.47945 778.976 6.48051 778.976 6.48157C778.976 6.48263 778.976 6.48369 778.976 6.48475C778.976 6.48581 778.976 6.48687 778.976 6.48792C778.976 6.48898 778.976 6.49003 778.976 6.49109C778.976 6.49214 778.976 6.4932 778.976 6.49425C778.976 6.49531 778.976 6.49636 778.976 6.49741C778.976 6.49846 778.976 6.49951 778.976 6.50056C778.976 6.50161 778.976 6.50266 778.976 6.50371C778.976 6.50476 778.976 6.50581 778.976 6.50685C778.976 6.5079 778.976 6.50895 778.976 6.50999C778.976 6.51104 778.976 6.51208 778.976 6.51312C778.976 6.51417 778.976 6.51521 778.976 6.51625C778.976 6.51729 778.976 6.51833 778.976 6.51937C778.976 6.52041 778.976 6.52145 778.976 6.52249C778.976 6.52353 778.976 6.52457 778.976 6.5256C778.976 6.52664 778.976 6.52768 778.976 6.52871C778.976 6.52975 778.976 6.53078 778.976 6.53181C778.976 6.53285 778.976 6.53388 778.976 6.53491C778.976 6.53594 778.976 6.53697 778.976 6.538C778.976 6.53903 778.976 6.54006 778.976 6.54109C778.976 6.54212 778.976 6.54314 778.976 6.54417C778.976 6.5452 778.976 6.54622 778.976 6.54725C778.976 6.54827 778.976 6.5493 778.976 6.55032C778.976 6.55134 778.976 6.55237 778.976 6.55339C778.976 6.55441 778.976 6.55543 778.976 6.55645C778.976 6.55747 778.976 6.55849 778.976 6.55951C778.976 6.56052 778.976 6.56154 778.976 6.56256C778.976 6.56358 778.976 6.56459 778.976 6.56561C778.976 6.56662 778.976 6.56763 778.976 6.56865C778.976 6.56966 778.976 6.57067 778.976 6.57168C778.976 6.5727 778.976 6.57371 778.976 6.57472C778.976 6.57573 778.976 6.57673 778.976 6.57774C778.976 6.57875 778.976 6.57976 778.976 6.58076C778.976 6.58177 778.976 6.58278 778.976 6.58378C778.976 6.58479 778.976 6.58579 778.976 6.58679C778.976 6.5878 778.976 6.5888 778.976 6.5898C778.976 6.5908 778.976 6.5918 778.976 6.5928C778.976 6.5938 778.976 6.5948 778.976 6.5958C778.976 6.5968 778.976 6.59779 778.976 6.59879C778.976 6.59979 778.976 6.60078 778.976 6.60178C778.976 6.60277 778.976 6.60376 778.976 6.60476C778.976 6.60575 778.976 6.60674 778.976 6.60773C778.976 6.60873 778.976 6.60972 778.976 6.61071C778.976 6.61169 778.976 6.61268 778.976 6.61367C778.976 6.61466 778.976 6.61565 778.976 6.61663C778.976 6.61762 778.976 6.6186 778.976 6.61959C778.976 6.62057 778.976 6.62156 778.976 6.62254C778.976 6.62352 778.976 6.62451 778.976 6.62549C778.976 6.62647 778.976 6.62745 778.976 6.62843C778.976 6.62941 778.976 6.63039 778.976 6.63136C778.976 6.63234 778.976 6.63332 778.976 6.6343C778.976 6.63527 778.976 6.63625 778.976 6.63722C778.976 6.6382 778.976 6.63917 778.976 6.64014C778.976 6.64112 778.976 6.64209 778.976 6.64306C778.976 6.64403 778.976 6.645 778.976 6.64597C778.976 6.64694 778.976 6.64791 778.976 6.64888C778.976 6.64984 778.976 6.65081 778.976 6.65178C778.976 6.65274 778.976 6.65371 778.976 6.65467C778.976 6.65564 778.976 6.6566 778.976 6.65756C778.976 6.65853 778.976 6.65949 778.976 6.66045C778.976 6.66141 778.976 6.66237 778.976 6.66333C778.976 6.66429 778.976 6.66525 778.976 6.66621C778.976 6.66716 778.976 6.66812 778.976 6.66908C778.976 6.67003 778.976 6.67099 778.976 6.67194C778.976 6.6729 778.976 6.67385 778.976 6.6748C778.976 6.67575 778.976 6.67671 778.976 6.67766C778.976 6.67861 778.976 6.67956 778.976 6.68051C778.976 6.68146 778.976 6.68241 778.976 6.68335C778.976 6.6843 778.976 6.68525 778.976 6.68619C778.976 6.68714 778.976 6.68809 778.976 6.68903C778.976 6.68997 778.976 6.69092 778.976 6.69186C778.976 6.6928 778.976 6.69374 778.976 6.69469C778.976 6.69563 778.976 6.69657 778.976 6.69751C778.976 6.69844 778.976 6.69938 778.976 6.70032C778.976 6.70126 778.976 6.7022 778.976 6.70313C778.976 6.70407 778.976 6.705 778.976 6.70594C778.976 6.70687 778.976 6.7078 778.976 6.70874C778.976 6.70967 778.976 6.7106 778.976 6.71153C778.976 6.71246 778.976 6.71339 778.976 6.71432C778.976 6.71525 778.976 6.71618 778.976 6.71711C778.976 6.71803 778.976 6.71896 778.976 6.71989C778.976 6.72081 778.976 6.72174 778.976 6.72266C778.976 6.72359 778.976 6.72451 778.976 6.72543C778.976 6.72635 778.976 6.72728 778.976 6.7282C778.976 6.72912 778.976 6.73004 778.976 6.73096C778.976 6.73188 778.976 6.73279 778.976 6.73371C778.976 6.73463 778.976 6.73555 778.976 6.73646C778.976 6.73738 778.976 6.73829 778.976 6.73921C778.976 6.74012 778.976 6.74103 778.976 6.74195C778.976 6.74286 778.976 6.74377 778.976 6.74468C778.976 6.74559 778.976 6.7465 778.976 6.74741C778.976 6.74832 778.976 6.74923 778.976 6.75014C778.976 6.75104 778.976 6.75195 778.976 6.75285C778.976 6.75376 778.976 6.75467 778.976 6.75557C778.976 6.75647 778.976 6.75738 778.976 6.75828C778.976 6.75918 778.976 6.76008 778.976 6.76098C778.976 6.76188 778.976 6.76278 778.976 6.76368C778.976 6.76458 778.976 6.76548 778.976 6.76638C778.976 6.76727 778.976 6.76817 778.976 6.76907C778.976 6.76996 778.976 6.77086 778.976 6.77175C778.976 6.77265 778.976 6.77354 778.976 6.77443C778.976 6.77532 778.976 6.77621 778.976 6.7771C778.976 6.778 778.976 6.77889 778.976 6.77977C778.976 6.78066 778.976 6.78155 778.976 6.78244C778.976 6.78333 778.976 6.78421 778.976 6.7851C778.976 6.78598 778.976 6.78687 778.976 6.78775C778.976 6.78864 778.976 6.78952 778.976 6.7904C778.976 6.79128 778.976 6.79216 778.976 6.79304C778.976 6.79393 778.976 6.79481 778.976 6.79568C778.976 6.79656 778.976 6.79744 778.976 6.79832C778.976 6.7992 778.976 6.80007 778.976 6.80095C778.976 6.80182 778.976 6.8027 778.976 6.80357C778.976 6.80444 778.976 6.80532 778.976 6.80619C778.976 6.80706 778.976 6.80793 778.976 6.8088C778.976 6.80967 778.976 6.81054 778.976 6.81141C778.976 6.81228 778.976 6.81315 778.976 6.81402C778.976 6.81488 778.976 6.81575 778.976 6.81662C778.976 6.81748 778.976 6.81835 778.976 6.81921C778.976 6.82007 778.976 6.82094 778.976 6.8218C778.976 6.82266 778.976 6.82352 778.976 6.82438C778.976 6.82524 778.976 6.8261 778.976 6.82696C778.976 6.82782 778.976 6.82868 778.976 6.82953C778.976 6.83039 778.976 6.83125 778.976 6.8321C778.976 6.83296 778.976 6.83381 778.976 6.83467C778.976 6.83552 778.976 6.83637 778.976 6.83722C778.976 6.83808 778.976 6.83893 778.976 6.83978C778.976 6.84063 778.976 6.84148 778.976 6.84233C778.976 6.84317 778.976 6.84402 778.976 6.84487C778.976 6.84572 778.976 6.84656 778.976 6.84741C778.976 6.84825 778.976 6.8491 778.976 6.84994C778.976 6.85078 778.976 6.85163 778.976 6.85247C778.976 6.85331 778.976 6.85415 778.976 6.85499C778.976 6.85583 778.976 6.85667 778.976 6.85751C778.976 6.85835 778.976 6.85919 778.976 6.86002C778.976 6.86086 778.976 6.8617 778.976 6.86253C778.976 6.86337 778.976 6.8642 778.976 6.86504C778.976 6.86587 778.976 6.8667 778.976 6.86753C778.976 6.86837 778.976 6.8692 778.976 6.87003C778.976 6.87086 778.976 6.87169 778.976 6.87251C778.976 6.87334 778.976 6.87417 778.976 6.875C778.976 6.87582 778.976 6.87665 778.976 6.87748C778.976 6.8783 778.976 6.87912 778.976 6.87995C778.976 6.88077 778.976 6.88159 778.976 6.88242C778.976 6.88324 778.976 6.88406 778.976 6.88488C778.976 6.8857 778.976 6.88652 778.976 6.88734C778.976 6.88815 778.976 6.88897 778.976 6.88979C778.976 6.89061 778.976 6.89142 778.976 6.89224C778.976 6.89305 778.976 6.89387 778.976 6.89468C778.976 6.89549 778.976 6.89631 778.976 6.89712C778.976 6.89793 778.976 6.89874 778.976 6.89955C778.976 6.90036 778.976 6.90117 778.976 6.90198C778.976 6.90279 778.976 6.90359 778.976 6.9044C778.976 6.90521 778.976 6.90601 778.976 6.90682C778.976 6.90762 778.976 6.90843 778.976 6.90923C778.976 6.91003 778.976 6.91084 778.976 6.91164C778.976 6.91244 778.976 6.91324 778.976 6.91404C778.976 6.91484 778.976 6.91564 778.976 6.91644C778.976 6.91724 778.976 6.91803 778.976 6.91883C778.976 6.91963 778.976 6.92042 778.976 6.92122C778.976 6.92201 778.976 6.92281 778.976 6.9236C778.976 6.92439 778.976 6.92518 778.976 6.92598C778.976 6.92677 778.976 6.92756 778.976 6.92835C778.976 6.92914 778.976 6.92993 778.976 6.93072C778.976 6.9315 778.976 6.93229 778.976 6.93308C778.976 6.93386 778.976 6.93465 778.976 6.93543C778.976 6.93622 778.976 6.937 778.976 6.93779C778.976 6.93857 778.976 6.93935 778.976 6.94013C778.976 6.94092 778.976 6.9417 778.976 6.94248C778.976 6.94326 778.976 6.94403 778.976 6.94481C778.976 6.94559 778.976 6.94637 778.976 6.94714C778.976 6.94792 778.976 6.9487 778.976 6.94947C778.976 6.95025 778.976 6.95102 778.976 6.95179C778.976 6.95257 778.976 6.95334 778.976 6.95411C778.976 6.95488 778.976 6.95565 778.976 6.95642C778.976 6.95719 778.976 6.95796 778.976 6.95873C778.976 6.9595 778.976 6.96026 778.976 6.96103C778.976 6.9618 778.976 6.96256 778.976 6.96333C778.976 6.96409 778.976 6.96486 778.976 6.96562C778.976 6.96638 778.976 6.96714 778.976 6.96791C778.976 6.96867 778.976 6.96943 778.976 6.97019C778.976 6.97095 778.976 6.97171 778.976 6.97246C778.976 6.97322 778.976 6.97398 778.976 6.97473C778.976 6.97549 778.976 6.97625 778.976 6.977C778.976 6.97776 778.976 6.97851 778.976 6.97926C778.976 6.98002 778.976 6.98077 778.976 6.98152C778.976 6.98227 778.976 6.98302 778.976 6.98377C778.976 6.98452 778.976 6.98527 778.976 6.98602C778.976 6.98676 778.976 6.98751 778.976 6.98826C778.976 6.989 778.976 6.98975 778.976 6.99049C778.976 6.99124 778.976 6.99198 778.976 6.99273C778.976 6.99347 778.976 6.99421 778.976 6.99495C778.976 6.99569 778.976 6.99643 778.976 6.99717C778.976 6.99791 778.976 6.99865 778.976 6.99939C778.976 7.00013 778.976 7.00086 778.976 7.0016C778.976 7.00234 778.976 7.00307 778.976 7.00381C778.976 7.00454 778.976 7.00527 778.976 7.00601C778.976 7.00674 778.976 7.00747 778.976 7.0082C778.976 7.00893 778.976 7.00966 778.976 7.01039C778.976 7.01112 778.976 7.01185 778.976 7.01258C778.976 7.01331 778.976 7.01403 778.976 7.01476C778.976 7.01549 778.976 7.01621 778.976 7.01694C778.976 7.01766 778.976 7.01838 778.976 7.01911C778.976 7.01983 778.976 7.02055 778.976 7.02127C778.976 7.02199 778.976 7.02271 778.976 7.02343C778.976 7.02415 778.976 7.02487 778.976 7.02559C778.976 7.02631 778.976 7.02702 778.976 7.02774C778.976 7.02846 778.976 7.02917 778.976 7.02988C778.976 7.0306 778.976 7.03131 778.976 7.03203C778.976 7.03274 778.976 7.03345 778.976 7.03416C778.976 7.03487 778.976 7.03558 778.976 7.03629C778.976 7.037 778.976 7.03771 778.976 7.03842C778.976 7.03912 778.976 7.03983 778.976 7.04054C778.976 7.04124 778.976 7.04195 778.976 7.04265C778.976 7.04336 778.976 7.04406 778.976 7.04476C778.976 7.04547 778.976 7.04617 778.976 7.04687C778.976 7.04757 778.976 7.04827 778.976 7.04897C778.976 7.04967 778.976 7.05037 778.976 7.05106C778.976 7.05176 778.976 7.05246 778.976 7.05315C778.976 7.05385 778.976 7.05454 778.976 7.05524C778.976 7.05593 778.976 7.05663 778.976 7.05732C778.976 7.05801 778.976 7.0587 778.976 7.05939C778.976 7.06009 778.976 7.06078 778.976 7.06146C778.976 7.06215 778.976 7.06284 778.976 7.06353H779.976H780.976C780.976 7.06284 780.976 7.06215 780.976 7.06146C780.976 7.06078 780.976 7.06009 780.976 7.05939C780.976 7.0587 780.976 7.05801 780.976 7.05732C780.976 7.05663 780.976 7.05593 780.976 7.05524C780.976 7.05454 780.976 7.05385 780.976 7.05315C780.976 7.05246 780.976 7.05176 780.976 7.05106C780.976 7.05037 780.976 7.04967 780.976 7.04897C780.976 7.04827 780.976 7.04757 780.976 7.04687C780.976 7.04617 780.976 7.04547 780.976 7.04476C780.976 7.04406 780.976 7.04336 780.976 7.04265C780.976 7.04195 780.976 7.04124 780.976 7.04054C780.976 7.03983 780.976 7.03912 780.976 7.03842C780.976 7.03771 780.976 7.037 780.976 7.03629C780.976 7.03558 780.976 7.03487 780.976 7.03416C780.976 7.03345 780.976 7.03274 780.976 7.03203C780.976 7.03131 780.976 7.0306 780.976 7.02988C780.976 7.02917 780.976 7.02846 780.976 7.02774C780.976 7.02702 780.976 7.02631 780.976 7.02559C780.976 7.02487 780.976 7.02415 780.976 7.02343C780.976 7.02271 780.976 7.02199 780.976 7.02127C780.976 7.02055 780.976 7.01983 780.976 7.01911C780.976 7.01838 780.976 7.01766 780.976 7.01694C780.976 7.01621 780.976 7.01549 780.976 7.01476C780.976 7.01403 780.976 7.01331 780.976 7.01258C780.976 7.01185 780.976 7.01112 780.976 7.01039C780.976 7.00966 780.976 7.00893 780.976 7.0082C780.976 7.00747 780.976 7.00674 780.976 7.00601C780.976 7.00527 780.976 7.00454 780.976 7.00381C780.976 7.00307 780.976 7.00234 780.976 7.0016C780.976 7.00086 780.976 7.00013 780.976 6.99939C780.976 6.99865 780.976 6.99791 780.976 6.99717C780.976 6.99643 780.976 6.99569 780.976 6.99495C780.976 6.99421 780.976 6.99347 780.976 6.99273C780.976 6.99198 780.976 6.99124 780.976 6.99049C780.976 6.98975 780.976 6.989 780.976 6.98826C780.976 6.98751 780.976 6.98676 780.976 6.98602C780.976 6.98527 780.976 6.98452 780.976 6.98377C780.976 6.98302 780.976 6.98227 780.976 6.98152C780.976 6.98077 780.976 6.98002 780.976 6.97926C780.976 6.97851 780.976 6.97776 780.976 6.977C780.976 6.97625 780.976 6.97549 780.976 6.97473C780.976 6.97398 780.976 6.97322 780.976 6.97246C780.976 6.97171 780.976 6.97095 780.976 6.97019C780.976 6.96943 780.976 6.96867 780.976 6.96791C780.976 6.96714 780.976 6.96638 780.976 6.96562C780.976 6.96486 780.976 6.96409 780.976 6.96333C780.976 6.96256 780.976 6.9618 780.976 6.96103C780.976 6.96026 780.976 6.9595 780.976 6.95873C780.976 6.95796 780.976 6.95719 780.976 6.95642C780.976 6.95565 780.976 6.95488 780.976 6.95411C780.976 6.95334 780.976 6.95257 780.976 6.95179C780.976 6.95102 780.976 6.95025 780.976 6.94947C780.976 6.9487 780.976 6.94792 780.976 6.94714C780.976 6.94637 780.976 6.94559 780.976 6.94481C780.976 6.94403 780.976 6.94326 780.976 6.94248C780.976 6.9417 780.976 6.94092 780.976 6.94013C780.976 6.93935 780.976 6.93857 780.976 6.93779C780.976 6.937 780.976 6.93622 780.976 6.93543C780.976 6.93465 780.976 6.93386 780.976 6.93308C780.976 6.93229 780.976 6.9315 780.976 6.93072C780.976 6.92993 780.976 6.92914 780.976 6.92835C780.976 6.92756 780.976 6.92677 780.976 6.92598C780.976 6.92518 780.976 6.92439 780.976 6.9236C780.976 6.92281 780.976 6.92201 780.976 6.92122C780.976 6.92042 780.976 6.91963 780.976 6.91883C780.976 6.91803 780.976 6.91724 780.976 6.91644C780.976 6.91564 780.976 6.91484 780.976 6.91404C780.976 6.91324 780.976 6.91244 780.976 6.91164C780.976 6.91084 780.976 6.91003 780.976 6.90923C780.976 6.90843 780.976 6.90762 780.976 6.90682C780.976 6.90601 780.976 6.90521 780.976 6.9044C780.976 6.90359 780.976 6.90279 780.976 6.90198C780.976 6.90117 780.976 6.90036 780.976 6.89955C780.976 6.89874 780.976 6.89793 780.976 6.89712C780.976 6.89631 780.976 6.89549 780.976 6.89468C780.976 6.89387 780.976 6.89305 780.976 6.89224C780.976 6.89142 780.976 6.89061 780.976 6.88979C780.976 6.88897 780.976 6.88815 780.976 6.88734C780.976 6.88652 780.976 6.8857 780.976 6.88488C780.976 6.88406 780.976 6.88324 780.976 6.88242C780.976 6.88159 780.976 6.88077 780.976 6.87995C780.976 6.87912 780.976 6.8783 780.976 6.87748C780.976 6.87665 780.976 6.87582 780.976 6.875C780.976 6.87417 780.976 6.87334 780.976 6.87251C780.976 6.87169 780.976 6.87086 780.976 6.87003C780.976 6.8692 780.976 6.86837 780.976 6.86753C780.976 6.8667 780.976 6.86587 780.976 6.86504C780.976 6.8642 780.976 6.86337 780.976 6.86253C780.976 6.8617 780.976 6.86086 780.976 6.86002C780.976 6.85919 780.976 6.85835 780.976 6.85751C780.976 6.85667 780.976 6.85583 780.976 6.85499C780.976 6.85415 780.976 6.85331 780.976 6.85247C780.976 6.85163 780.976 6.85078 780.976 6.84994C780.976 6.8491 780.976 6.84825 780.976 6.84741C780.976 6.84656 780.976 6.84572 780.976 6.84487C780.976 6.84402 780.976 6.84317 780.976 6.84233C780.976 6.84148 780.976 6.84063 780.976 6.83978C780.976 6.83893 780.976 6.83808 780.976 6.83722C780.976 6.83637 780.976 6.83552 780.976 6.83467C780.976 6.83381 780.976 6.83296 780.976 6.8321C780.976 6.83125 780.976 6.83039 780.976 6.82953C780.976 6.82868 780.976 6.82782 780.976 6.82696C780.976 6.8261 780.976 6.82524 780.976 6.82438C780.976 6.82352 780.976 6.82266 780.976 6.8218C780.976 6.82094 780.976 6.82007 780.976 6.81921C780.976 6.81835 780.976 6.81748 780.976 6.81662C780.976 6.81575 780.976 6.81488 780.976 6.81402C780.976 6.81315 780.976 6.81228 780.976 6.81141C780.976 6.81054 780.976 6.80967 780.976 6.8088C780.976 6.80793 780.976 6.80706 780.976 6.80619C780.976 6.80532 780.976 6.80444 780.976 6.80357C780.976 6.8027 780.976 6.80182 780.976 6.80095C780.976 6.80007 780.976 6.7992 780.976 6.79832C780.976 6.79744 780.976 6.79656 780.976 6.79568C780.976 6.79481 780.976 6.79393 780.976 6.79304C780.976 6.79216 780.976 6.79128 780.976 6.7904C780.976 6.78952 780.976 6.78864 780.976 6.78775C780.976 6.78687 780.976 6.78598 780.976 6.7851C780.976 6.78421 780.976 6.78333 780.976 6.78244C780.976 6.78155 780.976 6.78066 780.976 6.77977C780.976 6.77889 780.976 6.778 780.976 6.7771C780.976 6.77621 780.976 6.77532 780.976 6.77443C780.976 6.77354 780.976 6.77265 780.976 6.77175C780.976 6.77086 780.976 6.76996 780.976 6.76907C780.976 6.76817 780.976 6.76727 780.976 6.76638C780.976 6.76548 780.976 6.76458 780.976 6.76368C780.976 6.76278 780.976 6.76188 780.976 6.76098C780.976 6.76008 780.976 6.75918 780.976 6.75828C780.976 6.75738 780.976 6.75647 780.976 6.75557C780.976 6.75467 780.976 6.75376 780.976 6.75285C780.976 6.75195 780.976 6.75104 780.976 6.75014C780.976 6.74923 780.976 6.74832 780.976 6.74741C780.976 6.7465 780.976 6.74559 780.976 6.74468C780.976 6.74377 780.976 6.74286 780.976 6.74195C780.976 6.74103 780.976 6.74012 780.976 6.73921C780.976 6.73829 780.976 6.73738 780.976 6.73646C780.976 6.73555 780.976 6.73463 780.976 6.73371C780.976 6.73279 780.976 6.73188 780.976 6.73096C780.976 6.73004 780.976 6.72912 780.976 6.7282C780.976 6.72728 780.976 6.72635 780.976 6.72543C780.976 6.72451 780.976 6.72359 780.976 6.72266C780.976 6.72174 780.976 6.72081 780.976 6.71989C780.976 6.71896 780.976 6.71803 780.976 6.71711C780.976 6.71618 780.976 6.71525 780.976 6.71432C780.976 6.71339 780.976 6.71246 780.976 6.71153C780.976 6.7106 780.976 6.70967 780.976 6.70874C780.976 6.7078 780.976 6.70687 780.976 6.70594C780.976 6.705 780.976 6.70407 780.976 6.70313C780.976 6.7022 780.976 6.70126 780.976 6.70032C780.976 6.69938 780.976 6.69844 780.976 6.69751C780.976 6.69657 780.976 6.69563 780.976 6.69469C780.976 6.69374 780.976 6.6928 780.976 6.69186C780.976 6.69092 780.976 6.68997 780.976 6.68903C780.976 6.68809 780.976 6.68714 780.976 6.68619C780.976 6.68525 780.976 6.6843 780.976 6.68335C780.976 6.68241 780.976 6.68146 780.976 6.68051C780.976 6.67956 780.976 6.67861 780.976 6.67766C780.976 6.67671 780.976 6.67575 780.976 6.6748C780.976 6.67385 780.976 6.6729 780.976 6.67194C780.976 6.67099 780.976 6.67003 780.976 6.66908C780.976 6.66812 780.976 6.66716 780.976 6.66621C780.976 6.66525 780.976 6.66429 780.976 6.66333C780.976 6.66237 780.976 6.66141 780.976 6.66045C780.976 6.65949 780.976 6.65853 780.976 6.65756C780.976 6.6566 780.976 6.65564 780.976 6.65467C780.976 6.65371 780.976 6.65274 780.976 6.65178C780.976 6.65081 780.976 6.64984 780.976 6.64888C780.976 6.64791 780.976 6.64694 780.976 6.64597C780.976 6.645 780.976 6.64403 780.976 6.64306C780.976 6.64209 780.976 6.64112 780.976 6.64014C780.976 6.63917 780.976 6.6382 780.976 6.63722C780.976 6.63625 780.976 6.63527 780.976 6.6343C780.976 6.63332 780.976 6.63234 780.976 6.63136C780.976 6.63039 780.976 6.62941 780.976 6.62843C780.976 6.62745 780.976 6.62647 780.976 6.62549C780.976 6.62451 780.976 6.62352 780.976 6.62254C780.976 6.62156 780.976 6.62057 780.976 6.61959C780.976 6.6186 780.976 6.61762 780.976 6.61663C780.976 6.61565 780.976 6.61466 780.976 6.61367C780.976 6.61268 780.976 6.61169 780.976 6.61071C780.976 6.60972 780.976 6.60873 780.976 6.60773C780.976 6.60674 780.976 6.60575 780.976 6.60476C780.976 6.60376 780.976 6.60277 780.976 6.60178C780.976 6.60078 780.976 6.59979 780.976 6.59879C780.976 6.59779 780.976 6.5968 780.976 6.5958C780.976 6.5948 780.976 6.5938 780.976 6.5928C780.976 6.5918 780.976 6.5908 780.976 6.5898C780.976 6.5888 780.976 6.5878 780.976 6.58679C780.976 6.58579 780.976 6.58479 780.976 6.58378C780.976 6.58278 780.976 6.58177 780.976 6.58076C780.976 6.57976 780.976 6.57875 780.976 6.57774C780.976 6.57673 780.976 6.57573 780.976 6.57472C780.976 6.57371 780.976 6.5727 780.976 6.57168C780.976 6.57067 780.976 6.56966 780.976 6.56865C780.976 6.56763 780.976 6.56662 780.976 6.56561C780.976 6.56459 780.976 6.56358 780.976 6.56256C780.976 6.56154 780.976 6.56052 780.976 6.55951C780.976 6.55849 780.976 6.55747 780.976 6.55645C780.976 6.55543 780.976 6.55441 780.976 6.55339C780.976 6.55237 780.976 6.55134 780.976 6.55032C780.976 6.5493 780.976 6.54827 780.976 6.54725C780.976 6.54622 780.976 6.5452 780.976 6.54417C780.976 6.54314 780.976 6.54212 780.976 6.54109C780.976 6.54006 780.976 6.53903 780.976 6.538C780.976 6.53697 780.976 6.53594 780.976 6.53491C780.976 6.53388 780.976 6.53285 780.976 6.53181C780.976 6.53078 780.976 6.52975 780.976 6.52871C780.976 6.52768 780.976 6.52664 780.976 6.5256C780.976 6.52457 780.976 6.52353 780.976 6.52249C780.976 6.52145 780.976 6.52041 780.976 6.51937C780.976 6.51833 780.976 6.51729 780.976 6.51625C780.976 6.51521 780.976 6.51417 780.976 6.51312C780.976 6.51208 780.976 6.51104 780.976 6.50999C780.976 6.50895 780.976 6.5079 780.976 6.50685C780.976 6.50581 780.976 6.50476 780.976 6.50371C780.976 6.50266 780.976 6.50161 780.976 6.50056C780.976 6.49951 780.976 6.49846 780.976 6.49741C780.976 6.49636 780.976 6.49531 780.976 6.49425C780.976 6.4932 780.976 6.49214 780.976 6.49109C780.976 6.49003 780.976 6.48898 780.976 6.48792C780.976 6.48687 780.976 6.48581 780.976 6.48475C780.976 6.48369 780.976 6.48263 780.976 6.48157C780.976 6.48051 780.976 6.47945 780.976 6.47839C780.976 6.47733 780.976 6.47626 780.976 6.4752C780.976 6.47414 780.976 6.47307 780.976 6.47201C780.976 6.47094 780.976 6.46988 780.976 6.46881C780.976 6.46774 780.976 6.46668 780.976 6.46561C780.976 6.46454 780.976 6.46347 780.976 6.4624C780.976 6.46133 780.976 6.46026 780.976 6.45919C780.976 6.45811 780.976 6.45704 780.976 6.45597C780.976 6.45489 780.976 6.45382 780.976 6.45274C780.976 6.45167 780.976 6.45059 780.976 6.44952C780.976 6.44844 780.976 6.44736 780.976 6.44628C780.976 6.4452 780.976 6.44412 780.976 6.44304C780.976 6.44196 780.976 6.44088 780.976 6.4398C780.976 6.43872 780.976 6.43764 780.976 6.43655C780.976 6.43547 780.976 6.43438 780.976 6.4333C780.976 6.43221 780.976 6.43113 780.976 6.43004C780.976 6.42895 780.976 6.42787 780.976 6.42678C780.976 6.42569 780.976 6.4246 780.976 6.42351C780.976 6.42242 780.976 6.42133 780.976 6.42024C780.976 6.41914 780.976 6.41805 780.976 6.41696C780.976 6.41586 780.976 6.41477 780.976 6.41367C780.976 6.41258 780.976 6.41148 780.976 6.41038C780.976 6.40929 780.976 6.40819 780.976 6.40709C780.976 6.40599 780.976 6.40489 780.976 6.40379C780.976 6.40269 780.976 6.40159 780.976 6.40049C780.976 6.39939 780.976 6.39828 780.976 6.39718C780.976 6.39608 780.976 6.39497 780.976 6.39387C780.976 6.39276 780.976 6.39165 780.976 6.39055C780.976 6.38944 780.976 6.38833 780.976 6.38722C780.976 6.38611 780.976 6.38501 780.976 6.38389C780.976 6.38278 780.976 6.38167 780.976 6.38056C780.976 6.37945 780.976 6.37834 780.976 6.37722C780.976 6.37611 780.976 6.37499 780.976 6.37388C780.976 6.37276 780.976 6.37165 780.976 6.37053C780.976 6.36941 780.976 6.36829 780.976 6.36717C780.976 6.36606 780.976 6.36494 780.976 6.36382C780.976 6.36269 780.976 6.36157 780.976 6.36045C780.976 6.35933 780.976 6.35821 780.976 6.35708C780.976 6.35596 780.976 6.35483 780.976 6.35371C780.976 6.35258 780.976 6.35146 780.976 6.35033C780.976 6.3492 780.976 6.34807 780.976 6.34694C780.976 6.34582 780.976 6.34469 780.976 6.34355C780.976 6.34242 780.976 6.34129 780.976 6.34016C780.976 6.33903 780.976 6.3379 780.976 6.33676C780.976 6.33563 780.976 6.33449 780.976 6.33336C780.976 6.33222 780.976 6.33108 780.976 6.32995C780.976 6.32881 780.976 6.32767 780.976 6.32653C780.976 6.32539 780.976 6.32425 780.976 6.32311C780.976 6.32197 780.976 6.32083 780.976 6.31969C780.976 6.31855 780.976 6.3174 780.976 6.31626C780.976 6.31511 780.976 6.31397 780.976 6.31282C780.976 6.31168 780.976 6.31053 780.976 6.30938C780.976 6.30824 780.976 6.30709 780.976 6.30594C780.976 6.30479 780.976 6.30364 780.976 6.30249C780.976 6.30134 780.976 6.30019 780.976 6.29904C780.976 6.29788 780.976 6.29673 780.976 6.29558C780.976 6.29442 780.976 6.29327 780.976 6.29211C780.976 6.29095 780.976 6.2898 780.976 6.28864C780.976 6.28748 780.976 6.28633 780.976 6.28517C780.976 6.28401 780.976 6.28285 780.976 6.28169C780.976 6.28053 780.976 6.27936 780.976 6.2782C780.976 6.27704 780.976 6.27588 780.976 6.27471C780.976 6.27355 780.976 6.27238 780.976 6.27122C780.976 6.27005 780.976 6.26888 780.976 6.26772C780.976 6.26655 780.976 6.26538 780.976 6.26421C780.976 6.26304 780.976 6.26187 780.976 6.2607C780.976 6.25953 780.976 6.25836 780.976 6.25719C780.976 6.25601 780.976 6.25484 780.976 6.25366C780.976 6.25249 780.976 6.25132 780.976 6.25014C780.976 6.24896 780.976 6.24779 780.976 6.24661C780.976 6.24543 780.976 6.24425 780.976 6.24307C780.976 6.24189 780.976 6.24071 780.976 6.23953C780.976 6.23835 780.976 6.23717 780.976 6.23599C780.976 6.23481 780.976 6.23362 780.976 6.23244C780.976 6.23125 780.976 6.23007 780.976 6.22888C780.976 6.2277 780.976 6.22651 780.976 6.22532C780.976 6.22413 780.976 6.22295 780.976 6.22176C780.976 6.22057 780.976 6.21938 780.976 6.21819C780.976 6.21699 780.976 6.2158 780.976 6.21461C780.976 6.21342 780.976 6.21222 780.976 6.21103C780.976 6.20983 780.976 6.20864 780.976 6.20744C780.976 6.20625 780.976 6.20505 780.976 6.20385C780.976 6.20265 780.976 6.20146 780.976 6.20026C780.976 6.19906 780.976 6.19786 780.976 6.19666C780.976 6.19545 780.976 6.19425 780.976 6.19305C780.976 6.19185 780.976 6.19064 780.976 6.18944C780.976 6.18823 780.976 6.18703 780.976 6.18582C780.976 6.18462 780.976 6.18341 780.976 6.1822C780.976 6.18099 780.976 6.17979 780.976 6.17858C780.976 6.17737 780.976 6.17616 780.976 6.17495C780.976 6.17373 780.976 6.17252 780.976 6.17131C780.976 6.1701 780.976 6.16888 780.976 6.16767C780.976 6.16645 780.976 6.16524 780.976 6.16402C780.976 6.16281 780.976 6.16159 780.976 6.16037C780.976 6.15915 780.976 6.15793 780.976 6.15671C780.976 6.1555 780.976 6.15427 780.976 6.15305C780.976 6.15183 780.976 6.15061 780.976 6.14939C780.976 6.14816 780.976 6.14694 780.976 6.14572C780.976 6.14449 780.976 6.14327 780.976 6.14204C780.976 6.14081 780.976 6.13959 780.976 6.13836C780.976 6.13713 780.976 6.1359 780.976 6.13467C780.976 6.13344 780.976 6.13221 780.976 6.13098C780.976 6.12975 780.976 6.12852 780.976 6.12728C780.976 6.12605 780.976 6.12482 780.976 6.12358C780.976 6.12235 780.976 6.12111 780.976 6.11988C780.976 6.11864 780.976 6.1174 780.976 6.11616C780.976 6.11493 780.976 6.11369 780.976 6.11245C780.976 6.11121 780.976 6.10997 780.976 6.10873C780.976 6.10748 780.976 6.10624 780.976 6.105C780.976 6.10376 780.976 6.10251 780.976 6.10127C780.976 6.10002 780.976 6.09878 780.976 6.09753C780.976 6.09628 780.976 6.09504 780.976 6.09379C780.976 6.09254 780.976 6.09129 780.976 6.09004C780.976 6.08879 780.976 6.08754 780.976 6.08629C780.976 6.08504 780.976 6.08379 780.976 6.08253C780.976 6.08128 780.976 6.08003 780.976 6.07877C780.976 6.07752 780.976 6.07626 780.976 6.075C780.976 6.07375 780.976 6.07249 780.976 6.07123C780.976 6.06997 780.976 6.06872 780.976 6.06746C780.976 6.0662 780.976 6.06493 780.976 6.06367C780.976 6.06241 780.976 6.06115 780.976 6.05989C780.976 6.05862 780.976 6.05736 780.976 6.05609C780.976 6.05483 780.976 6.05356 780.976 6.0523C780.976 6.05103 780.976 6.04976 780.976 6.04849C780.976 6.04723 780.976 6.04596 780.976 6.04469C780.976 6.04342 780.976 6.04215 780.976 6.04087C780.976 6.0396 780.976 6.03833 780.976 6.03706C780.976 6.03578 780.976 6.03451 780.976 6.03324C780.976 6.03196 780.976 6.03068 780.976 6.02941C780.976 6.02813 780.976 6.02685 780.976 6.02558C780.976 6.0243 780.976 6.02302 780.976 6.02174C780.976 6.02046 780.976 6.01918 780.976 6.0179C780.976 6.01661 780.976 6.01533 780.976 6.01405C780.976 6.01276 780.976 6.01148 780.976 6.0102C780.976 6.00891 780.976 6.00762 780.976 6.00634C780.976 6.00505 780.976 6.00376 780.976 6.00247C780.976 6.00119 780.976 5.9999 780.976 5.99861C780.976 5.99732 780.976 5.99603 780.976 5.99473C780.976 5.99344 780.976 5.99215 780.976 5.99086C780.976 5.98956 780.976 5.98827 780.976 5.98697C780.976 5.98568 780.976 5.98438 780.976 5.98309C780.976 5.98179 780.976 5.98049 780.976 5.97919C780.976 5.97789 780.976 5.9766 780.976 5.9753C780.976 5.974 780.976 5.97269 780.976 5.97139C780.976 5.97009 780.976 5.96879 780.976 5.96748C780.976 5.96618 780.976 5.96488 780.976 5.96357C780.976 5.96227 780.976 5.96096 780.976 5.95965C780.976 5.95835 780.976 5.95704 780.976 5.95573C780.976 5.95442 780.976 5.95311 780.976 5.9518C780.976 5.95049 780.976 5.94918 780.976 5.94787C780.976 5.94656 780.976 5.94524 780.976 5.94393C780.976 5.94262 780.976 5.9413 780.976 5.93999C780.976 5.93867 780.976 5.93736 780.976 5.93604C780.976 5.93472 780.976 5.9334 780.976 5.93209C780.976 5.93077 780.976 5.92945 780.976 5.92813C780.976 5.92681 780.976 5.92549 780.976 5.92416C780.976 5.92284 780.976 5.92152 780.976 5.9202C780.976 5.91887 780.976 5.91755 780.976 5.91622C780.976 5.9149 780.976 5.91357 780.976 5.91224C780.976 5.91092 780.976 5.90959 780.976 5.90826C780.976 5.90693 780.976 5.9056 780.976 5.90427C780.976 5.90294 780.976 5.90161 780.976 5.90028C780.976 5.89895 780.976 5.89761 780.976 5.89628C780.976 5.89495 780.976 5.89361 780.976 5.89228C780.976 5.89094 780.976 5.8896 780.976 5.88827C780.976 5.88693 780.976 5.88559 780.976 5.88425C780.976 5.88291 780.976 5.88158 780.976 5.88023C780.976 5.87889 780.976 5.87755 780.976 5.87621C780.976 5.87487 780.976 5.87353 780.976 5.87218C780.976 5.87084 780.976 5.86949 780.976 5.86815C780.976 5.8668 780.976 5.86546 780.976 5.86411C780.976 5.86276 780.976 5.86141 780.976 5.86007C780.976 5.85872 780.976 5.85737 780.976 5.85602C780.976 5.85467 780.976 5.85331 780.976 5.85196C780.976 5.85061 780.976 5.84926 780.976 5.8479C780.976 5.84655 780.976 5.84519 780.976 5.84384C780.976 5.84248 780.976 5.84113 780.976 5.83977C780.976 5.83841 780.976 5.83706 780.976 5.8357C780.976 5.83434 780.976 5.83298 780.976 5.83162C780.976 5.83026 780.976 5.8289 780.976 5.82753C780.976 5.82617 780.976 5.82481 780.976 5.82344C780.976 5.82208 780.976 5.82071 780.976 5.81935C780.976 5.81798 780.976 5.81662 780.976 5.81525C780.976 5.81388 780.976 5.81251 780.976 5.81115C780.976 5.80978 780.976 5.80841 780.976 5.80704C780.976 5.80567 780.976 5.80429 780.976 5.80292C780.976 5.80155 780.976 5.80018 780.976 5.7988C780.976 5.79743 780.976 5.79605 780.976 5.79468C780.976 5.7933 780.976 5.79193 780.976 5.79055C780.976 5.78917 780.976 5.78779 780.976 5.78641C780.976 5.78503 780.976 5.78365 780.976 5.78227C780.976 5.78089 780.976 5.77951 780.976 5.77813C780.976 5.77675 780.976 5.77536 780.976 5.77398C780.976 5.7726 780.976 5.77121 780.976 5.76983C780.976 5.76844 780.976 5.76705 780.976 5.76567C780.976 5.76428 780.976 5.76289 780.976 5.7615C780.976 5.76011 780.976 5.75872 780.976 5.75733C780.976 5.75594 780.976 5.75455 780.976 5.75316C780.976 5.75176 780.976 5.75037 780.976 5.74898C780.976 5.74758 780.976 5.74619 780.976 5.74479C780.976 5.7434 780.976 5.742 780.976 5.7406C780.976 5.7392 780.976 5.73781 780.976 5.73641C780.976 5.73501 780.976 5.73361 780.976 5.73221C780.976 5.73081 780.976 5.7294 780.976 5.728C780.976 5.7266 780.976 5.7252 780.976 5.72379C780.976 5.72239 780.976 5.72098 780.976 5.71958C780.976 5.71817 780.976 5.71676 780.976 5.71536C780.976 5.71395 780.976 5.71254 780.976 5.71113C780.976 5.70972 780.976 5.70831 780.976 5.7069C780.976 5.70549 780.976 5.70408 780.976 5.70266C780.976 5.70125 780.976 5.69984 780.976 5.69842C780.976 5.69701 780.976 5.6956 780.976 5.69418C780.976 5.69276 780.976 5.69135 780.976 5.68993C780.976 5.68851 780.976 5.68709 780.976 5.68567C780.976 5.68425 780.976 5.68283 780.976 5.68141C780.976 5.67999 780.976 5.67857 780.976 5.67715C780.976 5.67572 780.976 5.6743 780.976 5.67288C780.976 5.67145 780.976 5.67003 780.976 5.6686C780.976 5.66718 780.976 5.66575 780.976 5.66432C780.976 5.66289 780.976 5.66146 780.976 5.66004C780.976 5.65861 780.976 5.65718 780.976 5.65574C780.976 5.65431 780.976 5.65288 780.976 5.65145C780.976 5.65002 780.976 5.64858 780.976 5.64715C780.976 5.64571 780.976 5.64428 780.976 5.64284C780.976 5.64141 780.976 5.63997 780.976 5.63853C780.976 5.63709 780.976 5.63566 780.976 5.63422C780.976 5.63278 780.976 5.63134 780.976 5.62989C780.976 5.62845 780.976 5.62701 780.976 5.62557C780.976 5.62413 780.976 5.62268 780.976 5.62124C780.976 5.61979 780.976 5.61835 780.976 5.6169C780.976 5.61546 780.976 5.61401 780.976 5.61256C780.976 5.61111 780.976 5.60966 780.976 5.60821C780.976 5.60677 780.976 5.60531 780.976 5.60386C780.976 5.60241 780.976 5.60096 780.976 5.59951C780.976 5.59805 780.976 5.5966 780.976 5.59515C780.976 5.59369 780.976 5.59224 780.976 5.59078C780.976 5.58932 780.976 5.58787 780.976 5.58641C780.976 5.58495 780.976 5.58349 780.976 5.58203C780.976 5.58057 780.976 5.57911 780.976 5.57765C780.976 5.57619 780.976 5.57473 780.976 5.57327C780.976 5.5718 780.976 5.57034 780.976 5.56887C780.976 5.56741 780.976 5.56594 780.976 5.56448C780.976 5.56301 780.976 5.56154 780.976 5.56008C780.976 5.55861 780.976 5.55714 780.976 5.55567C780.976 5.5542 780.976 5.55273 780.976 5.55126C780.976 5.54979 780.976 5.54831 780.976 5.54684C780.976 5.54537 780.976 5.54389 780.976 5.54242C780.976 5.54095 780.976 5.53947 780.976 5.53799C780.976 5.53652 780.976 5.53504 780.976 5.53356C780.976 5.53208 780.976 5.5306 780.976 5.52912C780.976 5.52764 780.976 5.52616 780.976 5.52468C780.976 5.5232 780.976 5.52172 780.976 5.52024C780.976 5.51875 780.976 5.51727 780.976 5.51578C780.976 5.5143 780.976 5.51281 780.976 5.51133C780.976 5.50984 780.976 5.50835 780.976 5.50687C780.976 5.50538 780.976 5.50389 780.976 5.5024C780.976 5.50091 780.976 5.49942 780.976 5.49793C780.976 5.49644 780.976 5.49494 780.976 5.49345C780.976 5.49196 780.976 5.49046 780.976 5.48897C780.976 5.48747 780.976 5.48598 780.976 5.48448C780.976 5.48298 780.976 5.48149 780.976 5.47999C780.976 5.47849 780.976 5.47699 780.976 5.47549C780.976 5.47399 780.976 5.47249 780.976 5.47099C780.976 5.46949 780.976 5.46799 780.976 5.46648C780.976 5.46498 780.976 5.46348 780.976 5.46197C780.976 5.46047 780.976 5.45896 780.976 5.45745C780.976 5.45595 780.976 5.45444 780.976 5.45293C780.976 5.45142 780.976 5.44991 780.976 5.4484C780.976 5.44689 780.976 5.44538 780.976 5.44387C780.976 5.44236 780.976 5.44085 780.976 5.43933C780.976 5.43782 780.976 5.43631 780.976 5.43479C780.976 5.43328 780.976 5.43176 780.976 5.43024C780.976 5.42873 780.976 5.42721 780.976 5.42569C780.976 5.42417 780.976 5.42265 780.976 5.42113C780.976 5.41961 780.976 5.41809 780.976 5.41657C780.976 5.41505 780.976 5.41353 780.976 5.412C780.976 5.41048 780.976 5.40896 780.976 5.40743C780.976 5.40591 780.976 5.40438 780.976 5.40285C780.976 5.40133 780.976 5.3998 780.976 5.39827C780.976 5.39674 780.976 5.39521 780.976 5.39368C780.976 5.39215 780.976 5.39062 780.976 5.38909C780.976 5.38756 780.976 5.38603 780.976 5.38449C780.976 5.38296 780.976 5.38142 780.976 5.37989C780.976 5.37835 780.976 5.37682 780.976 5.37528C780.976 5.37374 780.976 5.37221 780.976 5.37067C780.976 5.36913 780.976 5.36759 780.976 5.36605C780.976 5.36451 780.976 5.36297 780.976 5.36143C780.976 5.35989 780.976 5.35834 780.976 5.3568C780.976 5.35526 780.976 5.35371 780.976 5.35217C780.976 5.35062 780.976 5.34907 780.976 5.34753H779.976ZM779.976 7.06353H778.976C778.976 8.63277 778.397 11.7573 777.16 16.5487C775.934 21.2984 774.092 27.5827 771.631 35.4074L772.584 35.7075L773.538 36.0076C776.005 28.1684 777.858 21.8466 779.097 17.0484C780.324 12.2918 780.976 8.9263 780.976 7.06353H779.976ZM772.584 35.7075L771.629 35.4123C766.796 51.0551 761.7 65.6832 756.342 79.2973L757.272 79.6635L758.203 80.0297C763.581 66.3639 768.693 51.688 773.54 36.0027L772.584 35.7075ZM757.272 79.6635L756.342 79.2973C753.662 86.1081 751.444 91.1835 749.687 94.5454C748.806 96.2312 748.061 97.4477 747.45 98.2294C747.144 98.6215 746.899 98.8699 746.714 99.012C746.517 99.1639 746.483 99.1235 746.58 99.1235V100.124V101.124C747.118 101.124 747.58 100.87 747.936 100.596C748.304 100.312 748.668 99.9205 749.027 99.4601C749.748 98.5369 750.559 97.1958 751.46 95.4717C753.267 92.0136 755.515 86.859 758.203 80.0297L757.272 79.6635ZM785.2 91.1475L784.286 91.5537L784.304 91.5943L784.326 91.6332L785.2 91.1475ZM784.672 87.8475L783.723 87.5313L783.672 87.6853V87.8475H784.672ZM788.632 84.1515L788.108 83.2999L788.108 83.2999L788.632 84.1515ZM799.06 78.6075L798.622 77.7083L798.619 77.7097L799.06 78.6075ZM815.428 69.7635L814.908 68.909L814.901 68.9136L815.428 69.7635ZM825.196 61.1835L826.024 61.7438L826.759 60.6578L825.517 60.2366L825.196 61.1835ZM799.456 50.6235L799 51.5136L799.004 51.5158L799.456 50.6235ZM787.444 39.9315L788.418 39.7067L788.407 39.6604L788.392 39.6153L787.444 39.9315ZM787.972 36.6315L787.204 35.9913L787.204 35.9913L787.972 36.6315ZM793.648 36.7635L793.111 37.6072L793.127 37.6176L793.144 37.6273L793.648 36.7635ZM797.08 39.5355L796.373 40.2426L796.389 40.2587L796.405 40.274L797.08 39.5355ZM802.228 43.2315L801.827 44.1478L801.84 44.1532L802.228 43.2315ZM809.752 46.9275L809.286 47.8125L809.291 47.8153L809.752 46.9275ZM832.06 55.5075L832.396 54.5658L832.297 54.5306L832.194 54.5165L832.06 55.5075ZM834.304 57.3555L833.355 57.6718L833.378 57.7392L833.409 57.8027L834.304 57.3555ZM834.7 60.1275L833.703 60.0508L833.702 60.0629L833.701 60.075L834.7 60.1275ZM824.932 72.7995L825.558 73.5793L825.559 73.5783L824.932 72.7995ZM803.944 86.3955L804.403 87.2838L804.407 87.2818L803.944 86.3955ZM787.84 92.3355V91.3355C786.699 91.3355 786.263 91.003 786.074 90.6619L785.2 91.1475L784.326 91.6332C785.016 92.8761 786.34 93.3355 787.84 93.3355V92.3355ZM785.2 91.1475L786.114 90.7414C785.843 90.1326 785.672 89.1925 785.672 87.8475H784.672H783.672C783.672 89.3185 783.852 90.5785 784.286 91.5537L785.2 91.1475ZM784.672 87.8475L785.62 88.1638C785.721 87.8634 786.002 87.428 786.608 86.8626C787.202 86.3081 788.044 85.6875 789.156 85.0032L788.632 84.1515L788.108 83.2999C786.932 84.0236 785.969 84.723 785.243 85.4005C784.529 86.0671 783.975 86.7757 783.723 87.5313L784.672 87.8475ZM788.632 84.1515L789.156 85.0032C791.402 83.6208 794.844 81.7897 799.5 79.5053L799.06 78.6075L798.619 77.7097C793.948 80.0014 790.437 81.8662 788.108 83.2999L788.632 84.1515ZM799.06 78.6075L799.497 79.5068C806.029 76.3292 811.517 73.3649 815.955 70.6134L815.428 69.7635L814.901 68.9136C810.539 71.6182 805.115 74.5498 798.622 77.7083L799.06 78.6075ZM815.428 69.7635L815.947 70.6181C820.507 67.8466 823.891 64.8964 826.024 61.7438L825.196 61.1835L824.367 60.6232C822.452 63.4547 819.325 66.2245 814.908 68.909L815.428 69.7635ZM825.196 61.1835L825.517 60.2366C815.694 56.9039 807.16 53.4012 799.907 49.7313L799.456 50.6235L799.004 51.5158C806.36 55.2379 814.985 58.7752 824.874 62.1305L825.196 61.1835ZM799.456 50.6235L799.912 49.7335C796.345 47.9066 793.621 46.1363 791.706 44.4316C789.783 42.7198 788.749 41.1404 788.418 39.7067L787.444 39.9315L786.469 40.1564C786.93 42.1547 788.295 44.0732 790.376 45.9255C792.465 47.7847 795.351 49.6445 799 51.5136L799.456 50.6235ZM787.444 39.9315L788.392 39.6153C788.357 39.5076 788.312 39.2423 788.312 38.7435H787.312H786.312C786.312 39.3007 786.355 39.8274 786.495 40.2478L787.444 39.9315ZM787.312 38.7435H788.312C788.312 38.0305 788.488 37.5745 788.74 37.2717L787.972 36.6315L787.204 35.9913C786.576 36.7445 786.312 37.6965 786.312 38.7435H787.312ZM787.972 36.6315L788.74 37.2717C788.939 37.0327 789.279 36.8395 789.952 36.8395V35.8395V34.8395C788.865 34.8395 787.884 35.1743 787.204 35.9913L787.972 36.6315ZM789.952 35.8395V36.8395C791.314 36.8395 792.345 37.12 793.111 37.6072L793.648 36.7635L794.185 35.9199C793.014 35.175 791.581 34.8395 789.952 34.8395V35.8395ZM793.648 36.7635L793.144 37.6273C794.102 38.186 795.178 39.0479 796.373 40.2426L797.08 39.5355L797.787 38.8284C796.518 37.5591 795.306 36.573 794.152 35.8998L793.648 36.7635ZM797.08 39.5355L796.405 40.274C798.457 42.1475 800.269 43.4662 801.827 44.1477L802.228 43.2315L802.629 42.3154C801.37 41.7649 799.75 40.6196 797.754 38.797L797.08 39.5355ZM802.228 43.2315L801.84 44.1532C803.47 44.8396 805.946 46.0548 809.286 47.8125L809.752 46.9275L810.217 46.0426C806.869 44.2803 804.33 43.0315 802.616 42.3099L802.228 43.2315ZM809.752 46.9275L809.291 47.8153C814.059 50.2875 818.18 52.2377 821.648 53.6607L822.028 52.7355L822.407 51.8104C819.012 50.4174 814.948 48.4955 810.212 46.0398L809.752 46.9275ZM822.028 52.7355L821.648 53.6607C825.149 55.0969 828.575 56.0458 831.926 56.4985L832.06 55.5075L832.194 54.5165C829.032 54.0893 825.771 53.1901 822.407 51.8104L822.028 52.7355ZM832.06 55.5075L831.723 56.4493C832.832 56.8451 833.233 57.3051 833.355 57.6718L834.304 57.3555L835.252 57.0393C834.847 55.822 833.752 55.0499 832.396 54.5658L832.06 55.5075ZM834.304 57.3555L833.409 57.8027C833.651 58.2868 833.783 59.0099 833.703 60.0508L834.7 60.1275L835.697 60.2042C835.793 58.9572 835.66 57.8322 835.198 56.9083L834.304 57.3555ZM834.7 60.1275L833.701 60.075C833.628 61.4566 832.905 63.1542 831.334 65.193C829.772 67.2192 827.44 69.4953 824.304 72.0208L824.932 72.7995L825.559 73.5783C828.76 70.9998 831.224 68.6119 832.918 66.414C834.602 64.2289 835.595 62.1425 835.698 60.1801L834.7 60.1275ZM824.932 72.7995L824.306 72.0197C818.113 76.9916 811.172 81.4887 803.48 85.5093L803.944 86.3955L804.407 87.2818C812.203 83.2063 819.255 78.6395 825.558 73.5793L824.932 72.7995ZM803.944 86.3955L803.484 85.5073C799.677 87.4768 796.461 88.9418 793.83 89.9123C791.178 90.8903 789.2 91.3355 787.84 91.3355V92.3355V93.3355C789.559 93.3355 791.805 92.7908 794.522 91.7887C797.259 90.7792 800.555 89.2743 804.403 87.2838L803.944 86.3955Z" fill="white" mask="url(#path-17-outside-2_73_207)"/>
</svg>
