<svg width="837" height="118" viewBox="0 0 837 118" fill="none" xmlns="http://www.w3.org/2000/svg">
<path d="M90.7096 13.5206C89.8496 14.4606 89.3196 15.4906 89.0896 18.1606C88.8596 20.8306 89.2796 22.6806 89.5696 26.8606C89.8596 31.0506 90.0796 33.8906 90.5196 39.0806C90.9596 44.2706 91.3096 47.3906 91.7896 52.8106C92.2596 58.2306 92.4296 61.1406 92.8896 66.2006C93.3596 71.2606 93.6996 73.7806 94.0996 78.1106C94.4996 82.4406 94.5896 84.4406 94.8996 87.8506C95.2196 91.2506 95.2096 92.8506 95.6796 95.1106C96.1496 97.3806 96.5096 98.1406 97.2496 99.1706C97.9896 100.211 98.4996 100.451 99.3796 100.291C100.26 100.131 101.08 99.7806 101.66 98.3506C102.23 96.9206 102.69 95.9206 102.24 93.1506C101.79 90.3906 100.48 88.5006 99.4096 84.5406C98.3396 80.5706 97.8496 78.0706 96.8996 73.3306C95.9396 68.6006 95.5596 65.9406 94.6396 60.8706C93.7296 55.8006 93.2196 52.8706 92.3196 47.9706C91.4196 43.0806 90.9496 40.7406 90.1596 36.4006C89.3696 32.0606 88.9696 29.7906 88.3696 26.2606C87.7696 22.7306 87.7696 20.8606 87.1796 18.7406C86.5996 16.6206 85.9096 15.8906 85.4396 15.6706C84.9696 15.4406 84.2996 16.0306 84.8096 17.6306C85.3196 19.2306 86.0796 20.6406 87.9696 23.6706C89.8696 26.7006 91.5696 28.7906 94.2896 32.7706C97.0096 36.7506 98.5396 39.2706 101.56 43.5606C104.57 47.8506 106.19 50.1706 109.37 54.2206C112.55 58.2806 114.31 60.2506 117.47 63.8506C120.64 67.4506 122.19 69.1606 125.18 72.2306C128.16 75.3106 129.67 76.7606 132.41 79.2106C135.14 81.6606 136.37 82.8906 138.86 84.4806C141.35 86.0606 142.58 86.5506 144.85 87.1406C147.12 87.7306 148.24 87.9006 150.21 87.4406C152.19 86.9806 153.23 86.4006 154.72 84.8406C156.21 83.2806 156.92 82.2606 157.67 79.6406C158.42 77.0206 158.29 75.3506 158.47 71.7406C158.64 68.1306 158.58 65.8106 158.55 61.5906C158.51 57.3606 158.4 54.8706 158.3 50.6206C158.19 46.3706 158.13 44.0706 158.03 40.3306C157.92 36.6006 158.02 34.8606 157.75 31.9606C157.49 29.0706 157.04 27.8606 156.7 25.8706C156.36 23.8806 156.37 23.1206 156.06 22.0106C155.74 20.9006 155.41 20.8106 155.14 20.3406C154.86 19.8606 155 19.9206 154.7 19.6406C154.39 19.3706 154.11 18.9406 153.62 18.9606C153.13 18.9806 152.75 19.1006 152.25 19.7406C151.75 20.3706 151.36 20.7706 151.11 22.1306C150.86 23.4806 150.86 24.4106 150.98 26.5106C151.1 28.6106 151.35 29.7906 151.7 32.6106C152.05 35.4406 152.43 37.0006 152.72 40.6206C153.01 44.2406 153.09 46.5606 153.14 50.7206C153.19 54.8806 153.23 57.3506 152.98 61.4406C152.72 65.5206 152.32 67.8106 151.87 71.1506C151.43 74.4906 151.03 76.0006 150.75 78.1506C150.48 80.3006 150.77 80.9306 150.5 81.8806C150.23 82.8406 150.18 82.9006 149.42 82.9206C148.65 82.9306 148.13 82.7006 146.66 81.9806C145.2 81.2606 144.29 80.6506 142.09 79.3006C139.88 77.9606 138.39 77.3206 135.62 75.2706C132.86 73.2306 131.29 71.9006 128.27 69.0806C125.24 66.2606 123.65 64.6106 120.49 61.1506C117.34 57.6906 115.58 55.7806 112.5 51.7906C109.42 47.8006 107.85 45.5506 105.09 41.2006C102.33 36.8506 101.03 34.2506 98.6896 30.0506C96.3596 25.8506 95.4396 23.3306 93.3896 20.2006C91.3496 17.0706 90.3896 15.5606 88.4696 14.4106C86.5496 13.2606 85.1696 13.4606 83.7896 14.4406C82.4196 15.4306 81.6896 16.7606 81.5996 19.3306C81.5096 21.9006 82.4796 23.7006 83.3396 27.2906C84.2096 30.8806 84.9296 32.9906 85.9196 37.2806C86.9196 41.5606 87.3996 43.8606 88.3196 48.7206C89.2496 53.5706 89.7596 56.4806 90.5496 61.5606C91.3296 66.6306 91.6796 69.2706 92.2596 74.0806C92.8396 78.8806 93.0996 81.4506 93.4396 85.5806C93.7896 89.7106 93.3696 91.9706 93.9796 94.7406C94.5796 97.5006 95.3996 98.2306 96.4796 99.3806C97.5596 100.521 98.4196 100.641 99.3896 100.471C100.35 100.301 100.91 99.7906 101.3 98.5406C101.68 97.2906 101.57 96.4906 101.31 94.2106C101.06 91.9406 100.62 90.4806 100.03 87.1606C99.4396 83.8306 99.0096 81.8606 98.3696 77.5906C97.7296 73.3206 97.3396 70.8306 96.8296 65.8206C96.3096 60.8006 96.1396 57.9006 95.7996 52.5106C95.4496 47.1106 95.2396 43.9906 95.0896 38.8206C94.9396 33.6606 95.0496 30.8406 95.0596 26.6906C95.0796 22.5306 95.5096 20.6806 95.1696 18.0306C94.8296 15.3906 94.2496 14.3706 93.3596 13.4706C92.4696 12.5706 91.5596 12.5906 90.7096 13.5206Z" fill="black" stroke="black"/>
<path d="M187.281 57.3303C186.451 57.9403 186.031 58.5104 185.661 60.1904C185.301 61.8704 185.191 63.2204 185.451 65.7304C185.701 68.2404 186.091 69.9304 186.931 72.7304C187.771 75.5304 188.531 77.2704 189.661 79.7304C190.781 82.1804 191.411 83.3703 192.571 85.0103C193.731 86.6403 194.411 87.1603 195.471 87.8903C196.531 88.6303 196.921 88.6604 197.871 88.6804C198.811 88.7004 199.641 88.4104 200.191 88.0004C200.741 87.5804 201.131 86.9803 200.621 86.5903C200.101 86.2003 198.191 86.1004 197.611 86.0604C197.041 86.0204 197.481 86.3603 197.731 86.4003C197.981 86.4503 198.601 86.5503 198.871 86.2803C199.151 86.0203 199.231 85.9103 199.101 85.1003C198.971 84.2903 198.641 83.8104 198.211 82.2304C197.791 80.6404 197.531 79.5203 196.981 77.1603C196.421 74.8003 196.061 73.0604 195.421 70.4204C194.791 67.7904 194.541 66.2204 193.821 64.0004C193.091 61.7804 192.601 60.6804 191.791 59.3104C190.991 57.9404 190.711 57.5403 189.811 57.1403C188.911 56.7503 188.111 56.7203 187.281 57.3303Z" fill="black" stroke="black"/>
<path d="M184.589 38.4806C185.449 37.8106 185.739 37.0806 185.619 37.1706C185.509 37.2606 184.509 38.5006 184.019 38.9506C183.529 39.4106 183.529 39.8306 183.179 39.4406C182.829 39.0506 182.789 37.3306 182.269 37.0006C181.759 36.6706 181.189 37.0906 180.609 37.8006C180.039 38.5006 179.279 39.9706 179.409 40.5206C179.539 41.0706 180.249 40.9506 181.279 40.5506C182.319 40.1406 183.719 39.1606 184.589 38.4806Z" fill="black" stroke="black"/>
<path d="M240.309 53.9905C239.899 53.0705 239.369 52.5404 237.979 52.2004C236.589 51.8604 235.359 51.6404 233.359 52.2704C231.349 52.9004 229.999 53.6205 227.949 55.3405C225.909 57.0705 224.839 58.3804 223.139 60.8904C221.439 63.4004 220.559 65.0104 219.459 67.8904C218.349 70.7604 217.789 72.4104 217.619 75.2704C217.449 78.1304 217.669 79.7805 218.619 82.1905C219.559 84.6105 220.409 85.6605 222.339 87.3505C224.269 89.0505 225.449 89.9505 228.279 90.6805C231.099 91.4005 233.019 91.3405 236.449 90.9705C239.869 90.5905 241.749 90.0505 245.389 88.8105C249.029 87.5805 251.009 86.7705 254.639 84.7905C258.259 82.8205 260.289 81.7304 263.509 78.9504C266.739 76.1704 268.279 74.4905 270.759 70.9105C273.239 67.3205 274.299 65.0905 275.909 61.0405C277.519 56.9805 278.099 54.7304 278.829 50.6304C279.559 46.5404 279.569 44.3305 279.539 40.5505C279.509 36.7705 279.389 34.8205 278.679 31.7305C277.969 28.6505 277.409 27.1905 275.989 25.1205C274.559 23.0605 273.459 21.9905 271.559 21.4005C269.659 20.8205 268.159 20.9804 266.489 22.2004C264.809 23.4204 263.849 24.7905 263.179 27.5005C262.499 30.2205 262.729 32.1104 263.129 35.7704C263.519 39.4404 264.149 41.8304 265.139 45.8304C266.129 49.8304 266.789 52.0504 268.079 55.7704C269.379 59.4904 270.159 61.2305 271.599 64.4105C273.039 67.5905 273.699 69.2105 275.289 71.6705C276.879 74.1405 277.889 75.2205 279.539 76.7405C281.179 78.2605 282.249 78.8205 283.529 79.2805C284.819 79.7505 285.359 79.3604 285.969 79.0804C286.579 78.8004 286.539 78.4405 286.579 77.8705C286.619 77.3005 286.649 77.2905 286.179 76.2305C285.709 75.1805 285.359 74.2405 284.249 72.6105C283.129 70.9805 282.119 70.2205 280.599 68.0905C279.089 65.9605 278.139 64.7704 276.669 61.9504C275.199 59.1304 274.409 57.4704 273.249 54.0104C272.099 50.5404 271.519 48.3705 270.879 44.6205C270.249 40.8705 270.189 38.5104 270.079 35.2604C269.969 32.0204 270.389 30.5005 270.319 28.4005C270.249 26.3005 269.879 25.4805 269.729 24.7805C269.579 24.0705 269.339 24.2504 269.559 24.8804C269.779 25.5204 270.209 26.2904 270.829 27.9504C271.459 29.6204 271.999 30.6404 272.679 33.2104C273.349 35.7704 273.939 37.4404 274.199 40.7604C274.459 44.0904 274.509 46.1405 273.969 49.8405C273.429 53.5505 272.909 55.6305 271.489 59.3005C270.069 62.9705 269.089 65.0105 266.859 68.1905C264.629 71.3705 263.279 72.8005 260.349 75.1805C257.419 77.5605 255.559 78.5005 252.229 80.0905C248.899 81.6805 246.979 82.3204 243.709 83.1404C240.429 83.9604 238.649 84.0005 235.829 84.1905C233.009 84.3805 231.599 84.3505 229.609 84.0905C227.629 83.8405 227.009 83.6805 225.919 82.9305C224.819 82.1805 224.459 81.6905 224.129 80.3405C223.809 78.9905 223.829 78.0405 224.299 76.1705C224.769 74.3005 225.369 73.1205 226.479 71.0005C227.589 68.8705 228.479 67.4705 229.849 65.5405C231.229 63.6005 232.079 62.5905 233.359 61.3105C234.629 60.0305 235.219 59.7604 236.219 59.1404C237.219 58.5104 237.559 58.6704 238.329 58.2004C239.099 57.7304 239.659 57.6305 240.059 56.7905C240.449 55.9505 240.729 54.9105 240.309 53.9905Z" fill="black" stroke="black"/>
<path d="M299.868 65.7798C300.638 65.1198 300.998 64.4698 300.718 63.5898C300.438 62.7098 299.748 61.9698 298.478 61.3698C297.208 60.7698 295.998 60.3298 294.348 60.5798C292.708 60.8398 291.528 61.4498 290.248 62.6598C288.968 63.8698 288.488 64.8498 287.958 66.6298C287.418 68.4098 287.258 69.5898 287.578 71.5498C287.908 73.5198 288.328 74.7398 289.588 76.4598C290.848 78.1898 291.878 78.9998 293.868 80.1898C295.858 81.3798 297.118 81.7498 299.528 82.4098C301.938 83.0598 303.308 83.1998 305.928 83.4598C308.538 83.7198 309.998 83.7898 312.608 83.6998C315.228 83.5998 316.638 83.6398 318.978 82.9698C321.328 82.2998 323.378 81.5098 324.348 80.3498C325.318 79.1898 325.058 77.9798 323.838 77.1698C322.618 76.3698 320.478 76.4698 318.228 76.3198C315.978 76.1698 314.868 76.4998 312.578 76.4298C310.278 76.3498 308.988 76.2398 306.758 75.9598C304.528 75.6698 303.328 75.4698 301.428 75.0198C299.528 74.5698 298.618 74.2498 297.258 73.6898C295.908 73.1298 295.288 72.7798 294.648 72.2298C293.998 71.6898 293.948 71.5198 294.048 70.9698C294.148 70.4198 294.738 70.0798 295.148 69.4998C295.558 68.9198 295.838 68.4998 296.088 68.0498C296.338 67.6098 296.478 67.4798 296.398 67.2698C296.308 67.0498 295.898 67.0298 295.668 66.9598C295.438 66.8798 295.008 66.9098 295.248 66.8798C295.488 66.8598 295.938 67.0698 296.868 66.8498C297.788 66.6298 299.098 66.4298 299.868 65.7798Z" fill="black" stroke="black"/>
<path d="M405.629 31.1397C405.179 30.1797 404.439 29.7897 403.029 29.2597C401.609 28.7197 400.759 28.4197 398.539 28.4797C396.319 28.5497 394.599 28.5697 391.939 29.5697C389.279 30.5797 387.949 31.6098 385.239 33.4998C382.539 35.3898 381.209 36.5097 378.419 39.0197C375.629 41.5297 373.829 42.9797 371.309 46.0397C368.789 49.1097 367.489 50.9597 365.809 54.3597C364.139 57.7497 363.349 59.6197 362.939 63.0197C362.519 66.4097 362.669 68.3097 363.749 71.3497C364.819 74.3897 365.829 75.9897 368.299 78.2197C370.779 80.4497 372.609 81.1397 376.119 82.4897C379.629 83.8297 381.689 84.2898 385.859 84.9398C390.029 85.5898 392.489 85.6497 396.969 85.7297C401.439 85.7997 403.879 85.7298 408.249 85.3098C412.609 84.8898 414.859 84.5598 418.809 83.6198C422.749 82.6898 424.879 82.1297 427.949 80.6297C431.029 79.1397 432.399 77.8997 434.169 76.1297C435.949 74.3597 436.609 72.9997 436.829 71.7897C437.059 70.5797 436.449 70.0397 435.289 70.0797C434.119 70.1197 432.989 70.9097 431.019 71.9897C429.049 73.0797 428.109 74.1597 425.419 75.5197C422.719 76.8797 421.069 77.7797 417.549 78.7997C414.019 79.8097 411.869 80.1597 407.779 80.5697C403.689 80.9897 401.299 81.0197 397.099 80.8597C392.899 80.6897 390.529 80.5097 386.759 79.7697C382.999 79.0297 381.149 78.3797 378.269 77.1497C375.389 75.9197 374.169 75.1798 372.369 73.6198C370.559 72.0698 369.969 71.3597 369.259 69.3797C368.549 67.4097 368.479 66.2597 368.809 63.7597C369.139 61.2597 369.549 59.6798 370.929 56.8698C372.299 54.0598 373.409 52.3597 375.679 49.7197C377.959 47.0797 379.659 45.7197 382.309 43.6597C384.969 41.5997 386.509 40.7597 388.949 39.4197C391.399 38.0897 392.469 37.6397 394.539 36.9697C396.619 36.3097 397.699 36.4397 399.339 36.0997C400.979 35.7497 401.569 35.6797 402.749 35.2697C403.939 34.8597 404.689 34.8597 405.259 34.0297C405.839 33.2097 406.069 32.0897 405.629 31.1397Z" fill="black" stroke="black"/>
<path d="M431.34 36.6202C430.6 37.7802 430.47 39.3102 430.51 41.9002C430.55 44.4902 430.94 46.1901 431.52 49.5701C432.1 52.9501 432.68 55.4602 433.42 58.7902C434.15 62.1202 434.47 63.6802 435.2 66.2402C435.94 68.7902 436.33 69.8702 437.1 71.5602C437.88 73.2502 438.15 73.8402 439.06 74.6802C439.96 75.5202 440.46 75.6302 441.62 75.7702C442.78 75.9002 443.58 75.9002 444.87 75.3502C446.16 74.7902 446.93 74.2802 448.06 72.9802C449.2 71.6702 449.55 70.4701 450.52 68.8201C451.5 67.1701 451.98 66.1002 452.94 64.7402C453.9 63.3702 454.39 62.6002 455.32 62.0002C456.26 61.4102 456.56 61.4402 457.63 61.7402C458.7 62.0502 459.37 62.6402 460.67 63.5402C461.96 64.4402 462.69 64.9902 464.09 66.2402C465.49 67.5002 466.2 68.4202 467.66 69.8102C469.13 71.2102 470.02 71.9402 471.43 73.2202C472.84 74.5102 473.43 75.1702 474.71 76.2202C475.99 77.2802 476.72 77.8502 477.83 78.4802C478.94 79.1002 479.47 79.1502 480.27 79.3502C481.07 79.5502 481.27 79.5402 481.82 79.4902C482.38 79.4402 482.66 79.5602 483.05 79.1002C483.44 78.6402 483.7 77.7802 483.77 77.2002C483.84 76.6202 483.59 76.6202 483.4 76.2102C483.21 75.8002 483.19 75.6702 482.81 75.1502C482.42 74.6402 482.19 74.4002 481.46 73.6402C480.73 72.8802 480.19 72.4302 479.16 71.3602C478.12 70.3002 477.53 69.6502 476.28 68.3102C475.02 66.9602 474.33 66.1801 472.86 64.6301C471.39 63.0801 470.69 62.0002 468.92 60.5602C467.15 59.1202 466.07 58.3802 464 57.4402C461.93 56.5002 460.75 56.0702 458.56 55.8602C456.36 55.6502 455.21 55.7102 453.03 56.3902C450.84 57.0702 449.6 57.7902 447.64 59.2502C445.67 60.7202 444.65 61.8902 443.2 63.7202C441.75 65.5502 441.05 66.7102 440.4 68.4202C439.74 70.1202 439.69 71.0902 439.91 72.2202C440.13 73.3602 440.92 73.9302 441.51 74.1102C442.09 74.2802 442.63 73.9102 442.82 73.0902C443.02 72.2602 442.71 71.6702 442.49 69.9802C442.28 68.3002 442.23 67.2002 441.75 64.6702C441.28 62.1502 440.8 60.6202 440.12 57.3502C439.44 54.0802 438.99 51.6301 438.34 48.3201C437.69 45.0101 437.71 43.2601 436.89 40.8201C436.07 38.3701 435.34 36.9302 434.23 36.0902C433.12 35.2502 432.08 35.4602 431.34 36.6202Z" fill="black" stroke="black"/>
<path d="M493.929 63.6402C493.009 64.4302 492.589 65.6802 492.369 67.4102C492.149 69.1502 492.469 70.3202 492.839 72.3002C493.199 74.2902 493.359 75.6602 494.189 77.3502C495.019 79.0402 495.789 79.9702 496.989 80.7502C498.199 81.5202 499.029 81.5402 500.209 81.2202C501.379 80.9002 502.169 80.3202 502.849 79.1502C503.529 77.9802 503.679 76.9702 503.589 75.3602C503.499 73.7502 502.989 72.7802 502.389 71.1002C501.799 69.4202 501.159 68.4802 500.609 66.9702C500.069 65.4702 499.899 64.6602 499.669 63.5702C499.449 62.4802 499.309 62.0602 499.489 61.5102C499.669 60.9702 499.819 60.9602 500.579 60.8502C501.339 60.7402 501.889 60.8302 503.299 60.9602C504.709 61.0902 505.619 61.1902 507.629 61.4902C509.629 61.7902 510.919 62.0202 513.319 62.4602C515.719 62.9002 517.159 63.2102 519.629 63.6802C522.099 64.1502 523.469 64.3102 525.659 64.8002C527.859 65.2802 528.839 65.5702 530.589 66.0902C532.329 66.6002 533.199 66.7902 534.369 67.3802C535.549 67.9602 535.759 68.2202 536.449 69.0002C537.129 69.7802 537.359 70.1802 537.799 71.2802C538.239 72.3702 538.189 73.0902 538.639 74.4902C539.089 75.8902 539.339 76.9402 540.059 78.2902C540.779 79.6302 541.289 80.3702 542.239 81.2202C543.189 82.0602 543.919 82.3202 544.809 82.5302C545.699 82.7302 546.219 82.5502 546.699 82.2202C547.189 81.8802 547.049 81.3202 547.209 80.8702C547.369 80.4202 547.369 80.5502 547.509 79.9602C547.649 79.3702 548.029 78.8902 547.919 77.9202C547.809 76.9502 547.459 76.3702 546.979 75.1002C546.499 73.8302 546.259 72.9902 545.509 71.5702C544.759 70.1502 544.249 69.3102 543.249 68.0102C542.249 66.7102 541.689 66.2202 540.509 65.0702C539.339 63.9302 538.919 63.3102 537.379 62.2802C535.839 61.2602 534.799 60.8002 532.809 59.9602C530.829 59.1302 529.769 58.8202 527.459 58.0902C525.159 57.3702 523.829 57.0002 521.299 56.3402C518.769 55.6702 517.369 55.2802 514.799 54.7502C512.239 54.2302 510.869 53.9102 508.469 53.7402C506.069 53.5602 504.889 53.5002 502.809 53.8702C500.729 54.2402 499.679 54.5602 498.079 55.5802C496.469 56.5902 495.749 57.3802 494.789 58.9302C493.819 60.4702 493.579 61.4202 493.229 63.3002C492.889 65.1802 492.959 66.2902 493.049 68.3302C493.149 70.3602 493.299 71.5402 493.689 73.4802C494.089 75.4102 494.189 76.6202 495.019 78.0002C495.849 79.3802 496.759 79.9302 497.839 80.4002C498.929 80.8602 499.569 80.7102 500.439 80.3202C501.309 79.9202 501.829 79.5302 502.169 78.4002C502.519 77.2802 502.449 76.3602 502.169 74.7002C501.889 73.0502 501.429 71.8002 500.779 70.1102C500.119 68.4202 499.669 67.5902 498.909 66.2602C498.149 64.9302 497.979 64.0002 496.989 63.4702C495.989 62.9502 494.859 62.8602 493.929 63.6402Z" fill="black" stroke="black"/>
<path d="M529.149 39.8905C528.559 40.4005 528.018 42.3106 528.008 43.0006C527.988 43.7006 528.408 44.5105 529.068 43.3505C529.728 42.1905 530.729 38.3905 531.329 37.2105C531.929 36.0305 532.138 36.7906 532.068 37.4406C531.998 38.0906 531.539 39.9705 530.959 40.4605C530.369 40.9505 529.739 39.3805 529.149 39.8905Z" fill="black" stroke="black"/>
<path d="M582.991 54.6197C582.461 53.7197 581.701 53.2796 580.311 52.9496C578.921 52.6196 577.921 52.6197 576.021 52.9697C574.111 53.3097 572.781 53.6597 570.791 54.6597C568.791 55.6597 567.591 56.4097 566.051 57.9897C564.511 59.5597 563.731 60.6097 563.071 62.5297C562.401 64.4397 562.181 65.5696 562.731 67.5796C563.271 69.5896 563.951 70.8096 565.781 72.5896C567.621 74.3696 569.131 75.1897 571.911 76.4997C574.701 77.7997 576.651 78.0596 579.721 79.1296C582.791 80.1996 584.551 80.9096 587.281 81.8296C590.011 82.7596 591.471 83.2096 593.361 83.7596C595.251 84.2996 596.001 84.4197 596.721 84.5497C597.441 84.6697 597.431 84.4697 596.971 84.3697C596.521 84.2697 595.891 83.9997 594.441 84.0597C592.981 84.1197 591.831 84.3097 589.691 84.6697C587.541 85.0397 586.141 85.4896 583.701 85.8896C581.261 86.2796 579.811 86.4796 577.491 86.6496C575.171 86.8096 573.901 86.8797 572.101 86.7197C570.301 86.5597 569.681 86.2497 568.491 85.8497C567.301 85.4497 567.031 85.1197 566.171 84.7197C565.311 84.3197 564.961 83.7697 564.181 83.8497C563.411 83.9197 562.561 84.2697 562.281 85.0997C562.001 85.9297 562.091 86.8096 562.791 88.0096C563.491 89.2196 564.151 90.0697 565.781 91.1097C567.401 92.1597 568.571 92.6597 570.921 93.2497C573.261 93.8497 574.771 93.9396 577.521 94.0796C580.261 94.2296 581.821 94.2097 584.651 93.9897C587.481 93.7697 589.151 93.7097 591.651 92.9797C594.161 92.2397 595.501 91.6397 597.191 90.3097C598.881 88.9797 599.571 88.0296 600.111 86.3396C600.651 84.6496 600.681 83.5596 599.891 81.8796C599.111 80.1996 598.201 79.3196 596.181 77.9596C594.151 76.5996 592.561 76.1896 589.781 75.0796C587.001 73.9696 585.171 73.5896 582.281 72.3896C579.401 71.1896 577.821 70.2196 575.351 69.0896C572.881 67.9496 571.561 67.4097 569.911 66.7397C568.261 66.0597 567.541 65.9796 567.091 65.6996C566.651 65.4196 566.991 65.6696 567.691 65.3296C568.401 64.9996 569.281 64.6197 570.611 64.0297C571.931 63.4397 572.751 62.9997 574.321 62.3697C575.891 61.7497 577.061 61.5596 578.451 60.8896C579.841 60.2196 580.371 59.7297 581.281 59.0397C582.181 58.3397 582.621 58.2997 582.961 57.4097C583.301 56.5297 583.521 55.5097 582.991 54.6197Z" fill="black" stroke="black"/>
<path d="M603.97 45.2204C603.21 45.9504 602.88 46.6904 602.72 48.4704C602.56 50.2404 602.61 51.5704 603.18 54.1104C603.74 56.6404 604.57 58.2404 605.55 61.1404C606.52 64.0404 607.08 65.7304 608.06 68.6104C609.04 71.5004 609.55 73.1304 610.45 75.5604C611.36 78.0004 611.72 79.0504 612.59 80.7804C613.46 82.5104 614 83.2504 614.8 84.2104C615.61 85.1704 615.94 85.4304 616.64 85.5904C617.33 85.7604 617.83 85.6004 618.27 85.0404C618.72 84.4804 618.85 84.0304 618.88 82.7804C618.91 81.5204 618.8 80.6404 618.42 78.7604C618.05 76.8904 617.7 75.8604 617 73.4104C616.31 70.9604 615.72 69.4104 614.93 66.5104C614.15 63.6204 613.81 61.9004 613.08 58.9504C612.35 55.9904 612.16 54.1104 611.28 51.7204C610.39 49.3304 609.6 48.3704 608.65 46.9804C607.7 45.6004 607.47 45.1604 606.53 44.8104C605.6 44.4604 604.73 44.4904 603.97 45.2204Z" fill="black" stroke="black"/>
<path d="M602.849 74.7902C603.719 75.2102 604.149 74.9102 605.659 74.7502C607.179 74.5902 608.059 74.6101 610.409 74.0101C612.759 73.4001 614.309 72.5302 617.409 71.7202C620.519 70.9002 622.529 70.5302 625.959 69.9402C629.389 69.3402 631.439 69.1702 634.569 68.7502C637.689 68.3202 639.259 68.2201 641.569 67.8201C643.869 67.4101 644.859 66.9602 646.089 66.7202C647.319 66.4802 647.459 66.5302 647.709 66.6202C647.969 66.7202 647.769 66.6502 647.339 67.1902C646.909 67.7202 646.059 68.1202 645.559 69.3002C645.069 70.4702 644.909 71.5002 644.879 73.0502C644.849 74.6002 644.959 75.4502 645.409 77.0402C645.869 78.6302 646.099 79.6001 647.159 81.0101C648.219 82.4101 649.019 83.2701 650.709 84.0701C652.399 84.8801 653.599 85.0702 655.609 85.0302C657.619 84.9902 658.739 84.5902 660.759 83.8702C662.779 83.1602 663.749 82.6902 665.719 81.4702C667.679 80.2502 668.939 79.5002 670.589 77.7802C672.229 76.0602 673.009 74.9402 673.939 72.8702C674.859 70.8102 675.229 69.5902 675.209 67.4402C675.199 65.2902 674.939 63.9902 673.859 62.1402C672.779 60.2802 671.789 59.2902 669.819 58.1602C667.839 57.0302 666.419 56.6602 663.989 56.4802C661.549 56.2902 660.029 56.5202 657.639 57.2402C655.259 57.9502 653.989 58.6402 652.079 60.0502C650.169 61.4502 649.239 62.3902 648.109 64.2702C646.989 66.1502 646.559 67.4102 646.459 69.4602C646.359 71.5002 646.779 72.7902 647.599 74.4902C648.419 76.1902 649.219 77.1501 650.579 77.9501C651.939 78.7501 653.279 78.9102 654.389 78.5002C655.499 78.1002 656.029 77.0002 656.129 75.9202C656.239 74.8302 655.499 74.0102 654.909 73.0802C654.319 72.1502 653.719 71.9502 653.169 71.2702C652.629 70.5902 652.159 70.3602 652.169 69.6902C652.179 69.0202 652.459 68.6702 653.219 67.9202C653.969 67.1702 654.649 66.6401 655.949 65.9501C657.239 65.2701 658.139 64.8802 659.699 64.4702C661.269 64.0602 662.309 63.9802 663.779 63.9002C665.249 63.8302 666.049 63.8302 667.069 64.0902C668.079 64.3502 668.439 64.5702 668.869 65.1902C669.289 65.8002 669.369 66.2402 669.209 67.1502C669.049 68.0702 668.789 68.6902 668.059 69.7502C667.319 70.8102 666.799 71.4102 665.529 72.4402C664.269 73.4802 663.229 74.0402 661.739 74.9302C660.239 75.8102 659.439 76.2802 658.069 76.8702C656.699 77.4502 655.939 77.6002 654.899 77.8602C653.869 78.1302 653.479 78.2202 652.889 78.1802C652.299 78.1402 652.129 78.0302 651.939 77.6502C651.749 77.2802 651.739 77.0602 651.939 76.3102C652.129 75.5502 652.649 75.0602 652.899 73.8702C653.149 72.6902 653.309 71.8101 653.189 70.3801C653.059 68.9401 652.899 68.0702 652.279 66.7102C651.669 65.3402 651.289 64.5802 650.119 63.5502C648.939 62.5302 648.249 62.0002 646.389 61.5802C644.529 61.1602 643.359 61.2802 640.819 61.4402C638.279 61.6002 636.859 61.9602 633.699 62.4002C630.529 62.8402 628.559 63.1801 625.009 63.6301C621.459 64.0801 619.369 64.1302 615.959 64.6502C612.549 65.1802 610.539 65.2901 607.949 66.2601C605.359 67.2201 604.329 68.2002 602.999 69.4702C601.679 70.7502 601.349 71.5701 601.319 72.6301C601.289 73.7001 601.979 74.3702 602.849 74.7902Z" fill="black" stroke="black"/>
<path d="M702.54 50.2003C703.5 49.2903 704.09 47.9403 704.25 45.9503C704.42 43.9703 704.31 42.2504 703.37 40.2704C702.44 38.2904 701.42 37.0704 699.59 36.0604C697.77 35.0504 696.36 34.7004 694.26 35.2104C692.15 35.7204 690.71 36.4404 689.06 38.6104C687.4 40.7804 686.73 42.6004 685.97 46.0404C685.21 49.4704 685.22 51.7204 685.24 55.7804C685.25 59.8504 685.47 62.0804 686.04 66.3404C686.61 70.6104 687.12 73.0904 688.11 77.1104C689.1 81.1404 689.71 83.1804 691 86.4604C692.29 89.7404 693.21 91.1804 694.56 93.5204C695.91 95.8604 696.59 96.7804 697.75 98.1504C698.91 99.5204 699.52 99.7504 700.35 100.35C701.18 100.95 701.3 101.13 701.9 101.16C702.5 101.19 703.02 101.04 703.34 100.49C703.67 99.9404 703.73 99.4604 703.55 98.4004C703.36 97.3404 703.14 96.7804 702.41 95.1804C701.69 93.5904 701.17 92.6204 699.91 90.4304C698.66 88.2504 697.49 87.1904 696.13 84.2704C694.77 81.3504 694.08 79.5504 693.1 75.8404C692.12 72.1304 691.62 69.6804 691.21 65.7204C690.81 61.7704 690.72 59.6204 691.08 56.0404C691.43 52.4604 692.17 50.5903 692.98 47.8203C693.8 45.0603 694.53 43.8904 695.15 42.2104C695.77 40.5304 695.91 39.8904 696.07 39.4204C696.24 38.9504 696.02 39.1904 695.96 39.8604C695.91 40.5404 695.59 41.3504 695.8 42.8004C696.01 44.2504 696.29 45.5704 697.02 47.1104C697.75 48.6504 698.35 49.8804 699.46 50.4904C700.56 51.1104 701.58 51.1103 702.54 50.2003Z" fill="black" stroke="black"/>
<path d="M679.759 82.7098C680.549 83.3098 680.799 83.7698 683.029 83.6198C685.249 83.4698 687.039 82.8998 690.869 81.9598C694.709 81.0198 697.429 80.0398 702.199 78.9398C706.969 77.8398 710.019 77.3098 714.719 76.4498C719.409 75.5898 721.989 75.2198 725.669 74.6498C729.349 74.0698 730.859 74.1198 733.119 73.5698C735.389 73.0298 735.939 72.4998 737.009 71.9398C738.079 71.3698 738.199 71.2298 738.449 70.7498C738.709 70.2598 738.669 69.9198 738.289 69.5198C737.919 69.1198 737.779 68.9998 736.579 68.7398C735.379 68.4798 734.649 68.0498 732.289 68.2298C729.929 68.4098 728.469 68.9198 724.789 69.6398C721.109 70.3598 718.599 70.9798 713.879 71.8298C709.159 72.6798 706.069 73.0798 701.199 73.8898C696.329 74.6998 693.439 75.0798 689.509 75.8798C685.579 76.6898 683.649 76.9498 681.569 77.8998C679.489 78.8498 679.469 79.6498 679.099 80.6198C678.739 81.5798 678.979 82.1098 679.759 82.7098Z" fill="black" stroke="black"/>
<path d="M50.3285 87.884C48.9205 87.884 46.7645 87.356 43.8605 86.3C43.3325 86.124 42.7165 85.948 42.0125 85.772C41.3965 85.508 40.6045 85.244 39.6365 84.98C32.4205 82.868 24.5445 80.052 16.0085 76.532C7.47245 73.012 3.20445 69.668 3.20445 66.5C3.20445 64.476 3.82045 62.76 5.05245 61.352C12.8845 54.224 20.1885 48.812 26.9645 45.116C33.7405 41.332 41.6605 37.768 50.7245 34.424C52.0445 33.984 53.1445 34.38 54.0245 35.612C54.9045 36.844 55.3885 37.988 55.4765 39.044C53.1885 40.628 48.7885 43.048 42.2765 46.304C35.6765 49.472 30.0445 52.508 25.3805 55.412C20.8045 58.228 16.8005 61.528 13.3685 65.312C20.2325 68.832 26.7885 71.78 33.0365 74.156C39.2845 76.532 43.8605 77.852 46.7645 78.116C48.8765 78.292 50.5485 78.908 51.7805 79.964C53.1005 80.932 53.7605 82.252 53.7605 83.924C53.7605 85.244 53.4965 86.256 52.9685 86.96C52.4405 87.576 51.5605 87.884 50.3285 87.884Z" fill="black"/>
<path d="M746.631 99.9863C745.575 99.9863 744.695 99.5463 743.991 98.6663C743.287 97.6983 742.935 96.6863 742.935 95.6303C742.935 93.6943 743.727 90.7903 745.311 86.9183C746.983 82.9583 748.611 79.4383 750.195 76.3583L771.447 18.2783C771.623 16.8703 771.799 15.8583 771.975 15.2423C772.591 11.2823 773.251 8.07032 773.955 5.60632C774.747 3.14232 775.935 1.60232 777.519 0.98632C778.751 1.25032 779.499 1.82232 779.763 2.70232C780.027 3.49432 780.115 4.33032 780.027 5.21032C780.027 6.00232 780.027 6.57432 780.027 6.92632C780.027 10.3583 777.563 19.9063 772.635 35.5703C767.795 51.2343 762.691 65.8863 757.323 79.5263C751.955 93.1663 748.391 99.9863 746.631 99.9863ZM787.891 92.1983C786.571 92.1983 785.691 91.8023 785.251 91.0103C784.899 90.2183 784.723 89.1183 784.723 87.7103C785.075 86.6543 786.395 85.4223 788.683 84.0143C790.971 82.6063 794.447 80.7583 799.111 78.4703C805.623 75.3023 811.079 72.3543 815.479 69.6263C819.967 66.8983 823.223 64.0383 825.247 61.0463C815.391 57.7023 806.811 54.1823 799.507 50.4863C792.291 46.7903 788.287 43.2263 787.495 39.7943C787.407 39.5303 787.363 39.1343 787.363 38.6063C787.363 37.7263 787.583 37.0223 788.023 36.4943C788.463 35.9663 789.123 35.7023 790.003 35.7023C791.499 35.7023 792.731 36.0103 793.699 36.6263C794.755 37.2423 795.899 38.1663 797.131 39.3983C799.155 41.2463 800.871 42.4783 802.279 43.0943C803.951 43.7983 806.459 45.0303 809.803 46.7903C814.555 49.2543 818.647 51.1903 822.079 52.5983C825.511 54.0063 828.855 54.9303 832.111 55.3703C833.343 55.8103 834.091 56.4263 834.355 57.2183C834.707 57.9223 834.839 58.8463 834.751 59.9903C834.575 63.3343 831.319 67.5583 824.983 72.6623C818.735 77.6783 811.739 82.2103 803.995 86.2583C796.339 90.2183 790.971 92.1983 787.891 92.1983Z" fill="black"/>
</svg>
