<svg width="158" height="19" viewBox="0 0 158 19" fill="none" xmlns="http://www.w3.org/2000/svg">
<path d="M3.31138 1.60739C3.10733 1.78508 2.98157 1.97978 2.927 2.48449C2.87243 2.98919 2.97208 3.33889 3.04089 4.12903C3.1097 4.92106 3.1619 5.45789 3.2663 6.43895C3.3707 7.42 3.45375 8.00978 3.56764 9.03431C3.67916 10.0588 3.71949 10.6089 3.82864 11.5654C3.94016 12.5219 4.02084 12.9982 4.11575 13.8167C4.21065 14.6352 4.23201 15.0133 4.30556 15.6578C4.38149 16.3005 4.37912 16.603 4.49064 17.0302C4.60215 17.4593 4.68757 17.6029 4.86316 17.7976C5.03874 17.9942 5.15975 18.0396 5.36855 18.0094C5.57735 17.9791 5.77192 17.9129 5.90954 17.6426C6.04478 17.3723 6.15393 17.1833 6.04715 16.6597C5.94038 16.138 5.62955 15.7807 5.37567 15.0322C5.12179 14.2817 5.00552 13.8091 4.78011 12.9132C4.55233 12.0191 4.46216 11.5162 4.24387 10.5579C4.02795 9.5995 3.90694 9.04565 3.6934 8.11941C3.47985 7.19506 3.36833 6.75274 3.18088 5.93235C2.99344 5.11197 2.89853 4.68288 2.75616 4.01561C2.6138 3.34834 2.6138 2.99486 2.47381 2.59412C2.33619 2.19339 2.17247 2.05539 2.06095 2.01381C1.94943 1.97033 1.79046 2.08185 1.91147 2.3843C2.03248 2.68674 2.21281 2.95328 2.66125 3.52603C3.11207 4.09879 3.51544 4.49385 4.16083 5.24618C4.80621 5.99851 5.16924 6.47487 5.88581 7.2858C6.6 8.09673 6.98439 8.53527 7.73892 9.30083C8.49345 10.0683 8.91105 10.4407 9.66084 11.1212C10.413 11.8017 10.7808 12.1249 11.4902 12.7052C12.1973 13.2874 12.5556 13.5615 13.2057 14.0246C13.8535 14.4878 14.1453 14.7203 14.7361 15.0208C15.3269 15.3195 15.6188 15.4121 16.1574 15.5236C16.696 15.6352 16.9618 15.6673 17.4292 15.5803C17.899 15.4934 18.1458 15.3838 18.4993 15.0889C18.8528 14.794 19.0213 14.6012 19.1993 14.1059C19.3772 13.6107 19.3464 13.295 19.3891 12.6126C19.4294 11.9302 19.4152 11.4917 19.4081 10.694C19.3986 9.89438 19.3725 9.42371 19.3487 8.62034C19.3226 7.81697 19.3084 7.3822 19.2847 6.67523C19.2586 5.97016 19.2823 5.64125 19.2182 5.09307C19.1565 4.54678 19.0498 4.31806 18.9691 3.9419C18.8884 3.56573 18.8908 3.42206 18.8172 3.21224C18.7413 3.00242 18.663 2.98541 18.5989 2.89657C18.5325 2.80583 18.5657 2.81717 18.4946 2.76424C18.421 2.71321 18.3546 2.63192 18.2383 2.63571C18.122 2.63949 18.0319 2.66217 17.9132 2.78315C17.7946 2.90224 17.7021 2.97784 17.6427 3.23492C17.5834 3.49011 17.5834 3.66591 17.6119 4.06286C17.6404 4.45982 17.6997 4.68288 17.7827 5.21594C17.8658 5.75089 17.9559 6.04578 18.0247 6.73006C18.0936 7.41434 18.1125 7.85288 18.1244 8.63924C18.1363 9.42559 18.1458 9.8925 18.0864 10.6656C18.0248 11.4369 17.9298 11.8697 17.8231 12.5011C17.7187 13.1324 17.6238 13.4179 17.5573 13.8243C17.4933 14.2307 17.5621 14.3498 17.498 14.5293C17.4339 14.7108 17.4221 14.7222 17.2417 14.7259C17.059 14.7278 16.9357 14.6844 16.5869 14.5483C16.2404 14.4122 16.0245 14.2968 15.5025 14.0417C14.9781 13.7884 14.6246 13.6674 13.9674 13.2799C13.3125 12.8943 12.94 12.6428 12.2234 12.1098C11.5045 11.5767 11.1272 11.2648 10.3774 10.6108C9.62999 9.95676 9.21239 9.59572 8.48159 8.8415C7.75078 8.08728 7.37826 7.66196 6.72338 6.83969C6.06851 6.01741 5.76005 5.52595 5.20483 4.73203C4.65198 3.93811 4.43369 3.46176 3.94728 2.8701C3.46324 2.27844 3.23546 1.99301 2.77989 1.77563C2.32432 1.55825 1.99689 1.59606 1.66945 1.78131C1.34438 1.96844 1.17117 2.21984 1.14982 2.70564C1.12846 3.19145 1.35862 3.5317 1.56267 4.21031C1.7691 4.88892 1.93994 5.28777 2.17485 6.0987C2.41212 6.90774 2.52601 7.3425 2.7443 8.26118C2.96497 9.17797 3.08597 9.72804 3.27342 10.6883C3.45849 11.6467 3.54154 12.1457 3.67916 13.0549C3.81678 13.9623 3.87847 14.4481 3.95914 15.2287C4.04219 16.0094 3.94254 16.4366 4.08727 16.9603C4.22964 17.482 4.4242 17.62 4.68046 17.8373C4.93671 18.0528 5.14076 18.0755 5.37092 18.0434C5.5987 18.0112 5.73158 17.9148 5.82411 17.6786C5.91428 17.4423 5.88818 17.291 5.82649 16.8601C5.76717 16.431 5.66277 16.155 5.52278 15.5274C5.38279 14.898 5.28076 14.5256 5.1289 13.7184C4.97705 12.9113 4.88451 12.4406 4.7635 11.4936C4.64012 10.5446 4.59978 9.99645 4.51911 8.97759C4.43606 7.95684 4.38624 7.36707 4.35064 6.3898C4.31505 5.41441 4.34115 4.88137 4.34353 4.0969C4.34827 3.31054 4.4503 2.96084 4.36963 2.45991C4.28896 1.96088 4.15133 1.76807 3.94016 1.59794C3.72898 1.42782 3.51307 1.4316 3.31138 1.60739Z" fill="white" stroke="white"/>
<path d="M26.2259 9.88862C26.029 10.0039 25.9293 10.1117 25.8415 10.4292C25.7561 10.7468 25.73 11.002 25.7917 11.4765C25.851 11.9509 25.9435 12.2704 26.1428 12.7997C26.3422 13.3289 26.5225 13.6578 26.7906 14.1228C27.0563 14.586 27.2058 14.8109 27.4811 15.1209C27.7563 15.429 27.9177 15.5273 28.1692 15.6653C28.4207 15.8052 28.5132 15.8109 28.7386 15.8147C28.9617 15.8184 29.1586 15.7636 29.2891 15.6861C29.4196 15.6067 29.5121 15.4933 29.3911 15.4196C29.2677 15.3459 28.8145 15.327 28.6769 15.3194C28.5417 15.3118 28.6461 15.3761 28.7054 15.3837C28.7647 15.3931 28.9118 15.412 28.9759 15.361C29.0423 15.3118 29.0613 15.291 29.0305 15.1379C28.9996 14.9848 28.9213 14.8941 28.8193 14.5954C28.7196 14.2949 28.658 14.0832 28.5275 13.637C28.3946 13.1909 28.3092 12.862 28.1573 12.363C28.0078 11.8659 27.9485 11.5691 27.7777 11.1494C27.6045 10.7298 27.4882 10.5219 27.296 10.2629C27.1062 10.0039 27.0397 9.92831 26.8262 9.8527C26.6126 9.77898 26.4228 9.77331 26.2259 9.88862Z" fill="white" stroke="white"/>
<path d="M25.5861 6.32555C25.7901 6.1989 25.8589 6.06091 25.8305 6.07792C25.8044 6.09493 25.5671 6.32932 25.4508 6.41439C25.3346 6.50134 25.3346 6.58074 25.2515 6.50702C25.1685 6.4333 25.159 6.10817 25.0356 6.04579C24.9146 5.98341 24.7793 6.0628 24.6417 6.19701C24.5065 6.32933 24.3262 6.6072 24.357 6.71116C24.3878 6.81513 24.5563 6.79245 24.8007 6.71684C25.0475 6.63934 25.3797 6.45409 25.5861 6.32555Z" fill="white" stroke="white"/>
<path d="M38.8083 9.2574C38.711 9.08349 38.5853 8.9833 38.2555 8.91903C37.9256 8.85476 37.6338 8.81318 37.1593 8.93227C36.6823 9.05135 36.362 9.18745 35.8756 9.51258C35.3916 9.8396 35.1377 10.0872 34.7343 10.5617C34.3309 11.0361 34.1221 11.3405 33.8611 11.8849C33.5978 12.4274 33.4649 12.7393 33.4246 13.2799C33.3842 13.8205 33.4364 14.1324 33.6618 14.588C33.8849 15.0454 34.0865 15.2439 34.5445 15.5634C35.0024 15.8847 35.2824 16.0548 35.9539 16.1928C36.623 16.3289 37.0786 16.3176 37.8924 16.2477C38.7039 16.1758 39.15 16.0738 40.0137 15.8394C40.8773 15.6069 41.3471 15.4537 42.2084 15.0795C43.0674 14.7071 43.549 14.501 44.3131 13.9755C45.0795 13.45 45.4449 13.1325 46.0333 12.4558C46.6217 11.7771 46.8733 11.3556 47.2553 10.59C47.6373 9.82259 47.7749 9.39727 47.9481 8.62226C48.1213 7.84913 48.1237 7.43139 48.1166 6.71686C48.1094 6.00234 48.081 5.63373 47.9125 5.04963C47.7441 4.46743 47.6112 4.19145 47.2742 3.80016C46.9349 3.41076 46.6739 3.2085 46.2231 3.09697C45.7723 2.98734 45.4164 3.01758 45.0201 3.24819C44.6215 3.47881 44.3937 3.73778 44.2348 4.25005C44.0734 4.76421 44.128 5.12146 44.2229 5.8133C44.3154 6.50704 44.4649 6.95881 44.6998 7.71492C44.9347 8.47104 45.0913 8.89068 45.3974 9.59386C45.7059 10.297 45.8909 10.626 46.2326 11.2271C46.5743 11.8282 46.7309 12.1344 47.1082 12.5994C47.4854 13.0663 47.7251 13.2705 48.1166 13.5578C48.5057 13.8451 48.7596 13.951 49.0633 14.0379C49.3694 14.1268 49.4975 14.053 49.6422 14.0001C49.787 13.9472 49.7775 13.8791 49.787 13.7714C49.7965 13.6636 49.8036 13.6618 49.6921 13.4614C49.5806 13.2629 49.4975 13.0852 49.2341 12.7771C48.9684 12.469 48.7287 12.3253 48.3681 11.9227C48.0098 11.5201 47.7844 11.2951 47.4356 10.7621C47.0868 10.229 46.8993 9.91521 46.6241 9.26117C46.3512 8.60525 46.2136 8.19506 46.0618 7.48621C45.9123 6.77735 45.898 6.33124 45.8719 5.7169C45.8458 5.10445 45.9455 4.81713 45.9289 4.42017C45.9123 4.02321 45.8245 3.86821 45.7889 3.73589C45.7533 3.60168 45.6964 3.6357 45.7486 3.75479C45.8008 3.87576 45.9028 4.02132 46.0499 4.3351C46.1994 4.65078 46.3275 4.84359 46.4889 5.32939C46.6478 5.8133 46.7878 6.12898 46.8495 6.75655C46.9112 7.38601 46.9231 7.77352 46.7949 8.47293C46.6668 9.17422 46.5434 9.56741 46.2065 10.2611C45.8696 10.9549 45.6371 11.3405 45.1079 11.9416C44.5788 12.5427 44.2585 12.813 43.5633 13.2629C42.8681 13.7128 42.4267 13.8905 41.6366 14.191C40.8465 14.4916 40.3909 14.6126 39.615 14.7676C38.8368 14.9226 38.4144 14.9301 37.7453 14.966C37.0762 15.002 36.7417 14.9963 36.2695 14.9471C35.7997 14.8999 35.6526 14.8696 35.3939 14.7279C35.1329 14.5861 35.0475 14.4935 34.9692 14.2383C34.8933 13.9831 34.898 13.8035 35.0096 13.45C35.1211 13.0966 35.2634 12.8735 35.5268 12.4728C35.7902 12.0701 36.0014 11.8055 36.3264 11.4407C36.6539 11.074 36.8555 10.883 37.1593 10.6411C37.4606 10.3991 37.6006 10.3481 37.8379 10.2309C38.0751 10.1118 38.1558 10.142 38.3385 10.0532C38.5212 9.96436 38.6541 9.94546 38.749 9.78668C38.8415 9.62789 38.908 9.43131 38.8083 9.2574Z" fill="white" stroke="white"/>
<path d="M52.9394 11.4858C53.1221 11.3611 53.2075 11.2382 53.1411 11.0719C53.0746 10.9055 52.9109 10.7656 52.6096 10.6522C52.3082 10.5388 52.0211 10.4556 51.6296 10.5029C51.2405 10.552 50.9605 10.6673 50.6568 10.8961C50.3531 11.1248 50.2392 11.31 50.1134 11.6465C49.9853 11.983 49.9473 12.206 50.0233 12.5765C50.1016 12.9489 50.2012 13.1795 50.5002 13.5047C50.7992 13.8317 51.0436 13.9848 51.5157 14.2097C51.9879 14.4347 52.2869 14.5046 52.8587 14.6294C53.4305 14.7522 53.7556 14.7787 54.3773 14.8279C54.9965 14.877 55.343 14.8902 55.9622 14.8732C56.5839 14.8543 56.9185 14.8619 57.4737 14.7352C58.0313 14.6086 58.5177 14.4592 58.7478 14.24C58.978 14.0207 58.9163 13.792 58.6268 13.6389C58.3374 13.4876 57.8296 13.5065 57.2957 13.4782C56.7619 13.4498 56.4985 13.5122 55.9551 13.499C55.4094 13.4839 55.1033 13.4631 54.5742 13.4101C54.0451 13.3553 53.7603 13.3175 53.3095 13.2325C52.8587 13.1474 52.6428 13.0869 52.3201 12.9811C51.9998 12.8752 51.8527 12.809 51.7008 12.7051C51.5466 12.603 51.5347 12.5709 51.5584 12.4669C51.5822 12.3629 51.7222 12.2987 51.8194 12.189C51.9167 12.0794 51.9832 12 52.0425 11.9149C52.1018 11.8318 52.135 11.8072 52.116 11.7675C52.0947 11.7259 51.9974 11.7221 51.9428 11.7089C51.8882 11.6938 51.7862 11.6994 51.8432 11.6938C51.9001 11.69 52.0069 11.7297 52.2276 11.6881C52.4458 11.6465 52.7567 11.6087 52.9394 11.4858Z" fill="white" stroke="white"/>
<path d="M78.0342 4.93796C77.9274 4.75649 77.7518 4.68277 77.4172 4.58258C77.0803 4.48051 76.8786 4.42381 76.3519 4.43515C75.8251 4.44838 75.417 4.45215 74.7859 4.64118C74.1547 4.8321 73.8392 5.02681 73.1961 5.38407C72.5555 5.74133 72.2399 5.95304 71.5779 6.4275C70.9159 6.90196 70.4889 7.17605 69.8909 7.75448C69.293 8.33479 68.9845 8.6845 68.5859 9.32719C68.1897 9.968 68.0022 10.3215 67.9049 10.9642C67.8053 11.605 67.8409 11.9641 68.0971 12.5388C68.351 13.1134 68.5907 13.4159 69.1767 13.8374C69.7652 14.2589 70.1994 14.3894 71.0322 14.6446C71.865 14.8978 72.3538 14.9848 73.3433 15.1077C74.3327 15.2305 74.9164 15.2419 75.9794 15.257C77.04 15.2702 77.6189 15.257 78.6558 15.1776C79.6903 15.0982 80.2242 15.0358 81.1614 14.8582C82.0963 14.6824 82.6017 14.5765 83.3301 14.293C84.0609 14.0113 84.386 13.7769 84.806 13.4423C85.2283 13.1077 85.3849 12.8507 85.4371 12.6219C85.4917 12.3932 85.347 12.2911 85.0717 12.2987C84.7941 12.3063 84.526 12.4556 84.0585 12.6598C83.5911 12.8658 83.3681 13.0699 82.7298 13.327C82.0892 13.5841 81.6977 13.7542 80.8625 13.947C80.0249 14.138 79.5148 14.2041 78.5443 14.2816C77.5738 14.361 77.0068 14.3667 76.0102 14.3364C75.0137 14.3043 74.4513 14.2703 73.5568 14.1304C72.6646 13.9905 72.2257 13.8676 71.5423 13.6351C70.859 13.4026 70.5695 13.2628 70.1424 12.9679C69.713 12.6749 69.573 12.5407 69.4045 12.1664C69.236 11.794 69.2194 11.5766 69.2977 11.104C69.376 10.6315 69.4733 10.3328 69.8008 9.80165C70.1258 9.27049 70.3892 8.94913 70.9278 8.4501C71.4688 7.95107 71.8722 7.69399 72.5009 7.30459C73.1321 6.91519 73.4975 6.75641 74.0764 6.50311C74.6577 6.25171 74.9116 6.16664 75.4028 6.03999C75.8963 5.91523 76.1526 5.93981 76.5417 5.87554C76.9308 5.80938 77.0708 5.79614 77.3508 5.71864C77.6332 5.64114 77.8111 5.64114 77.9464 5.48425C78.084 5.32925 78.1386 5.11753 78.0342 4.93796Z" fill="white" stroke="white"/>
<path d="M84.134 5.97393C83.9584 6.1932 83.9276 6.48241 83.9371 6.97199C83.9466 7.46157 84.0391 7.78291 84.1767 8.42183C84.3143 9.06074 84.452 9.53521 84.6276 10.1647C84.8008 10.7941 84.8767 11.089 85.0499 11.5729C85.2255 12.055 85.318 12.2591 85.5007 12.5786C85.6858 12.898 85.7499 13.0095 85.9658 13.1683C86.1793 13.3271 86.298 13.3479 86.5732 13.3744C86.8484 13.3989 87.0383 13.3989 87.3443 13.295C87.6504 13.1891 87.8331 13.0927 88.1013 12.847C88.3717 12.5994 88.4548 12.3725 88.6849 12.0606C88.9175 11.7487 89.0314 11.5465 89.2591 11.2894C89.4869 11.0304 89.6032 10.8849 89.8239 10.7715C90.0469 10.6599 90.1181 10.6656 90.372 10.7223C90.6258 10.7809 90.7848 10.8924 91.0933 11.0626C91.3994 11.2327 91.5726 11.3366 91.9047 11.5729C92.2369 11.8111 92.4054 11.985 92.7518 12.2478C93.1006 12.5124 93.3118 12.6504 93.6463 12.8923C93.9809 13.1362 94.1209 13.261 94.4246 13.4594C94.7283 13.6598 94.9015 13.7675 95.1649 13.8866C95.4283 14.0038 95.554 14.0133 95.7438 14.0511C95.9337 14.0889 95.9811 14.087 96.1116 14.0776C96.2445 14.0681 96.3109 14.0908 96.4035 14.0038C96.496 13.9169 96.5577 13.7543 96.5743 13.6447C96.5909 13.535 96.5316 13.535 96.4865 13.4575C96.4414 13.38 96.4367 13.3555 96.3465 13.2572C96.254 13.1608 96.1994 13.1154 96.0262 12.9717C95.853 12.8281 95.7249 12.743 95.4805 12.5408C95.2337 12.3404 95.0937 12.2175 94.7971 11.9642C94.4982 11.709 94.3344 11.5616 93.9856 11.2686C93.6369 10.9756 93.4708 10.7715 93.0508 10.4993C92.6308 10.2271 92.3745 10.0872 91.8834 9.90949C91.3922 9.7318 91.1123 9.65052 90.5926 9.61082C90.0706 9.57113 89.7978 9.58246 89.2805 9.711C88.7609 9.83954 88.4666 9.97565 88.0016 10.2516C87.5342 10.5295 87.2921 10.7507 86.9481 11.0966C86.604 11.4425 86.438 11.6618 86.2837 11.985C86.1271 12.3064 86.1153 12.4897 86.1675 12.7033C86.2197 12.9188 86.4071 13.0266 86.5471 13.0606C86.6847 13.0927 86.8128 13.0228 86.8579 12.8678C86.9054 12.7109 86.8318 12.5994 86.7796 12.2799C86.7298 11.9623 86.7179 11.7544 86.604 11.2762C86.4925 10.7998 86.3786 10.5106 86.2173 9.89247C86.056 9.27435 85.9492 8.81123 85.7949 8.18554C85.6407 7.55986 85.6455 7.22906 85.4509 6.76783C85.2563 6.30472 85.0831 6.03252 84.8197 5.87374C84.5564 5.71495 84.3096 5.75465 84.134 5.97393Z" fill="white" stroke="white"/>
<path d="M98.9849 11.0815C98.7666 11.2308 98.667 11.4671 98.6148 11.7941C98.5626 12.123 98.6385 12.3442 98.7263 12.7184C98.8117 13.0946 98.8496 13.3536 99.0466 13.673C99.2435 13.9925 99.4262 14.1683 99.711 14.3157C99.9981 14.4613 100.195 14.4651 100.475 14.4046C100.753 14.3441 100.94 14.2344 101.101 14.0133C101.263 13.7921 101.298 13.6012 101.277 13.2969C101.256 12.9925 101.135 12.8092 100.992 12.4916C100.852 12.174 100.7 11.9964 100.57 11.7109C100.442 11.4274 100.401 11.2743 100.347 11.0682C100.295 10.8622 100.261 10.7828 100.304 10.6788C100.347 10.5768 100.382 10.5749 100.563 10.5541C100.743 10.5333 100.874 10.5503 101.208 10.5749C101.543 10.5994 101.759 10.6183 102.236 10.6751C102.71 10.7318 103.016 10.7752 103.586 10.8584C104.155 10.9416 104.497 11.0002 105.083 11.089C105.669 11.1779 105.994 11.2081 106.514 11.3007C107.036 11.3915 107.268 11.4463 107.683 11.5446C108.096 11.641 108.303 11.6769 108.58 11.7884C108.86 11.8981 108.91 11.9472 109.074 12.0947C109.235 12.2421 109.29 12.3177 109.394 12.5256C109.499 12.7317 109.487 12.8678 109.593 13.1324C109.7 13.3971 109.76 13.5955 109.93 13.8507C110.101 14.104 110.222 14.2439 110.448 14.4046C110.673 14.5634 110.846 14.6125 111.057 14.6522C111.269 14.69 111.392 14.656 111.506 14.5936C111.622 14.5293 111.589 14.4235 111.627 14.3384C111.665 14.2534 111.665 14.2779 111.698 14.1664C111.731 14.0549 111.821 13.9641 111.795 13.7808C111.769 13.5974 111.686 13.4878 111.572 13.2477C111.458 13.0077 111.401 12.8489 111.223 12.5804C111.046 12.312 110.925 12.1532 110.687 11.9075C110.45 11.6618 110.317 11.5691 110.037 11.3518C109.76 11.1363 109.66 11.0191 109.294 10.8244C108.929 10.6316 108.682 10.5446 108.21 10.3858C107.74 10.2289 107.489 10.1703 106.941 10.0324C106.395 9.89625 106.079 9.82631 105.479 9.70156C104.879 9.57491 104.547 9.50119 103.937 9.40101C103.329 9.30271 103.004 9.24222 102.435 9.21009C101.865 9.17606 101.585 9.16472 101.092 9.23466C100.598 9.3046 100.349 9.36508 99.9696 9.55789C99.5876 9.74881 99.4167 9.89815 99.189 10.1911C98.9588 10.4822 98.9019 10.6618 98.8188 11.0172C98.7381 11.3726 98.7547 11.5824 98.7761 11.968C98.7998 12.3517 98.8354 12.5748 98.9279 12.9415C99.0229 13.3063 99.0466 13.535 99.2435 13.7959C99.4405 14.0568 99.6564 14.1607 99.9126 14.2496C100.171 14.3365 100.323 14.3082 100.53 14.2344C100.736 14.1588 100.859 14.0851 100.94 13.8715C101.023 13.6598 101.006 13.4859 100.94 13.1721C100.874 12.8602 100.764 12.6239 100.61 12.3045C100.454 11.985 100.347 11.8281 100.167 11.5767C99.9862 11.3253 99.9459 11.1495 99.711 11.0493C99.4737 10.951 99.2056 10.934 98.9849 11.0815Z" fill="white" stroke="white"/>
<path d="M107.341 6.59202C107.201 6.68843 107.073 7.04948 107.07 7.17991C107.066 7.31223 107.165 7.46534 107.322 7.24607C107.479 7.02679 107.716 6.30848 107.858 6.08543C108.001 5.86238 108.05 6.00605 108.034 6.12892C108.017 6.25178 107.908 6.60715 107.77 6.69977C107.63 6.7924 107.481 6.49562 107.341 6.59202Z" fill="white" stroke="white"/>
<path d="M120.117 9.37629C119.991 9.20616 119.811 9.12298 119.481 9.0606C119.151 8.99822 118.914 8.99823 118.463 9.06439C118.01 9.12866 117.694 9.19482 117.222 9.38384C116.748 9.57287 116.463 9.71465 116.098 10.0133C115.732 10.3101 115.547 10.5086 115.39 10.8715C115.232 11.2325 115.179 11.4461 115.31 11.8261C115.438 12.206 115.599 12.4366 116.034 12.7731C116.47 13.1096 116.828 13.2646 117.488 13.5122C118.15 13.758 118.613 13.8071 119.341 14.0094C120.07 14.2116 120.487 14.3458 121.135 14.5197C121.783 14.6955 122.129 14.7806 122.578 14.8846C123.026 14.9866 123.204 15.0093 123.375 15.0339C123.546 15.0566 123.543 15.0188 123.434 14.9999C123.327 14.981 123.178 14.9299 122.834 14.9413C122.487 14.9526 122.214 14.9885 121.707 15.0566C121.197 15.1265 120.864 15.2116 120.285 15.2872C119.707 15.3609 119.362 15.3987 118.812 15.4308C118.262 15.4611 117.96 15.4743 117.533 15.4441C117.106 15.4138 116.959 15.3552 116.677 15.2796C116.394 15.204 116.33 15.1416 116.126 15.066C115.922 14.9904 115.839 14.8864 115.654 14.9016C115.471 14.9148 115.269 14.981 115.203 15.1379C115.137 15.2947 115.158 15.4611 115.324 15.6879C115.49 15.9166 115.647 16.0773 116.034 16.2739C116.418 16.4724 116.696 16.5669 117.253 16.6784C117.808 16.7919 118.167 16.8089 118.819 16.8353C119.469 16.8637 119.839 16.8599 120.511 16.8183C121.182 16.7767 121.579 16.7654 122.172 16.6274C122.767 16.4875 123.085 16.3741 123.486 16.1227C123.887 15.8713 124.051 15.6917 124.179 15.3722C124.307 15.0528 124.314 14.8467 124.127 14.5292C123.942 14.2116 123.726 14.0453 123.247 13.7882C122.765 13.5311 122.388 13.4536 121.728 13.2438C121.068 13.034 120.634 12.9621 119.949 12.7353C119.265 12.5085 118.89 12.3251 118.304 12.1115C117.718 11.896 117.405 11.794 117.013 11.6673C116.622 11.5388 116.451 11.5236 116.344 11.4707C116.24 11.4178 116.321 11.465 116.487 11.4008C116.655 11.3384 116.864 11.2666 117.18 11.155C117.493 11.0435 117.687 10.9603 118.06 10.8413C118.432 10.7241 118.71 10.6881 119.04 10.5615C119.37 10.4348 119.495 10.3422 119.711 10.2118C119.925 10.0795 120.029 10.0719 120.11 9.90367C120.191 9.73733 120.243 9.54452 120.117 9.37629Z" fill="white" stroke="white"/>
<path d="M125.095 7.5995C124.914 7.73749 124.836 7.87738 124.798 8.21385C124.76 8.54843 124.772 8.79984 124.907 9.27997C125.04 9.75821 125.237 10.0606 125.47 10.6088C125.7 11.157 125.833 11.4765 126.065 12.0209C126.298 12.5672 126.419 12.8753 126.632 13.3346C126.848 13.7958 126.934 13.9943 127.14 14.3213C127.346 14.6484 127.475 14.7882 127.664 14.9697C127.857 15.1512 127.935 15.2003 128.101 15.2306C128.265 15.2627 128.383 15.2325 128.488 15.1266C128.594 15.0207 128.625 14.9357 128.632 14.6994C128.64 14.4612 128.613 14.2949 128.523 13.9395C128.435 13.586 128.352 13.3913 128.186 12.9282C128.023 12.4651 127.883 12.1721 127.695 11.6239C127.51 11.0776 127.429 10.7525 127.256 10.1949C127.083 9.63533 127.038 9.27996 126.829 8.82819C126.618 8.37641 126.43 8.19494 126.205 7.9322C125.98 7.67134 125.925 7.58817 125.702 7.52201C125.481 7.45585 125.275 7.46151 125.095 7.5995Z" fill="white" stroke="white"/>
<path d="M124.828 13.1891C125.035 13.2685 125.137 13.2118 125.495 13.1815C125.855 13.1513 126.064 13.1551 126.622 13.0416C127.179 12.9263 127.547 12.7619 128.283 12.6088C129.021 12.4538 129.498 12.3838 130.312 12.2723C131.125 12.1589 131.612 12.1267 132.354 12.0474C133.095 11.9661 133.467 11.9472 134.015 11.8715C134.561 11.794 134.796 11.709 135.088 11.6636C135.38 11.6183 135.413 11.6277 135.472 11.6447C135.534 11.6636 135.486 11.6504 135.384 11.7525C135.282 11.8527 135.081 11.9283 134.962 12.1513C134.846 12.3725 134.808 12.5672 134.801 12.8602C134.794 13.1532 134.82 13.3138 134.926 13.6144C135.036 13.9149 135.09 14.0983 135.342 14.3648C135.593 14.6295 135.783 14.792 136.184 14.9433C136.585 15.0964 136.87 15.1323 137.347 15.1247C137.824 15.1172 138.089 15.0416 138.569 14.9055C139.048 14.7712 139.278 14.6824 139.746 14.4518C140.211 14.2212 140.51 14.0794 140.901 13.7543C141.29 13.4291 141.475 13.2174 141.696 12.8262C141.914 12.4368 142.002 12.2061 141.997 11.7997C141.995 11.3933 141.933 11.1476 141.677 10.7979C141.421 10.4463 141.186 10.2591 140.718 10.0455C140.249 9.83194 139.912 9.762 139.335 9.72798C138.756 9.69206 138.395 9.73554 137.828 9.87164C137.264 10.0059 136.962 10.1363 136.509 10.4028C136.056 10.6674 135.835 10.8451 135.567 11.2005C135.301 11.5559 135.199 11.7941 135.176 12.1816C135.152 12.5672 135.252 12.811 135.446 13.1324C135.641 13.4537 135.83 13.6352 136.153 13.7864C136.476 13.9376 136.794 13.9679 137.057 13.8904C137.321 13.8148 137.446 13.6068 137.47 13.4027C137.496 13.1966 137.321 13.0416 137.181 12.8658C137.041 12.69 136.898 12.6522 136.768 12.5237C136.64 12.3952 136.528 12.3517 136.53 12.225C136.533 12.0984 136.599 12.0322 136.78 11.8905C136.958 11.7487 137.119 11.6485 137.427 11.5181C137.733 11.3895 137.947 11.3158 138.317 11.2383C138.69 11.1608 138.936 11.1457 139.285 11.1306C139.634 11.1173 139.824 11.1173 140.066 11.1665C140.305 11.2156 140.391 11.2572 140.493 11.3744C140.593 11.4897 140.612 11.5729 140.574 11.7449C140.536 11.9188 140.474 12.036 140.301 12.2364C140.125 12.4368 140.002 12.5502 139.7 12.7449C139.401 12.9415 139.155 13.0473 138.801 13.2155C138.445 13.3819 138.255 13.4707 137.93 13.5823C137.605 13.6919 137.425 13.7203 137.178 13.7694C136.934 13.8204 136.841 13.8374 136.701 13.8299C136.561 13.8223 136.521 13.8015 136.476 13.7297C136.431 13.6598 136.428 13.6182 136.476 13.4764C136.521 13.3327 136.644 13.2401 136.704 13.0152C136.763 12.7921 136.801 12.6258 136.772 12.3555C136.742 12.0833 136.704 11.9188 136.557 11.6617C136.412 11.4028 136.322 11.2591 136.044 11.0644C135.764 10.8716 135.6 10.7714 135.159 10.692C134.718 10.6126 134.44 10.6353 133.837 10.6656C133.235 10.6958 132.898 10.7638 132.148 10.847C131.396 10.9302 130.928 10.9945 130.086 11.0795C129.244 11.1646 128.748 11.174 127.939 11.2723C127.13 11.3725 126.653 11.3933 126.038 11.5767C125.424 11.7581 125.179 11.9434 124.864 12.1835C124.55 12.4254 124.472 12.5804 124.465 12.7808C124.458 12.983 124.622 13.1097 124.828 13.1891Z" fill="white" stroke="white"/>
<path d="M148.483 8.5409C148.711 8.36888 148.851 8.11369 148.889 7.73753C148.929 7.36325 148.903 7.03813 148.68 6.66385C148.459 6.28957 148.217 6.05897 147.783 5.86805C147.351 5.67713 147.017 5.61096 146.519 5.70737C146.018 5.80377 145.676 5.93988 145.285 6.35007C144.891 6.76026 144.732 7.10429 144.552 7.75454C144.371 8.40291 144.374 8.82822 144.378 9.59568C144.381 10.365 144.433 10.7866 144.568 11.5918C144.703 12.399 144.824 12.8678 145.059 13.6276C145.294 14.3894 145.439 14.775 145.745 15.3951C146.051 16.0151 146.269 16.2873 146.59 16.7296C146.91 17.1719 147.071 17.3458 147.347 17.6048C147.622 17.8638 147.767 17.9072 147.964 18.0207C148.16 18.1341 148.189 18.1681 148.331 18.1738C148.474 18.1794 148.597 18.1511 148.673 18.0471C148.751 17.9432 148.766 17.8524 148.723 17.652C148.678 17.4517 148.626 17.3458 148.452 17.0434C148.281 16.7428 148.158 16.5595 147.859 16.1455C147.563 15.7334 147.285 15.533 146.962 14.9811C146.64 14.4291 146.476 14.0889 146.243 13.3876C146.011 12.6863 145.892 12.2232 145.795 11.4746C145.7 10.728 145.679 10.3215 145.764 9.64482C145.847 8.9681 146.023 8.61462 146.215 8.09101C146.409 7.56929 146.583 7.34813 146.73 7.03056C146.877 6.713 146.91 6.59202 146.948 6.50318C146.988 6.41434 146.936 6.4597 146.922 6.58635C146.91 6.71489 146.834 6.86801 146.884 7.1421C146.934 7.41619 147 7.6657 147.173 7.95681C147.347 8.24791 147.489 8.48041 147.752 8.59572C148.013 8.71292 148.255 8.71291 148.483 8.5409Z" fill="white" stroke="white"/>
<path d="M143.078 14.6861C143.266 14.7995 143.325 14.8865 143.854 14.8581C144.381 14.8298 144.806 14.722 145.714 14.5444C146.625 14.3667 147.271 14.1814 148.403 13.9735C149.534 13.7656 150.258 13.6654 151.373 13.5028C152.486 13.3402 153.098 13.2703 153.972 13.1626C154.845 13.0529 155.203 13.0624 155.739 12.9584C156.278 12.8563 156.408 12.7562 156.662 12.6503C156.916 12.5426 156.945 12.5161 157.004 12.4254C157.066 12.3327 157.056 12.2685 156.966 12.1928C156.878 12.1172 156.845 12.0946 156.56 12.0454C156.275 11.9963 156.102 11.915 155.542 11.949C154.982 11.983 154.636 12.0794 153.763 12.2155C152.89 12.3516 152.294 12.4688 151.174 12.6295C150.054 12.7902 149.321 12.8658 148.165 13.0189C147.01 13.172 146.324 13.2438 145.392 13.3951C144.459 13.5482 144.001 13.5973 143.508 13.7769C143.014 13.9565 143.009 14.1077 142.922 14.2911C142.836 14.4725 142.893 14.5727 143.078 14.6861Z" fill="white" stroke="white"/>
</svg>
