<svg width="178" height="26" viewBox="0 0 178 26" fill="none" xmlns="http://www.w3.org/2000/svg">
<path d="M3.57199 1.23118C3.34242 1.4821 3.20095 1.75704 3.13955 2.46976C3.07816 3.18247 3.19027 3.6763 3.26769 4.79208C3.3451 5.91053 3.40382 6.66861 3.52127 8.054C3.63872 9.43938 3.73215 10.2722 3.86028 11.719C3.98574 13.1658 4.03111 13.9425 4.1539 15.2932C4.27936 16.6439 4.37012 17.3166 4.47689 18.4724C4.58367 19.6282 4.60769 20.1621 4.69044 21.0723C4.77586 21.9799 4.77319 22.407 4.89864 23.0103C5.0241 23.6162 5.1202 23.8191 5.31773 24.094C5.51526 24.3716 5.6514 24.4357 5.8863 24.393C6.1212 24.3503 6.34009 24.2569 6.49491 23.8751C6.64706 23.4934 6.76985 23.2265 6.64973 22.4871C6.52961 21.7503 6.17993 21.2458 5.89431 20.1888C5.60869 19.1291 5.47789 18.4617 5.2243 17.1965C4.96805 15.9339 4.86661 15.2238 4.62103 13.8705C4.37812 12.5171 4.24199 11.735 4.00175 10.427C3.76151 9.12173 3.63605 8.49711 3.42518 7.33862C3.2143 6.18013 3.10752 5.57418 2.94736 4.63191C2.7872 3.68963 2.7872 3.19048 2.62971 2.62458C2.47489 2.05868 2.29071 1.86382 2.16525 1.80509C2.03979 1.7437 1.86094 1.90118 1.99708 2.32827C2.13322 2.75537 2.33609 3.13175 2.84059 3.94056C3.34776 4.74937 3.80155 5.30725 4.52761 6.36965C5.25367 7.43204 5.66208 8.10472 6.46821 9.24987C7.27168 10.395 7.70411 11.0143 8.55296 12.0954C9.40181 13.1791 9.87162 13.705 10.7151 14.6659C11.5613 15.6269 11.975 16.0834 12.7732 16.9028C13.5686 17.725 13.9717 18.112 14.7031 18.766C15.4318 19.42 15.7602 19.7484 16.4248 20.1728C17.0895 20.5945 17.4178 20.7253 18.0238 20.8828C18.6297 21.0403 18.9287 21.0857 19.4545 20.9629C19.983 20.8401 20.2607 20.6853 20.6584 20.2689C21.0561 19.8525 21.2456 19.5802 21.4458 18.8808C21.646 18.1814 21.6113 17.7357 21.6594 16.772C21.7048 15.8084 21.6888 15.1891 21.6807 14.0627C21.6701 12.9335 21.6407 12.2689 21.614 11.1344C21.5846 9.99995 21.5686 9.38599 21.5419 8.38766C21.5126 7.392 21.5393 6.92754 21.4672 6.15343C21.3978 5.382 21.2777 5.05901 21.1869 4.52782C21.0962 3.99662 21.0988 3.79374 21.0161 3.49744C20.9307 3.20115 20.8426 3.17713 20.7705 3.05167C20.6958 2.92354 20.7331 2.93955 20.6531 2.86481C20.5703 2.79274 20.4956 2.67796 20.3648 2.6833C20.234 2.68864 20.1325 2.72068 19.9991 2.89152C19.8656 3.05968 19.7615 3.16644 19.6948 3.52947C19.628 3.88983 19.628 4.13808 19.6601 4.69864C19.6921 5.2592 19.7588 5.57419 19.8523 6.32695C19.9457 7.08237 20.0471 7.49879 20.1245 8.46508C20.2019 9.43138 20.2233 10.0507 20.2366 11.1611C20.25 12.2715 20.2607 12.9309 20.1939 14.0226C20.1245 15.1117 20.0177 15.723 19.8976 16.6145C19.7802 17.5061 19.6734 17.9092 19.5987 18.4831C19.5266 19.057 19.604 19.2252 19.5319 19.4787C19.4599 19.735 19.4465 19.751 19.2436 19.7564C19.0381 19.759 18.8993 19.6976 18.5069 19.5054C18.1172 19.3132 17.8743 19.1504 17.287 18.7901C16.6971 18.4324 16.2994 18.2615 15.56 17.7143C14.8232 17.1698 14.4041 16.8147 13.598 16.062C12.7892 15.3092 12.3648 14.8688 11.5213 13.9452C10.6804 13.0216 10.2106 12.5118 9.38846 11.4467C8.56631 10.3817 8.14722 9.78105 7.41049 8.61989C6.67375 7.45873 6.32674 6.76472 5.70212 5.6436C5.08016 4.52248 4.83458 3.8498 4.28736 3.01429C3.74282 2.17879 3.48657 1.77573 2.97406 1.46876C2.46155 1.16178 2.09318 1.21518 1.72481 1.47677C1.35911 1.74104 1.16425 2.09604 1.14023 2.78206C1.1162 3.46808 1.37513 3.94857 1.60469 4.90686C1.83692 5.86515 2.02912 6.42838 2.29338 7.57352C2.56031 8.71599 2.68844 9.32994 2.93402 10.6272C3.18227 11.9219 3.3184 12.6986 3.52928 14.0547C3.73748 15.408 3.83092 16.1127 3.98574 17.3967C4.14056 18.6779 4.20996 19.364 4.30072 20.4664C4.39414 21.5688 4.28203 22.1721 4.44486 22.9115C4.60502 23.6483 4.82391 23.8431 5.1122 24.1501C5.40048 24.4544 5.63004 24.4864 5.88896 24.441C6.14522 24.3957 6.2947 24.2595 6.39881 23.9259C6.50024 23.5922 6.47088 23.3786 6.40148 22.77C6.33475 22.1641 6.2173 21.7744 6.05981 20.8882C5.90232 19.9993 5.78753 19.4734 5.6167 18.3336C5.44586 17.1938 5.34175 16.5291 5.20562 15.1918C5.06681 13.8518 5.02143 13.0777 4.93068 11.6389C4.83725 10.1975 4.78119 9.36464 4.74115 7.98459C4.70111 6.60722 4.73048 5.85448 4.73315 4.7467C4.73849 3.63626 4.85327 3.14243 4.76251 2.43505C4.67176 1.73035 4.51693 1.45808 4.27936 1.21784C4.04179 0.977598 3.79888 0.982933 3.57199 1.23118Z" fill="black" stroke="black"/>
<path d="M29.3508 12.9254C29.1293 13.0883 29.0171 13.2404 28.9184 13.6889C28.8223 14.1373 28.7929 14.4977 28.8623 15.1677C28.9291 15.8377 29.0332 16.2888 29.2574 17.0362C29.4816 17.7836 29.6845 18.2481 29.9861 18.9047C30.2851 19.5587 30.4532 19.8764 30.7629 20.3141C31.0725 20.7492 31.254 20.888 31.537 21.0829C31.8199 21.2804 31.924 21.2885 32.1776 21.2938C32.4285 21.2991 32.6501 21.2217 32.7969 21.1123C32.9437 21.0002 33.0478 20.84 32.9117 20.7359C32.7729 20.6318 32.263 20.6051 32.1082 20.5944C31.9561 20.5837 32.0735 20.6745 32.1403 20.6852C32.207 20.6985 32.3725 20.7252 32.4446 20.6531C32.5193 20.5837 32.5407 20.5544 32.506 20.3382C32.4713 20.1219 32.3832 19.9938 32.2684 19.5721C32.1563 19.1476 32.0869 18.8487 31.9401 18.2187C31.7906 17.5888 31.6945 17.1243 31.5236 16.4196C31.3555 15.7176 31.2887 15.2985 31.0966 14.7059C30.9017 14.1133 30.7709 13.8197 30.5547 13.454C30.3411 13.0883 30.2664 12.9815 30.0261 12.8747C29.7859 12.7706 29.5724 12.7626 29.3508 12.9254Z" fill="black" stroke="black"/>
<path d="M28.6308 7.89385C28.8603 7.715 28.9377 7.52014 28.9057 7.54417C28.8764 7.56819 28.6094 7.89918 28.4786 8.0193C28.3478 8.14209 28.3478 8.25421 28.2544 8.15011C28.161 8.04601 28.1503 7.58688 28.0115 7.49879C27.8754 7.4107 27.7232 7.52281 27.5684 7.71234C27.4162 7.89919 27.2134 8.29157 27.2481 8.43839C27.2828 8.5852 27.4723 8.55318 27.7472 8.4464C28.0248 8.33696 28.3985 8.07536 28.6308 7.89385Z" fill="black" stroke="black"/>
<path d="M43.5043 12.0338C43.3949 11.7883 43.2534 11.6468 42.8824 11.556C42.5113 11.4653 42.183 11.4065 41.6491 11.5747C41.1126 11.7429 40.7522 11.9351 40.205 12.3942C39.6605 12.856 39.3749 13.2057 38.9211 13.8757C38.4673 14.5457 38.2324 14.9754 37.9388 15.7442C37.6425 16.5103 37.493 16.9507 37.4476 17.7142C37.4022 18.4776 37.4609 18.9181 37.7145 19.5614C37.9655 20.2073 38.1923 20.4876 38.7075 20.9387C39.2227 21.3925 39.5377 21.6328 40.2931 21.8276C41.0459 22.0198 41.5584 22.0038 42.4739 21.905C43.3869 21.8036 43.8887 21.6595 44.8603 21.3285C45.832 21.0001 46.3605 20.7839 47.3295 20.2554C48.2958 19.7295 48.8376 19.4386 49.6972 18.6965C50.5594 17.9544 50.9704 17.506 51.6324 16.5504C52.2944 15.5921 52.5774 14.9968 53.0071 13.9157C53.4369 12.832 53.5917 12.2314 53.7866 11.1369C53.9814 10.0452 53.9841 9.45527 53.9761 8.44626C53.9681 7.43725 53.9361 6.91673 53.7465 6.0919C53.557 5.26975 53.4075 4.88003 53.0285 4.32748C52.6468 3.7776 52.3532 3.49197 51.846 3.33448C51.3388 3.17966 50.9384 3.22236 50.4926 3.54802C50.0442 3.87368 49.7879 4.23939 49.6091 4.96278C49.4276 5.68884 49.489 6.19333 49.5957 7.17031C49.6998 8.14995 49.868 8.78792 50.1323 9.85566C50.3965 10.9234 50.5727 11.516 50.917 12.509C51.2641 13.502 51.4723 13.9664 51.8567 14.8153C52.241 15.6641 52.4172 16.0966 52.8416 16.7532C53.2661 17.4125 53.5357 17.7008 53.9761 18.1066C54.4139 18.5123 54.6995 18.6618 55.0412 18.7846C55.3855 18.91 55.5297 18.8059 55.6925 18.7312C55.8553 18.6565 55.8446 18.5604 55.8553 18.4082C55.866 18.2561 55.874 18.2534 55.7486 17.9704C55.6231 17.6902 55.5297 17.4392 55.2334 17.0041C54.9344 16.569 54.6648 16.3662 54.2591 15.7976C53.856 15.229 53.6024 14.9114 53.21 14.1586C52.8176 13.4059 52.6067 12.9628 52.2971 12.0392C51.9901 11.1129 51.8353 10.5337 51.6645 9.53268C51.4963 8.53168 51.4803 7.9017 51.4509 7.03417C51.4216 6.16931 51.5337 5.76357 51.515 5.20301C51.4963 4.64245 51.3975 4.42357 51.3575 4.23671C51.3175 4.04719 51.2534 4.09523 51.3121 4.2634C51.3708 4.43424 51.4856 4.63978 51.6511 5.08289C51.8193 5.52867 51.9634 5.80094 52.1449 6.48696C52.3238 7.17031 52.4813 7.61608 52.5507 8.5023C52.6201 9.39119 52.6334 9.93841 52.4893 10.9261C52.3451 11.9164 52.2063 12.4716 51.8273 13.4513C51.4483 14.4309 51.1867 14.9755 50.5914 15.8243C49.9961 16.6731 49.6358 17.0549 48.8537 17.6902C48.0715 18.3255 47.575 18.5764 46.6862 19.0008C45.7973 19.4252 45.2848 19.5961 44.4119 19.8149C43.5363 20.0338 43.0612 20.0445 42.3084 20.0952C41.5557 20.146 41.1793 20.1379 40.6481 20.0685C40.1196 20.0018 39.9541 19.9591 39.6631 19.7589C39.3695 19.5587 39.2734 19.4279 39.1853 19.0675C39.0999 18.7072 39.1053 18.4536 39.2307 17.9544C39.3562 17.4553 39.5163 17.1403 39.8126 16.5744C40.1089 16.0058 40.3465 15.6321 40.7122 15.1169C41.0806 14.5991 41.3075 14.3295 41.6491 13.9878C41.9881 13.6461 42.1456 13.574 42.4126 13.4085C42.6795 13.2404 42.7702 13.2831 42.9758 13.1576C43.1813 13.0322 43.3308 13.0055 43.4376 12.7813C43.5417 12.557 43.6164 12.2794 43.5043 12.0338Z" fill="black" stroke="black"/>
<path d="M59.4025 15.1808C59.608 15.0046 59.7041 14.8311 59.6294 14.5962C59.5546 14.3613 59.3705 14.1638 59.0315 14.0036C58.6925 13.8435 58.3695 13.726 57.929 13.7928C57.4913 13.8622 57.1763 14.025 56.8346 14.348C56.4929 14.671 56.3648 14.9326 56.2233 15.4077C56.0792 15.8828 56.0365 16.1978 56.1219 16.721C56.21 17.2469 56.3221 17.5725 56.6584 18.0317C56.9948 18.4935 57.2697 18.7097 57.8009 19.0273C58.3321 19.345 58.6684 19.4437 59.3117 19.6199C59.955 19.7934 60.3207 19.8308 61.0201 19.9002C61.7168 19.9696 62.1065 19.9883 62.8032 19.9643C63.5026 19.9376 63.879 19.9482 64.5036 19.7694C65.1309 19.5906 65.6781 19.3797 65.937 19.07C66.1959 18.7604 66.1265 18.4374 65.8009 18.2212C65.4752 18.0076 64.904 18.0343 64.3034 17.9943C63.7028 17.9542 63.4065 18.0423 62.7952 18.0237C62.1813 18.0023 61.8369 17.9729 61.2417 17.8982C60.6464 17.8208 60.3261 17.7674 59.8189 17.6473C59.3117 17.5272 59.0688 17.4417 58.7058 17.2923C58.3454 17.1428 58.1799 17.0494 58.0091 16.9025C57.8356 16.7584 57.8223 16.713 57.8489 16.5662C57.8756 16.4194 58.0331 16.3286 58.1426 16.1738C58.252 16.019 58.3267 15.9069 58.3935 15.7868C58.4602 15.6693 58.4976 15.6346 58.4762 15.5785C58.4522 15.5198 58.3428 15.5145 58.2814 15.4958C58.22 15.4744 58.1052 15.4824 58.1693 15.4744C58.2333 15.4691 58.3535 15.5252 58.6017 15.4664C58.8473 15.4077 59.197 15.3543 59.4025 15.1808Z" fill="black" stroke="black"/>
<path d="M87.6349 5.93422C87.5147 5.67797 87.3172 5.57386 86.9408 5.43239C86.5618 5.28824 86.3349 5.20817 85.7423 5.22419C85.1497 5.24287 84.6906 5.2482 83.9805 5.51514C83.2705 5.78474 82.9155 6.0597 82.1921 6.5642C81.4714 7.0687 81.1164 7.36766 80.3716 8.03766C79.6269 8.70766 79.1464 9.09472 78.4737 9.91154C77.8011 10.731 77.454 11.2249 77.0056 12.1324C76.5598 13.0373 76.3489 13.5365 76.2395 14.4441C76.1274 15.349 76.1674 15.8561 76.4557 16.6676C76.7413 17.4791 77.0109 17.9062 77.6703 18.5014C78.3322 19.0967 78.8207 19.2809 79.7577 19.6413C80.6946 19.999 81.2445 20.1217 82.3576 20.2953C83.4707 20.4688 84.1274 20.4848 85.3232 20.5061C86.5164 20.5248 87.1677 20.5061 88.3342 20.394C89.4981 20.2819 90.0987 20.1938 91.1531 19.9429C92.2048 19.6946 92.7733 19.5452 93.5928 19.1448C94.415 18.747 94.7807 18.416 95.2531 17.9436C95.7283 17.4711 95.9045 17.1081 95.9632 16.7851C96.0246 16.4621 95.8618 16.3179 95.5521 16.3286C95.2398 16.3393 94.9382 16.5502 94.4123 16.8385C93.8864 17.1294 93.6355 17.4177 92.9175 17.7807C92.1968 18.1438 91.7563 18.384 90.8167 18.6563C89.8744 18.9259 89.3005 19.0193 88.2088 19.1287C87.117 19.2408 86.479 19.2489 85.3579 19.2062C84.2368 19.1608 83.6042 19.1127 82.5978 18.9152C81.5942 18.7177 81.1003 18.5442 80.3316 18.2158C79.5628 17.8875 79.2372 17.69 78.7567 17.2736C78.2735 16.8598 78.116 16.6703 77.9265 16.1418C77.737 15.6159 77.7183 15.3089 77.8064 14.6416C77.8945 13.9743 78.0039 13.5525 78.3723 12.8024C78.738 12.0523 79.0343 11.5986 79.6402 10.8939C80.2488 10.1891 80.7026 9.82612 81.41 9.27623C82.12 8.72635 82.5311 8.50213 83.1824 8.14444C83.8364 7.78942 84.122 7.6693 84.6746 7.49045C85.2298 7.31427 85.5181 7.34898 85.9559 7.25822C86.3936 7.16479 86.5511 7.1461 86.8661 7.03666C87.1837 6.92722 87.3839 6.92722 87.5361 6.70567C87.6909 6.48678 87.7523 6.18781 87.6349 5.93422Z" fill="black" stroke="black"/>
<path d="M94.4967 7.39716C94.2992 7.7068 94.2645 8.1152 94.2752 8.80656C94.2858 9.49792 94.3899 9.9517 94.5448 10.8539C94.6996 11.7562 94.8544 12.4262 95.0519 13.3151C95.2468 14.204 95.3322 14.6204 95.5271 15.3037C95.7246 15.9844 95.8287 16.2727 96.0343 16.7238C96.2425 17.1749 96.3145 17.3324 96.5575 17.5566C96.7977 17.7809 96.9312 17.8102 97.2408 17.8476C97.5504 17.8823 97.764 17.8823 98.1083 17.7355C98.4527 17.586 98.6582 17.4499 98.9599 17.1028C99.2642 16.7532 99.3576 16.4328 99.6165 15.9924C99.8781 15.552 100.006 15.2664 100.262 14.9033C100.519 14.5376 100.65 14.3321 100.898 14.1719C101.149 14.0144 101.229 14.0224 101.514 14.1025C101.8 14.1853 101.979 14.3428 102.326 14.583C102.67 14.8232 102.865 14.9701 103.239 15.3037C103.612 15.6401 103.802 15.8856 104.192 16.2567C104.584 16.6304 104.822 16.8252 105.198 17.1669C105.574 17.5113 105.732 17.6874 106.074 17.9677C106.415 18.2507 106.61 18.4028 106.906 18.571C107.203 18.7365 107.344 18.7498 107.558 18.8032C107.771 18.8566 107.825 18.8539 107.972 18.8406C108.121 18.8272 108.196 18.8593 108.3 18.7365C108.404 18.6137 108.473 18.3841 108.492 18.2293C108.511 18.0745 108.444 18.0745 108.393 17.965C108.343 17.8556 108.337 17.8209 108.236 17.6821C108.132 17.546 108.07 17.4819 107.875 17.279C107.681 17.0761 107.536 16.956 107.261 16.6704C106.984 16.3875 106.826 16.214 106.493 15.8563C106.156 15.4959 105.972 15.2877 105.58 14.8739C105.187 14.4602 105.001 14.1719 104.528 13.7875C104.056 13.4032 103.767 13.2056 103.215 12.9547C102.662 12.7038 102.347 12.589 101.763 12.533C101.175 12.4769 100.868 12.4929 100.287 12.6744C99.7019 12.8559 99.3709 13.0481 98.8477 13.4379C98.3219 13.8303 98.0496 14.1426 97.6625 14.631C97.2755 15.1195 97.0886 15.4292 96.9151 15.8856C96.739 16.3394 96.7256 16.5983 96.7843 16.9C96.8431 17.2043 97.0539 17.3564 97.2114 17.4045C97.3663 17.4499 97.5104 17.3511 97.5611 17.1322C97.6145 16.9107 97.5318 16.7532 97.473 16.3021C97.417 15.8536 97.4036 15.56 97.2755 14.8846C97.15 14.212 97.0219 13.8036 96.8404 12.9307C96.6589 12.0578 96.5388 11.4038 96.3653 10.5203C96.1917 9.63672 96.1971 9.16958 95.9782 8.51827C95.7593 7.86428 95.5645 7.4799 95.2682 7.25568C94.9719 7.03145 94.6943 7.08752 94.4967 7.39716Z" fill="black" stroke="black"/>
<path d="M111.205 14.6098C110.96 14.8206 110.847 15.1543 110.789 15.6161C110.73 16.0806 110.815 16.3929 110.914 16.9214C111.01 17.4526 111.053 17.8183 111.275 18.2694C111.496 18.7205 111.702 18.9688 112.022 19.177C112.345 19.3825 112.567 19.3879 112.882 19.3025C113.194 19.217 113.405 19.0622 113.586 18.7499C113.768 18.4376 113.808 18.168 113.784 17.7382C113.76 17.3085 113.624 17.0495 113.463 16.6011C113.306 16.1526 113.135 15.9017 112.988 15.4987C112.844 15.0983 112.799 14.882 112.737 14.5911C112.679 14.3001 112.641 14.188 112.689 14.0412C112.737 13.897 112.777 13.8944 112.98 13.865C113.183 13.8357 113.33 13.8597 113.706 13.8944C114.083 13.9291 114.326 13.9558 114.862 14.0359C115.396 14.1159 115.74 14.1773 116.381 14.2948C117.022 14.4122 117.406 14.495 118.065 14.6204C118.725 14.7459 119.09 14.7886 119.675 14.9194C120.262 15.0475 120.524 15.1249 120.991 15.2637C121.455 15.3999 121.688 15.4506 122 15.6081C122.315 15.7629 122.371 15.8323 122.555 16.0405C122.737 16.2487 122.798 16.3555 122.916 16.6491C123.033 16.9401 123.02 17.1323 123.14 17.506C123.26 17.8797 123.327 18.16 123.519 18.5203C123.711 18.878 123.847 19.0756 124.101 19.3025C124.354 19.5267 124.549 19.5961 124.787 19.6521C125.024 19.7055 125.163 19.6575 125.291 19.5694C125.422 19.4786 125.385 19.3292 125.427 19.209C125.47 19.0889 125.47 19.1236 125.507 18.9661C125.545 18.8086 125.646 18.6805 125.617 18.4216C125.588 18.1626 125.494 18.0078 125.366 17.6688C125.238 17.3298 125.174 17.1056 124.974 16.7265C124.773 16.3475 124.637 16.1233 124.37 15.7763C124.103 15.4292 123.954 15.2984 123.639 14.9915C123.327 14.6872 123.215 14.5217 122.803 14.2467C122.392 13.9745 122.115 13.8517 121.584 13.6274C121.055 13.4059 120.772 13.3231 120.155 13.1283C119.542 12.9361 119.186 12.8373 118.511 12.6611C117.836 12.4823 117.462 12.3782 116.776 12.2367C116.093 12.0979 115.727 12.0125 115.086 11.9671C114.446 11.9191 114.131 11.9031 113.576 12.0018C113.02 12.1006 112.74 12.186 112.313 12.4583C111.883 12.7279 111.691 12.9388 111.435 13.3525C111.176 13.7636 111.112 14.0172 111.018 14.519C110.928 15.0208 110.946 15.3171 110.97 15.8617C110.997 16.4036 111.037 16.7185 111.141 17.2364C111.248 17.7516 111.275 18.0746 111.496 18.4429C111.718 18.8113 111.961 18.9581 112.249 19.0836C112.54 19.2064 112.711 19.1663 112.943 19.0622C113.175 18.9554 113.314 18.8513 113.405 18.5497C113.498 18.2507 113.479 18.0051 113.405 17.562C113.33 17.1216 113.207 16.7879 113.034 16.3368C112.857 15.8857 112.737 15.6641 112.535 15.3091C112.332 14.9541 112.286 14.7059 112.022 14.5644C111.755 14.4256 111.453 14.4016 111.205 14.6098Z" fill="black" stroke="black"/>
<path d="M120.605 8.27029C120.448 8.40642 120.304 8.91628 120.301 9.10046C120.296 9.28731 120.408 9.50352 120.584 9.19388C120.76 8.88424 121.027 7.86989 121.187 7.55491C121.347 7.23992 121.403 7.44281 121.385 7.61631C121.366 7.78982 121.243 8.29164 121.088 8.42244C120.931 8.55324 120.763 8.13415 120.605 8.27029Z" fill="black" stroke="black"/>
<path d="M134.978 12.2019C134.836 11.9616 134.633 11.8442 134.262 11.7561C133.891 11.668 133.624 11.668 133.117 11.7614C132.607 11.8522 132.252 11.9456 131.721 12.2125C131.187 12.4795 130.867 12.6797 130.456 13.1014C130.045 13.5205 129.837 13.8008 129.66 14.3133C129.482 14.8232 129.423 15.1248 129.57 15.6613C129.714 16.1979 129.895 16.5235 130.384 16.9987C130.875 17.4738 131.278 17.6927 132.02 18.0424C132.765 18.3894 133.285 18.4588 134.105 18.7444C134.924 19.03 135.394 19.2195 136.123 19.4651C136.852 19.7134 137.241 19.8335 137.746 19.9803C138.25 20.1244 138.451 20.1565 138.643 20.1912C138.835 20.2232 138.832 20.1698 138.71 20.1431C138.589 20.1164 138.421 20.0444 138.034 20.0604C137.644 20.0764 137.337 20.1271 136.766 20.2232C136.192 20.322 135.819 20.4421 135.167 20.5489C134.516 20.653 134.129 20.7064 133.51 20.7517C132.89 20.7944 132.551 20.8131 132.071 20.7704C131.59 20.7277 131.425 20.645 131.107 20.5382C130.79 20.4314 130.718 20.3433 130.488 20.2366C130.258 20.1298 130.165 19.983 129.957 20.0043C129.751 20.023 129.524 20.1164 129.45 20.338C129.375 20.5596 129.399 20.7944 129.586 21.1148C129.773 21.4378 129.949 21.6647 130.384 21.9423C130.816 22.2225 131.129 22.356 131.756 22.5135C132.381 22.6737 132.784 22.6977 133.518 22.7351C134.249 22.7751 134.665 22.7698 135.421 22.711C136.176 22.6523 136.622 22.6363 137.289 22.4414C137.959 22.2439 138.317 22.0837 138.768 21.7287C139.219 21.3737 139.404 21.1201 139.548 20.669C139.692 20.2179 139.7 19.9269 139.489 19.4785C139.281 19.03 139.038 18.7951 138.499 18.4321C137.957 18.0691 137.532 17.9596 136.79 17.6633C136.048 17.367 135.56 17.2656 134.788 16.9453C134.02 16.6249 133.598 16.366 132.938 16.0644C132.279 15.7601 131.927 15.616 131.486 15.4371C131.046 15.2556 130.854 15.2342 130.734 15.1595C130.616 15.0847 130.707 15.1515 130.894 15.0607C131.083 14.9726 131.318 14.8712 131.673 14.7137C132.026 14.5562 132.244 14.4388 132.663 14.2706C133.083 14.1051 133.395 14.0544 133.766 13.8755C134.137 13.6967 134.278 13.5659 134.521 13.3817C134.762 13.1949 134.879 13.1842 134.97 12.9466C135.061 12.7117 135.119 12.4394 134.978 12.2019Z" fill="black" stroke="black"/>
<path d="M140.577 9.69304C140.375 9.8879 140.286 10.0854 140.244 10.5606C140.201 11.033 140.214 11.3881 140.367 12.0661C140.516 12.7414 140.738 13.1685 140.999 13.9426C141.258 14.7167 141.408 15.1678 141.669 15.9366C141.931 16.7081 142.067 17.1432 142.307 17.7918C142.55 18.4431 142.646 18.7234 142.878 19.1852C143.111 19.647 143.255 19.8445 143.468 20.1008C143.685 20.357 143.773 20.4264 143.959 20.4691C144.144 20.5145 144.277 20.4718 144.395 20.3223C144.515 20.1728 144.549 20.0527 144.557 19.7191C144.565 19.3827 144.536 19.1478 144.435 18.646C144.336 18.1468 144.242 17.8719 144.056 17.2179C143.871 16.5639 143.714 16.1502 143.503 15.376C143.295 14.6046 143.204 14.1455 143.009 13.358C142.814 12.5679 142.764 12.0661 142.529 11.4281C142.291 10.7901 142.08 10.5339 141.827 10.1628C141.573 9.79448 141.512 9.67703 141.261 9.5836C141.013 9.49018 140.78 9.49818 140.577 9.69304Z" fill="black" stroke="black"/>
<path d="M140.28 17.5862C140.512 17.6983 140.627 17.6182 141.03 17.5755C141.436 17.5328 141.67 17.5381 142.298 17.378C142.925 17.2151 143.339 16.9829 144.166 16.7667C144.996 16.5478 145.533 16.4491 146.449 16.2916C147.364 16.1314 147.911 16.086 148.747 15.9739C149.58 15.8591 149.999 15.8324 150.615 15.7257C151.229 15.6162 151.494 15.4961 151.822 15.432C152.15 15.368 152.188 15.3813 152.254 15.4053C152.324 15.432 152.27 15.4134 152.156 15.5575C152.041 15.699 151.814 15.8057 151.68 16.1207C151.55 16.433 151.507 16.708 151.499 17.1217C151.491 17.5355 151.52 17.7624 151.64 18.1868C151.763 18.6112 151.825 18.8701 152.108 19.2465C152.391 19.6202 152.604 19.8498 153.055 20.0633C153.506 20.2795 153.827 20.3303 154.363 20.3196C154.9 20.3089 155.199 20.2021 155.738 20.0099C156.277 19.8204 156.536 19.695 157.062 19.3693C157.585 19.0436 157.921 18.8434 158.362 18.3843C158.8 17.9252 159.008 17.6262 159.256 17.0737C159.502 16.5238 159.6 16.1981 159.595 15.6242C159.592 15.0503 159.523 14.7033 159.235 14.2095C158.946 13.713 158.682 13.4487 158.156 13.1471C157.628 12.8454 157.249 12.7467 156.6 12.6986C155.949 12.6479 155.543 12.7093 154.905 12.9015C154.27 13.091 153.931 13.2752 153.421 13.6516C152.911 14.0253 152.663 14.2762 152.361 14.778C152.062 15.2799 151.947 15.6162 151.921 16.1634C151.894 16.708 152.006 17.0523 152.225 17.5061C152.444 17.9599 152.657 18.2161 153.02 18.4297C153.384 18.6432 153.741 18.686 154.037 18.5765C154.334 18.4697 154.475 18.1761 154.502 17.8878C154.531 17.5969 154.334 17.378 154.176 17.1297C154.019 16.8815 153.859 16.8281 153.712 16.6466C153.568 16.4651 153.442 16.4037 153.445 16.2248C153.448 16.046 153.522 15.9526 153.725 15.7524C153.925 15.5522 154.107 15.4107 154.454 15.2265C154.798 15.045 155.038 14.9409 155.455 14.8314C155.874 14.722 156.152 14.7006 156.544 14.6793C156.936 14.6606 157.15 14.6606 157.422 14.73C157.692 14.7994 157.788 14.8581 157.903 15.0236C158.015 15.1865 158.036 15.3039 157.993 15.5468C157.951 15.7924 157.881 15.9579 157.686 16.2408C157.489 16.5238 157.35 16.684 157.011 16.9589C156.675 17.2365 156.397 17.386 155.999 17.6236C155.599 17.8585 155.386 17.9839 155.02 18.1414C154.654 18.2962 154.451 18.3363 154.174 18.4057C153.899 18.4777 153.795 18.5018 153.637 18.4911C153.48 18.4804 153.434 18.451 153.384 18.3496C153.333 18.2508 153.33 18.1921 153.384 17.9919C153.434 17.7891 153.573 17.6583 153.64 17.3406C153.707 17.0256 153.749 16.7907 153.717 16.409C153.682 16.0246 153.64 15.7924 153.474 15.4294C153.311 15.0637 153.21 14.8608 152.898 14.5859C152.583 14.3136 152.399 14.1721 151.902 14.06C151.406 13.9479 151.093 13.9799 150.415 14.0226C149.737 14.0653 149.358 14.1614 148.515 14.2789C147.668 14.3963 147.143 14.4871 146.195 14.6072C145.247 14.7273 144.689 14.7407 143.779 14.8795C142.869 15.021 142.332 15.0503 141.641 15.3092C140.95 15.5655 140.675 15.8271 140.32 16.1661C139.967 16.5078 139.879 16.7267 139.871 17.0096C139.863 17.2952 140.048 17.4741 140.28 17.5862Z" fill="black" stroke="black"/>
<path d="M166.889 11.0223C167.145 10.7794 167.303 10.4191 167.345 9.88786C167.391 9.35933 167.361 8.90021 167.111 8.37168C166.862 7.84315 166.59 7.51751 166.102 7.2479C165.616 6.9783 165.239 6.88486 164.679 7.021C164.116 7.15714 163.731 7.34933 163.291 7.92858C162.848 8.50783 162.669 8.99364 162.466 9.91189C162.263 10.8275 162.266 11.4281 162.271 12.5118C162.274 13.5982 162.332 14.1935 162.485 15.3306C162.637 16.4704 162.773 17.1324 163.037 18.2055C163.301 19.2813 163.464 19.8258 163.809 20.7013C164.153 21.5769 164.399 21.9613 164.759 22.5859C165.119 23.2105 165.301 23.4561 165.61 23.8218C165.92 24.1875 166.083 24.2489 166.304 24.409C166.526 24.5692 166.558 24.6172 166.718 24.6253C166.878 24.6333 167.017 24.5932 167.103 24.4464C167.191 24.2996 167.207 24.1715 167.159 23.8885C167.108 23.6056 167.049 23.4561 166.854 23.029C166.662 22.6046 166.523 22.3457 166.187 21.7611C165.853 21.1792 165.541 20.8962 165.178 20.1167C164.815 19.3373 164.631 18.8568 164.369 17.8665C164.108 16.8762 163.974 16.2222 163.865 15.1651C163.758 14.1108 163.734 13.5368 163.83 12.5812C163.923 11.6256 164.121 11.1264 164.337 10.387C164.556 9.65029 164.751 9.33798 164.916 8.88953C165.082 8.44109 165.119 8.27025 165.162 8.1448C165.207 8.01934 165.149 8.0834 165.133 8.26225C165.119 8.44376 165.034 8.65998 165.09 9.04703C165.146 9.43408 165.221 9.78644 165.416 10.1975C165.61 10.6086 165.771 10.9369 166.067 11.0997C166.361 11.2652 166.633 11.2652 166.889 11.0223Z" fill="black" stroke="black"/>
<path d="M160.81 19.7001C161.021 19.8603 161.087 19.9831 161.683 19.943C162.275 19.903 162.753 19.7508 163.775 19.4999C164.8 19.249 165.526 18.9874 166.8 18.6938C168.073 18.4001 168.887 18.2587 170.142 18.0291C171.394 17.7995 172.082 17.7008 173.065 17.5486C174.047 17.3938 174.45 17.4071 175.053 17.2603C175.659 17.1162 175.806 16.9747 176.092 16.8252C176.377 16.6731 176.409 16.6357 176.476 16.5076C176.545 16.3768 176.535 16.286 176.433 16.1792C176.335 16.0725 176.297 16.0404 175.977 15.971C175.657 15.9016 175.462 15.7869 174.832 15.8349C174.202 15.883 173.812 16.0191 172.83 16.2113C171.847 16.4035 171.177 16.569 169.917 16.7959C168.658 17.0228 167.833 17.1295 166.533 17.3457C165.233 17.562 164.461 17.6634 163.412 17.8769C162.363 18.0932 161.848 18.1626 161.293 18.4161C160.738 18.6697 160.732 18.8833 160.634 19.1422C160.537 19.3985 160.602 19.5399 160.81 19.7001Z" fill="black" stroke="black"/>
</svg>
