<svg width="211" height="211" viewBox="0 0 211 211" fill="none" xmlns="http://www.w3.org/2000/svg">
<rect x="0.421875" y="0.639816" width="210.367" height="210.367" rx="34" fill="#FFF312"/>
<path d="M87.0185 77.264L56.8965 134.383H29.4551L52.9772 89.7842C56.6233 82.8666 65.7197 77.264 73.2978 77.264H87.0185ZM154.313 91.5437C154.313 83.6543 160.456 77.264 168.034 77.264C175.612 77.264 181.755 83.6543 181.755 91.5437C181.755 99.4331 175.612 105.823 168.034 105.823C160.456 105.823 154.313 99.4331 154.313 91.5437ZM92.1638 77.264H119.605L89.4832 134.383H62.0418L92.1638 77.264ZM124.573 77.264H152.014L128.498 121.863C124.852 128.78 115.749 134.383 108.171 134.383H94.4506L124.573 77.264Z" fill="black"/>
</svg>
