<svg width="262" height="64" viewBox="0 0 262 64" fill="none" xmlns="http://www.w3.org/2000/svg">
<path d="M207.766 0.547852H262V10.5582H240.486V63.2211H229.728V10.5582H207.766V0.547852Z" fill="white"/>
<path d="M118.569 0.547852V10.5582H75.0957V26.6617H110.056V36.672H75.0957V53.2108H118.569V63.2211H64.3385V10.5582H64.334V0.547852H118.569Z" fill="white"/>
<path d="M145.65 0.574219H131.572L181.996 63.2475H196.115L170.9 31.9324L196.075 0.622034L181.996 0.643791L163.852 23.1788L145.65 0.574219Z" fill="white"/>
<path d="M160.096 45.3418L153.046 36.5762L131.531 63.295H145.649L160.096 45.3418Z" fill="white"/>
<path fill-rule="evenodd" clip-rule="evenodd" d="M64.7159 63.2208L14.2239 0.521484H0.777344V63.1947H11.5346V13.9179L51.202 63.2208H64.7159Z" fill="white"/>
</svg>
