<svg width="145" height="109" viewBox="0 0 145 109" fill="none" xmlns="http://www.w3.org/2000/svg">
<path d="M0.201172 104.823V1.92266C0.201172 1.22266 0.501172 0.822655 1.20117 0.822655C2.90117 0.822655 4.50117 0.822656 6.80117 0.722656C9.20117 0.622656 11.7012 0.622655 14.4012 0.522655C17.1012 0.422655 20.0012 0.422655 23.1012 0.322655C26.2012 0.222655 29.2012 0.222656 32.2012 0.222656C40.4012 0.222656 47.2012 1.22265 52.8012 3.32265C57.8012 5.02265 62.4012 7.82266 66.2012 11.5227C69.4012 14.7227 71.9012 18.6227 73.5012 22.9227C75.0012 27.1227 75.8012 31.4227 75.8012 35.9227C75.8012 44.5227 73.8012 51.6227 69.8012 57.2227C65.8012 62.8227 60.2012 67.0227 53.7012 69.4227C46.9012 71.9227 39.4012 72.8227 31.2012 72.8227C28.8012 72.8227 27.2012 72.8227 26.2012 72.7227C25.2012 72.6227 23.8012 72.6227 21.9012 72.6227V104.723C22.0012 105.423 21.5012 106.023 20.8012 106.123C20.7012 106.123 20.6012 106.123 20.4012 106.123H1.40117C0.601173 106.123 0.201172 105.723 0.201172 104.823ZM22.0012 20.1227V53.7227C23.4012 53.8227 24.7012 53.9227 25.9012 53.9227H31.2012C35.1012 53.9227 39.0012 53.3227 42.7012 52.1227C45.9012 51.2227 48.7012 49.3227 50.9012 46.8227C53.0012 44.3227 54.0012 40.9227 54.0012 36.5227C54.1012 33.4227 53.3012 30.3227 51.7012 27.6227C50.0012 25.0227 47.6012 23.0227 44.7012 21.9227C41.0012 20.4227 37.0012 19.8227 32.9012 19.9227C30.3012 19.9227 28.0012 19.9227 26.1012 20.0227C24.1012 19.9227 22.7012 20.0227 22.0012 20.1227Z" fill="#31A8FF"/>
<path d="M138.201 47.6225C135.201 46.0225 132.001 44.9225 128.601 44.2225C124.901 43.4225 121.201 42.9225 117.401 42.9225C115.401 42.8225 113.301 43.1225 111.401 43.6225C110.101 43.9225 109.001 44.6225 108.301 45.6225C107.801 46.4225 107.501 47.4225 107.501 48.3225C107.501 49.2225 107.901 50.1225 108.501 50.9225C109.401 52.0225 110.601 52.9225 111.901 53.6225C114.201 54.8225 116.601 55.9225 119.001 56.9225C124.401 58.7225 129.601 61.2225 134.401 64.2225C137.701 66.3225 140.401 69.1225 142.301 72.5225C143.901 75.7225 144.701 79.2225 144.601 82.8225C144.701 87.5225 143.301 92.2225 140.701 96.1225C137.901 100.122 134.001 103.222 129.501 105.022C124.601 107.122 118.601 108.222 111.401 108.222C106.801 108.222 102.301 107.822 97.801 106.922C94.301 106.322 90.801 105.222 87.601 103.722C86.901 103.322 86.401 102.622 86.501 101.822V84.4225C86.501 84.1225 86.601 83.7225 86.901 83.5225C87.201 83.3225 87.501 83.4225 87.801 83.6225C91.701 85.9225 95.801 87.5225 100.201 88.5225C104.001 89.5225 108.001 90.0225 112.001 90.0225C115.801 90.0225 118.501 89.5225 120.301 88.6225C121.901 87.9225 123.001 86.2225 123.001 84.4225C123.001 83.0225 122.201 81.7225 120.601 80.4225C119.001 79.1225 115.701 77.6225 110.801 75.7225C105.701 73.9225 101.001 71.5225 96.601 68.5225C93.501 66.3225 90.901 63.4225 89.001 60.0225C87.401 56.8225 86.601 53.3225 86.701 49.8225C86.701 45.5225 87.901 41.4225 90.101 37.7225C92.601 33.7225 96.301 30.5225 100.601 28.5225C105.301 26.1225 111.201 25.0225 118.301 25.0225C122.401 25.0225 126.601 25.3225 130.701 25.9225C133.701 26.3225 136.601 27.1225 139.301 28.2225C139.701 28.3225 140.101 28.7225 140.301 29.1225C140.401 29.5225 140.501 29.9225 140.501 30.3225V46.6225C140.501 47.0225 140.301 47.4225 140.001 47.6225C139.101 47.8225 138.601 47.8225 138.201 47.6225Z" fill="#31A8FF"/>
</svg>
