<svg width="490" height="115" viewBox="0 0 490 115" fill="none" xmlns="http://www.w3.org/2000/svg">
<path fill-rule="evenodd" clip-rule="evenodd" d="M56.8659 34.1508C64.0085 29.6535 72.8752 24.3268 85.0332 17.1444C87.8544 15.4852 92.7358 15.0704 96.5418 16.1838C100.348 17.2972 101.915 19.5896 100.236 21.5871C100.236 21.5871 86.9364 37.3927 86.9587 37.3927C98.8702 29.4899 113.872 20.7574 139.038 6.52307C141.949 4.88572 146.875 4.52552 150.614 5.68256C154.376 6.83961 155.809 9.16465 154.017 11.1403C144.143 22.0121 137.023 29.9152 131.246 36.4645C142.083 28.5178 151.196 22.6781 167.205 11.7187C169.847 9.91766 174.818 9.36097 178.803 10.4307C182.788 11.5004 184.49 13.8474 182.788 15.8993C175.288 24.8939 168.705 32.8512 162.905 39.8917C175.668 30.9846 193.02 20.047 219.128 4.49232C221.994 2.78947 227.031 2.3856 230.86 3.57543C234.689 4.75433 236.1 7.13381 234.152 9.13152C229.584 13.8253 225.509 18.0277 221.837 21.8264C227.771 17.6131 234.51 12.8975 242.257 7.50518C244.877 5.69319 249.87 5.11466 253.878 6.17348C257.885 7.2323 259.61 9.59019 257.908 11.653C243.802 28.5722 235.63 38.2324 228.017 47.6196C240.489 37.9921 255.535 27.6003 282.649 9.4147C285.336 7.62455 290.352 7.08968 294.292 8.18122C298.255 9.27277 299.912 11.6415 298.143 13.6828C287.463 25.9628 279.47 35.1429 272.909 42.7948C282.671 35.3285 294.897 26.454 311.981 14.3702C314.623 12.5037 319.75 11.9361 323.78 13.0604C327.811 14.1738 329.423 16.6188 327.497 18.6819C327.296 18.8892 327.049 19.053 326.669 19.3149L326.736 19.3368C325.795 20.0136 324.855 20.6685 323.937 21.3234C321.698 23.1354 318.003 26.4537 311.801 32.9048C323.131 25.1766 337.349 16.2477 359.896 2.36208C362.695 0.637411 367.688 0.200784 371.538 1.33601C375.389 2.47123 376.935 4.82899 375.121 6.8376C360.366 23.1454 351.611 32.6857 344.043 41.0466C355.014 33.4603 368.18 25.0551 391.331 10.8C394.153 9.05355 399.235 8.62786 403.109 9.80673C406.982 10.9856 408.415 13.3869 406.423 15.3955C399.661 22.2504 394.511 27.4572 390.055 31.9218C400.914 25.9728 412.58 20.3514 422.79 14.1403C425.633 12.4047 430.716 11.9899 434.567 13.1797C438.418 14.3695 439.829 16.7711 437.836 18.7685C437.836 18.7685 407.206 49.6381 407.206 49.6493C419.498 43.602 436.403 35.2188 460.047 23.4519C463.182 21.891 468.22 21.7054 471.802 23.0153C475.407 24.3251 476.459 26.7265 474.265 28.6367L461.816 39.5086L474.041 33.4395C477.041 31.944 481.811 31.7039 485.371 32.8609C488.953 34.018 490.341 36.2447 488.685 38.1767L471.175 58.6982C469.272 60.925 464.033 61.9729 459.465 61.0559C455.099 60.1718 452.927 57.7812 454.427 55.62L427.894 68.7841C424.76 70.345 419.722 70.5306 416.139 69.2207C412.557 67.9109 411.505 65.5095 413.676 63.5993C413.676 63.5993 426.103 52.7601 426.081 52.771C389.562 70.8035 387.973 71.262 382.554 73.991C379.509 75.5411 374.605 75.7703 370.978 74.5477C367.373 73.3252 366.119 71.0003 368.023 69.0682L393.212 43.6786C383.405 49.7805 374.628 56.2752 365.873 62.7481C356.962 69.3303 349.439 76.3272 340.527 82.9203C337.952 84.8196 332.78 85.4418 328.705 84.3284C324.608 83.215 322.951 80.7591 324.921 78.6851C336.295 66.6561 344.177 58.4149 350.491 51.8875C338.668 60.4453 327.093 69.6254 304.008 87.0242C301.5 88.9126 296.44 89.5675 292.32 88.5196C288.223 87.4717 286.432 85.0702 288.2 82.9853C308.867 58.5344 317.173 49.0586 328.548 36.5174C307.21 50.904 296.753 60.4444 263.393 88.4316C261.042 90.4182 255.937 91.1714 251.727 90.1563C247.496 89.152 245.592 86.7287 247.339 84.6002C249.041 82.5589 250.675 80.5832 252.265 78.6621C243.577 87.1981 233.412 97.6005 218.254 112.566C216.149 114.64 211.067 115.557 206.701 114.651C202.334 113.745 200.185 111.322 201.797 109.15C226.225 76.3911 234.532 65.2135 249.466 47.5194C229.561 62.2883 218.702 72.8654 186.438 101.923C184.199 103.932 179.183 104.761 174.884 103.823C170.608 102.884 168.525 100.504 170.138 98.3541C190.222 71.3597 199.67 58.9057 209.231 47.0072C191.274 61.2083 181.064 72.124 152.225 100.428C150.076 102.534 144.926 103.429 140.537 102.469C136.149 101.508 134.111 99.0194 135.925 96.8473C160.98 66.7209 169.555 56.2084 184.468 40.2385C150.39 63.0631 146.225 71.871 114.63 101.497C112.435 103.549 107.331 104.412 103.009 103.462C98.688 102.512 96.628 100.078 98.3074 97.9168C103.211 91.6839 102.45 90.2758 136.371 48.7215C124.929 57.6395 109.972 70.0832 84.7835 91.7411C82.4549 93.7387 77.3498 94.5246 73.0955 93.5204C68.8413 92.5161 66.9159 90.0819 68.6846 87.9534C91.9035 59.9536 98.5755 51.4083 112.637 35.4384C86.6646 51.3751 77.9543 59.9329 42.7362 89.8843C40.3851 91.8819 35.2577 92.646 31.0258 91.6308C26.794 90.6266 24.8909 88.1814 26.6821 86.0529C26.6821 86.0529 59.3495 47.183 59.3719 47.1718C47.2809 55.4787 38.5489 62.9011 16.6959 79.95C14.2106 81.8821 9.1057 82.5697 4.96324 81.5109C0.820996 80.463 -0.970461 78.0288 0.865821 75.9221L40.3846 30.7424C42.3102 28.5265 47.5943 27.4894 52.1397 28.4392C56.6849 29.3779 58.8122 31.954 56.8641 34.1699V34.1918L56.8659 34.1508Z" fill="#726DF3"/>
</svg>
