<svg width="188" height="114" viewBox="0 0 188 114" fill="none" xmlns="http://www.w3.org/2000/svg">
<mask id="mask0_47_376" style="mask-type:luminance" maskUnits="userSpaceOnUse" x="0" y="0" width="188" height="114">
<path d="M0 0.167969H188V113.077H0V0.167969Z" fill="white"/>
</mask>
<g mask="url(#mask0_47_376)">
<path fill-rule="evenodd" clip-rule="evenodd" d="M94 0.167969C68.9333 0.167969 53.2667 12.7134 47 37.8043C56.4 25.2589 67.3667 20.5543 79.9 23.6907C87.051 25.4784 92.1618 30.6743 97.8192 36.4208C107.035 45.7846 117.702 56.6225 141 56.6225C166.067 56.6225 181.733 44.0771 188 18.9862C178.6 31.5316 167.633 36.2361 155.1 33.0998C147.949 31.3121 142.838 26.1162 137.181 20.3696C127.965 11.0058 117.298 0.167969 94 0.167969ZM47 56.6225C21.9333 56.6225 6.26667 69.168 0 94.2589C9.4 81.7134 20.3667 77.0089 32.9 80.1452C40.051 81.9365 45.1618 87.1289 50.8192 92.8754C60.0347 102.239 70.7019 113.077 94 113.077C119.067 113.077 134.733 100.532 141 75.4407C131.6 87.9862 120.633 92.6907 108.1 89.5543C100.949 87.7666 95.8382 82.5707 90.1808 76.8242C80.9653 67.4604 70.2981 56.6225 47 56.6225Z" fill="#38BDF8"/>
</g>
</svg>
