<svg width="165" height="109" viewBox="0 0 165 109" fill="none" xmlns="http://www.w3.org/2000/svg">
<path d="M0.740234 10.9465V20.482H31.1602V107.062H52.7467V20.482H83.1667V11.122C83.1667 5.85696 83.1667 1.58646 82.9327 1.46946C82.9327 1.29396 64.3882 1.23546 41.8657 1.23546L0.915736 1.41096V11.005L0.740234 10.9465ZM137.455 1.17696C143.422 2.58096 147.985 5.27196 152.08 9.54246C154.244 11.8825 157.462 15.9775 157.696 17.0305C157.696 17.3815 147.575 24.226 141.433 28.0285C141.199 28.204 140.263 27.2095 139.327 25.6885C136.285 21.3595 133.184 19.4875 128.329 19.1365C121.309 18.6685 116.629 22.354 116.629 28.4965C116.629 30.3685 116.98 31.4215 117.682 32.9425C119.261 36.16 122.186 38.0905 131.254 42.0685C147.985 49.264 155.239 54.0025 159.626 60.7885C164.599 68.3935 165.71 80.3275 162.376 89.278C158.632 99.0475 149.506 105.658 136.46 107.822C132.365 108.524 123.005 108.407 118.618 107.647C109.258 105.892 100.307 101.212 94.8082 95.1865C92.6437 92.8465 88.4902 86.587 88.7242 86.1775L90.9472 84.7735L99.7222 79.684L106.333 75.823L107.854 77.8705C109.784 80.9125 114.113 85.0075 116.629 86.4115C124.234 90.331 134.413 89.8045 139.444 85.2415C141.608 83.2525 142.544 81.1465 142.544 78.2215C142.544 75.5305 142.135 74.302 140.789 72.2545C138.917 69.6805 135.173 67.5745 124.643 62.8945C112.534 57.7465 107.386 54.4705 102.589 49.4395C99.8392 46.3975 97.3237 41.659 96.1537 37.7395C95.2762 34.3465 94.9837 26.0395 95.8027 22.705C98.3182 11.005 107.152 2.81496 119.788 0.474962C123.883 -0.344038 133.535 0.00696221 137.572 1.05996L137.455 1.17696Z" fill="#007ACC"/>
</svg>
