<svg width="211" height="211" viewBox="0 0 211 211" fill="none" xmlns="http://www.w3.org/2000/svg">
<rect x="0.189453" width="210.367" height="210.367" rx="34" fill="#2A2343"/>
<path d="M169.387 60.8574L108.846 169.115C107.595 171.349 104.384 171.365 103.115 169.14L41.374 60.8665C39.9915 58.4433 42.0638 55.5074 44.8105 55.9987L105.419 66.8331C105.806 66.9033 106.2 66.9002 106.588 66.83L165.926 56.014C168.664 55.5135 170.745 58.4281 169.387 60.8574Z" fill="#9575CD"/>
<path d="M134.937 39.598L90.5166 48.3021C89.7872 48.4455 89.247 49.065 89.2012 49.8067L86.4697 95.9549C86.4056 97.0413 87.4036 97.8867 88.4657 97.6395L100.832 94.786C101.989 94.5205 103.036 95.5368 102.798 96.7026L99.123 114.694C98.8758 115.905 100.011 116.94 101.195 116.58L108.834 114.26C110.018 113.9 111.157 114.938 110.907 116.153L105.068 144.413C104.702 146.18 107.055 147.145 108.035 145.628L108.691 144.615L144.887 72.3787C145.494 71.1702 144.447 69.7907 143.12 70.047L130.39 72.5038C129.194 72.7358 128.177 71.6218 128.513 70.4499L136.82 41.6458C137.156 40.48 136.137 39.363 134.937 39.598Z" fill="#FBC02D"/>
</svg>
